%TF.GenerationSoftware,KiCad,Pcbnew,8.0.8*%
%TF.CreationDate,2025-02-20T20:11:23+01:00*%
%TF.ProjectId,plate split 2u OEM,706c6174-6520-4737-906c-697420327520,rev?*%
%TF.SameCoordinates,Original*%
%TF.FileFunction,Legend,Bot*%
%TF.FilePolarity,Positive*%
%FSLAX46Y46*%
G04 Gerber Fmt 4.6, Leading zero omitted, Abs format (unit mm)*
G04 Created by KiCad (PCBNEW 8.0.8) date 2025-02-20 20:11:23*
%MOMM*%
%LPD*%
G01*
G04 APERTURE LIST*
%ADD10C,0.150000*%
G04 APERTURE END LIST*
D10*
X255444048Y-98673569D02*
X255444048Y-99387854D01*
X255444048Y-99387854D02*
X255491667Y-99530711D01*
X255491667Y-99530711D02*
X255586905Y-99625950D01*
X255586905Y-99625950D02*
X255729762Y-99673569D01*
X255729762Y-99673569D02*
X255825000Y-99673569D01*
X254491667Y-99673569D02*
X254967857Y-99673569D01*
X254967857Y-99673569D02*
X254967857Y-98673569D01*
X253586905Y-99578330D02*
X253634524Y-99625950D01*
X253634524Y-99625950D02*
X253777381Y-99673569D01*
X253777381Y-99673569D02*
X253872619Y-99673569D01*
X253872619Y-99673569D02*
X254015476Y-99625950D01*
X254015476Y-99625950D02*
X254110714Y-99530711D01*
X254110714Y-99530711D02*
X254158333Y-99435473D01*
X254158333Y-99435473D02*
X254205952Y-99244997D01*
X254205952Y-99244997D02*
X254205952Y-99102140D01*
X254205952Y-99102140D02*
X254158333Y-98911664D01*
X254158333Y-98911664D02*
X254110714Y-98816426D01*
X254110714Y-98816426D02*
X254015476Y-98721188D01*
X254015476Y-98721188D02*
X253872619Y-98673569D01*
X253872619Y-98673569D02*
X253777381Y-98673569D01*
X253777381Y-98673569D02*
X253634524Y-98721188D01*
X253634524Y-98721188D02*
X253586905Y-98768807D01*
X252872619Y-98673569D02*
X252872619Y-99387854D01*
X252872619Y-99387854D02*
X252920238Y-99530711D01*
X252920238Y-99530711D02*
X253015476Y-99625950D01*
X253015476Y-99625950D02*
X253158333Y-99673569D01*
X253158333Y-99673569D02*
X253253571Y-99673569D01*
X251920238Y-99673569D02*
X252396428Y-99673569D01*
X252396428Y-99673569D02*
X252396428Y-98673569D01*
X251015476Y-99578330D02*
X251063095Y-99625950D01*
X251063095Y-99625950D02*
X251205952Y-99673569D01*
X251205952Y-99673569D02*
X251301190Y-99673569D01*
X251301190Y-99673569D02*
X251444047Y-99625950D01*
X251444047Y-99625950D02*
X251539285Y-99530711D01*
X251539285Y-99530711D02*
X251586904Y-99435473D01*
X251586904Y-99435473D02*
X251634523Y-99244997D01*
X251634523Y-99244997D02*
X251634523Y-99102140D01*
X251634523Y-99102140D02*
X251586904Y-98911664D01*
X251586904Y-98911664D02*
X251539285Y-98816426D01*
X251539285Y-98816426D02*
X251444047Y-98721188D01*
X251444047Y-98721188D02*
X251301190Y-98673569D01*
X251301190Y-98673569D02*
X251205952Y-98673569D01*
X251205952Y-98673569D02*
X251063095Y-98721188D01*
X251063095Y-98721188D02*
X251015476Y-98768807D01*
X250301190Y-98673569D02*
X250301190Y-99387854D01*
X250301190Y-99387854D02*
X250348809Y-99530711D01*
X250348809Y-99530711D02*
X250444047Y-99625950D01*
X250444047Y-99625950D02*
X250586904Y-99673569D01*
X250586904Y-99673569D02*
X250682142Y-99673569D01*
X249348809Y-99673569D02*
X249824999Y-99673569D01*
X249824999Y-99673569D02*
X249824999Y-98673569D01*
X248444047Y-99578330D02*
X248491666Y-99625950D01*
X248491666Y-99625950D02*
X248634523Y-99673569D01*
X248634523Y-99673569D02*
X248729761Y-99673569D01*
X248729761Y-99673569D02*
X248872618Y-99625950D01*
X248872618Y-99625950D02*
X248967856Y-99530711D01*
X248967856Y-99530711D02*
X249015475Y-99435473D01*
X249015475Y-99435473D02*
X249063094Y-99244997D01*
X249063094Y-99244997D02*
X249063094Y-99102140D01*
X249063094Y-99102140D02*
X249015475Y-98911664D01*
X249015475Y-98911664D02*
X248967856Y-98816426D01*
X248967856Y-98816426D02*
X248872618Y-98721188D01*
X248872618Y-98721188D02*
X248729761Y-98673569D01*
X248729761Y-98673569D02*
X248634523Y-98673569D01*
X248634523Y-98673569D02*
X248491666Y-98721188D01*
X248491666Y-98721188D02*
X248444047Y-98768807D01*
X247729761Y-98673569D02*
X247729761Y-99387854D01*
X247729761Y-99387854D02*
X247777380Y-99530711D01*
X247777380Y-99530711D02*
X247872618Y-99625950D01*
X247872618Y-99625950D02*
X248015475Y-99673569D01*
X248015475Y-99673569D02*
X248110713Y-99673569D01*
X246777380Y-99673569D02*
X247253570Y-99673569D01*
X247253570Y-99673569D02*
X247253570Y-98673569D01*
X245872618Y-99578330D02*
X245920237Y-99625950D01*
X245920237Y-99625950D02*
X246063094Y-99673569D01*
X246063094Y-99673569D02*
X246158332Y-99673569D01*
X246158332Y-99673569D02*
X246301189Y-99625950D01*
X246301189Y-99625950D02*
X246396427Y-99530711D01*
X246396427Y-99530711D02*
X246444046Y-99435473D01*
X246444046Y-99435473D02*
X246491665Y-99244997D01*
X246491665Y-99244997D02*
X246491665Y-99102140D01*
X246491665Y-99102140D02*
X246444046Y-98911664D01*
X246444046Y-98911664D02*
X246396427Y-98816426D01*
X246396427Y-98816426D02*
X246301189Y-98721188D01*
X246301189Y-98721188D02*
X246158332Y-98673569D01*
X246158332Y-98673569D02*
X246063094Y-98673569D01*
X246063094Y-98673569D02*
X245920237Y-98721188D01*
X245920237Y-98721188D02*
X245872618Y-98768807D01*
M02*
