%TF.GenerationSoftware,KiCad,Pcbnew,(7.0.0)*%
%TF.CreationDate,2024-03-29T19:16:45+01:00*%
%TF.ProjectId,plate split 2u,706c6174-6520-4737-906c-69742032752e,rev?*%
%TF.SameCoordinates,Original*%
%TF.FileFunction,Legend,Bot*%
%TF.FilePolarity,Positive*%
%FSLAX46Y46*%
G04 Gerber Fmt 4.6, Leading zero omitted, Abs format (unit mm)*
G04 Created by KiCad (PCBNEW (7.0.0)) date 2024-03-29 19:16:45*
%MOMM*%
%LPD*%
G01*
G04 APERTURE LIST*
%ADD10C,0.150000*%
G04 APERTURE END LIST*
D10*
X255444048Y-98586130D02*
X255444048Y-99300416D01*
X255444048Y-99300416D02*
X255491667Y-99443273D01*
X255491667Y-99443273D02*
X255586905Y-99538511D01*
X255586905Y-99538511D02*
X255729762Y-99586130D01*
X255729762Y-99586130D02*
X255825000Y-99586130D01*
X254491667Y-99586130D02*
X254967857Y-99586130D01*
X254967857Y-99586130D02*
X254967857Y-98586130D01*
X253586905Y-99490892D02*
X253634524Y-99538511D01*
X253634524Y-99538511D02*
X253777381Y-99586130D01*
X253777381Y-99586130D02*
X253872619Y-99586130D01*
X253872619Y-99586130D02*
X254015476Y-99538511D01*
X254015476Y-99538511D02*
X254110714Y-99443273D01*
X254110714Y-99443273D02*
X254158333Y-99348035D01*
X254158333Y-99348035D02*
X254205952Y-99157559D01*
X254205952Y-99157559D02*
X254205952Y-99014702D01*
X254205952Y-99014702D02*
X254158333Y-98824226D01*
X254158333Y-98824226D02*
X254110714Y-98728988D01*
X254110714Y-98728988D02*
X254015476Y-98633750D01*
X254015476Y-98633750D02*
X253872619Y-98586130D01*
X253872619Y-98586130D02*
X253777381Y-98586130D01*
X253777381Y-98586130D02*
X253634524Y-98633750D01*
X253634524Y-98633750D02*
X253586905Y-98681369D01*
X252872619Y-98586130D02*
X252872619Y-99300416D01*
X252872619Y-99300416D02*
X252920238Y-99443273D01*
X252920238Y-99443273D02*
X253015476Y-99538511D01*
X253015476Y-99538511D02*
X253158333Y-99586130D01*
X253158333Y-99586130D02*
X253253571Y-99586130D01*
X251920238Y-99586130D02*
X252396428Y-99586130D01*
X252396428Y-99586130D02*
X252396428Y-98586130D01*
X251015476Y-99490892D02*
X251063095Y-99538511D01*
X251063095Y-99538511D02*
X251205952Y-99586130D01*
X251205952Y-99586130D02*
X251301190Y-99586130D01*
X251301190Y-99586130D02*
X251444047Y-99538511D01*
X251444047Y-99538511D02*
X251539285Y-99443273D01*
X251539285Y-99443273D02*
X251586904Y-99348035D01*
X251586904Y-99348035D02*
X251634523Y-99157559D01*
X251634523Y-99157559D02*
X251634523Y-99014702D01*
X251634523Y-99014702D02*
X251586904Y-98824226D01*
X251586904Y-98824226D02*
X251539285Y-98728988D01*
X251539285Y-98728988D02*
X251444047Y-98633750D01*
X251444047Y-98633750D02*
X251301190Y-98586130D01*
X251301190Y-98586130D02*
X251205952Y-98586130D01*
X251205952Y-98586130D02*
X251063095Y-98633750D01*
X251063095Y-98633750D02*
X251015476Y-98681369D01*
X250301190Y-98586130D02*
X250301190Y-99300416D01*
X250301190Y-99300416D02*
X250348809Y-99443273D01*
X250348809Y-99443273D02*
X250444047Y-99538511D01*
X250444047Y-99538511D02*
X250586904Y-99586130D01*
X250586904Y-99586130D02*
X250682142Y-99586130D01*
X249348809Y-99586130D02*
X249824999Y-99586130D01*
X249824999Y-99586130D02*
X249824999Y-98586130D01*
X248444047Y-99490892D02*
X248491666Y-99538511D01*
X248491666Y-99538511D02*
X248634523Y-99586130D01*
X248634523Y-99586130D02*
X248729761Y-99586130D01*
X248729761Y-99586130D02*
X248872618Y-99538511D01*
X248872618Y-99538511D02*
X248967856Y-99443273D01*
X248967856Y-99443273D02*
X249015475Y-99348035D01*
X249015475Y-99348035D02*
X249063094Y-99157559D01*
X249063094Y-99157559D02*
X249063094Y-99014702D01*
X249063094Y-99014702D02*
X249015475Y-98824226D01*
X249015475Y-98824226D02*
X248967856Y-98728988D01*
X248967856Y-98728988D02*
X248872618Y-98633750D01*
X248872618Y-98633750D02*
X248729761Y-98586130D01*
X248729761Y-98586130D02*
X248634523Y-98586130D01*
X248634523Y-98586130D02*
X248491666Y-98633750D01*
X248491666Y-98633750D02*
X248444047Y-98681369D01*
X247729761Y-98586130D02*
X247729761Y-99300416D01*
X247729761Y-99300416D02*
X247777380Y-99443273D01*
X247777380Y-99443273D02*
X247872618Y-99538511D01*
X247872618Y-99538511D02*
X248015475Y-99586130D01*
X248015475Y-99586130D02*
X248110713Y-99586130D01*
X246777380Y-99586130D02*
X247253570Y-99586130D01*
X247253570Y-99586130D02*
X247253570Y-98586130D01*
X245872618Y-99490892D02*
X245920237Y-99538511D01*
X245920237Y-99538511D02*
X246063094Y-99586130D01*
X246063094Y-99586130D02*
X246158332Y-99586130D01*
X246158332Y-99586130D02*
X246301189Y-99538511D01*
X246301189Y-99538511D02*
X246396427Y-99443273D01*
X246396427Y-99443273D02*
X246444046Y-99348035D01*
X246444046Y-99348035D02*
X246491665Y-99157559D01*
X246491665Y-99157559D02*
X246491665Y-99014702D01*
X246491665Y-99014702D02*
X246444046Y-98824226D01*
X246444046Y-98824226D02*
X246396427Y-98728988D01*
X246396427Y-98728988D02*
X246301189Y-98633750D01*
X246301189Y-98633750D02*
X246158332Y-98586130D01*
X246158332Y-98586130D02*
X246063094Y-98586130D01*
X246063094Y-98586130D02*
X245920237Y-98633750D01*
X245920237Y-98633750D02*
X245872618Y-98681369D01*
M02*
