%TF.GenerationSoftware,KiCad,Pcbnew,8.0.8*%
%TF.CreationDate,2025-02-20T20:11:23+01:00*%
%TF.ProjectId,plate split 2u OEM,706c6174-6520-4737-906c-697420327520,rev?*%
%TF.SameCoordinates,Original*%
%TF.FileFunction,Copper,L1,Top*%
%TF.FilePolarity,Positive*%
%FSLAX46Y46*%
G04 Gerber Fmt 4.6, Leading zero omitted, Abs format (unit mm)*
G04 Created by KiCad (PCBNEW 8.0.8) date 2025-02-20 20:11:23*
%MOMM*%
%LPD*%
G01*
G04 APERTURE LIST*
%TA.AperFunction,ComponentPad*%
%ADD10C,5.400000*%
%TD*%
G04 APERTURE END LIST*
D10*
%TO.P,,1*%
%TO.N,N/C*%
X283731249Y-80168749D03*
%TD*%
%TO.P,,1*%
%TO.N,N/C*%
X84137499Y-38893750D03*
%TD*%
%TO.P,,1*%
%TO.N,N/C*%
X217487500Y-38893751D03*
%TD*%
%TO.P,,1*%
%TO.N,N/C*%
X84137499Y-121443750D03*
%TD*%
%TO.P,,1*%
%TO.N,N/C*%
X13131250Y-80168750D03*
%TD*%
%TO.P,,1*%
%TO.N,N/C*%
X217487500Y-121443750D03*
%TD*%
%TA.AperFunction,Conductor*%
%TO.N,GND*%
G36*
X218846131Y-35725690D02*
G01*
X219275609Y-35825577D01*
X219284688Y-35828057D01*
X219770024Y-35980683D01*
X219778889Y-35983847D01*
X220251200Y-36172963D01*
X220259801Y-36176792D01*
X220716356Y-36401304D01*
X220724648Y-36405782D01*
X221162783Y-36664376D01*
X221170704Y-36669468D01*
X221494008Y-36895128D01*
X221587890Y-36960656D01*
X221595421Y-36966351D01*
X221989229Y-37288432D01*
X221996306Y-37294685D01*
X222364455Y-37645793D01*
X222371035Y-37652565D01*
X222711404Y-38030678D01*
X222717450Y-38037932D01*
X223028060Y-38440850D01*
X223033536Y-38448543D01*
X223312572Y-38873911D01*
X223317447Y-38881998D01*
X223563323Y-39327399D01*
X223567569Y-39335834D01*
X223778827Y-39798632D01*
X223782418Y-39807365D01*
X223957844Y-40284891D01*
X223960761Y-40293872D01*
X224099347Y-40783388D01*
X224101571Y-40792565D01*
X224202499Y-41291184D01*
X224204019Y-41300504D01*
X224266786Y-41805956D01*
X224267531Y-41814200D01*
X224279168Y-42018921D01*
X224282000Y-42068750D01*
X258848792Y-42068750D01*
X258851223Y-42068774D01*
X258853283Y-42068814D01*
X258959345Y-42070894D01*
X258976297Y-42072396D01*
X259191082Y-42106414D01*
X259209986Y-42110952D01*
X259415639Y-42177771D01*
X259433614Y-42185217D01*
X259533305Y-42236011D01*
X259626277Y-42283381D01*
X259642865Y-42293546D01*
X259817795Y-42420637D01*
X259832591Y-42433273D01*
X259985492Y-42586168D01*
X259998129Y-42600964D01*
X260125227Y-42775893D01*
X260135393Y-42792482D01*
X260233562Y-42985137D01*
X260241009Y-43003114D01*
X260307831Y-43208754D01*
X260312374Y-43227673D01*
X260346394Y-43442423D01*
X260347898Y-43459441D01*
X260349878Y-43562438D01*
X260349976Y-43567527D01*
X260349977Y-43567552D01*
X260350000Y-43569936D01*
X260350000Y-78668753D01*
X260352316Y-78786616D01*
X260352316Y-78786623D01*
X260389199Y-79019450D01*
X260418634Y-79110031D01*
X260462053Y-79243647D01*
X260569079Y-79453687D01*
X260707646Y-79644399D01*
X260874339Y-79811087D01*
X261065055Y-79949647D01*
X261275099Y-80056667D01*
X261275101Y-80056667D01*
X261275104Y-80056669D01*
X261275103Y-80056669D01*
X261499290Y-80129510D01*
X261499295Y-80129511D01*
X261499298Y-80129512D01*
X261732132Y-80166388D01*
X261791066Y-80167569D01*
X261849994Y-80168750D01*
X277900000Y-80168750D01*
X277900009Y-80168750D01*
X277900060Y-80168749D01*
X280525706Y-80168749D01*
X280545861Y-80527651D01*
X280545863Y-80527663D01*
X280606075Y-80882045D01*
X280606077Y-80882054D01*
X280705588Y-81227467D01*
X280705588Y-81227469D01*
X280705590Y-81227473D01*
X280807223Y-81472835D01*
X280843154Y-81559580D01*
X281017038Y-81874202D01*
X281225055Y-82167372D01*
X281464588Y-82435410D01*
X281732626Y-82674943D01*
X282025797Y-82882960D01*
X282340416Y-83056843D01*
X282672525Y-83194408D01*
X283017949Y-83293922D01*
X283372342Y-83354136D01*
X283731249Y-83374292D01*
X284090156Y-83354136D01*
X284444549Y-83293922D01*
X284789973Y-83194408D01*
X285122082Y-83056843D01*
X285436701Y-82882960D01*
X285729872Y-82674943D01*
X285997910Y-82435410D01*
X286237443Y-82167372D01*
X286445460Y-81874201D01*
X286619343Y-81559582D01*
X286756908Y-81227473D01*
X286856422Y-80882049D01*
X286916636Y-80527656D01*
X286936792Y-80168749D01*
X286916636Y-79809842D01*
X286856422Y-79455449D01*
X286756908Y-79110025D01*
X286619343Y-78777916D01*
X286445460Y-78463297D01*
X286237443Y-78170126D01*
X285997910Y-77902088D01*
X285729872Y-77662555D01*
X285703369Y-77643750D01*
X285436703Y-77454539D01*
X285122080Y-77280654D01*
X285035335Y-77244723D01*
X284789973Y-77143090D01*
X284789969Y-77143088D01*
X284789967Y-77143088D01*
X284444554Y-77043577D01*
X284444545Y-77043575D01*
X284090163Y-76983363D01*
X284090151Y-76983361D01*
X283731249Y-76963206D01*
X283372346Y-76983361D01*
X283372334Y-76983363D01*
X283017952Y-77043575D01*
X283017943Y-77043577D01*
X282672530Y-77143088D01*
X282340417Y-77280654D01*
X282025794Y-77454539D01*
X281732626Y-77662554D01*
X281464588Y-77902088D01*
X281225054Y-78170126D01*
X281017039Y-78463294D01*
X280843154Y-78777917D01*
X280705588Y-79110030D01*
X280606077Y-79455443D01*
X280606075Y-79455452D01*
X280545863Y-79809834D01*
X280545861Y-79809846D01*
X280525706Y-80168749D01*
X277900060Y-80168749D01*
X277981603Y-80167149D01*
X278017872Y-80166438D01*
X278250714Y-80129560D01*
X278250719Y-80129558D01*
X278250721Y-80129558D01*
X278474915Y-80056715D01*
X278474917Y-80056713D01*
X278474920Y-80056713D01*
X278684971Y-79949689D01*
X278875693Y-79811125D01*
X279042392Y-79644432D01*
X279180963Y-79453713D01*
X279180976Y-79453689D01*
X279287988Y-79243678D01*
X279287988Y-79243677D01*
X279287994Y-79243666D01*
X279360848Y-79019462D01*
X279397734Y-78786622D01*
X279399871Y-78675471D01*
X279400000Y-78668755D01*
X279400000Y-72866014D01*
X279400024Y-72863593D01*
X279401588Y-72783518D01*
X279402249Y-72749696D01*
X279403915Y-72731720D01*
X279441636Y-72505813D01*
X279446669Y-72485955D01*
X279520683Y-72270507D01*
X279528912Y-72251762D01*
X279637403Y-72051446D01*
X279648607Y-72034310D01*
X279788613Y-71854593D01*
X279802489Y-71839536D01*
X279970174Y-71685342D01*
X279986343Y-71672773D01*
X280177138Y-71548303D01*
X280195158Y-71538567D01*
X280403847Y-71447221D01*
X280423227Y-71440586D01*
X280644109Y-71384862D01*
X280664312Y-71381510D01*
X280891363Y-71362927D01*
X280911840Y-71362948D01*
X281140059Y-71382117D01*
X281157909Y-71384940D01*
X281268399Y-71410795D01*
X281271645Y-71411602D01*
X281556454Y-71486581D01*
X281563333Y-71488607D01*
X282037795Y-71643521D01*
X282125968Y-71672310D01*
X282133697Y-71675121D01*
X282682393Y-71895507D01*
X282689918Y-71898822D01*
X282988489Y-72042412D01*
X283222846Y-72155120D01*
X283230134Y-72158928D01*
X283744872Y-72449975D01*
X283751871Y-72454244D01*
X284186023Y-72739276D01*
X284246193Y-72778779D01*
X284252911Y-72783515D01*
X284665687Y-73095546D01*
X284724636Y-73140107D01*
X284731024Y-73145278D01*
X285178068Y-73532354D01*
X285184097Y-73537934D01*
X285604488Y-73953783D01*
X285610140Y-73959757D01*
X286002057Y-74402578D01*
X286007300Y-74408915D01*
X286368979Y-74876716D01*
X286373791Y-74883386D01*
X286703664Y-75374134D01*
X286708024Y-75381108D01*
X287004655Y-75892670D01*
X287008542Y-75899918D01*
X287270598Y-76429998D01*
X287273996Y-76437487D01*
X287500336Y-76983771D01*
X287503231Y-76991470D01*
X287692862Y-77551563D01*
X287695240Y-77559436D01*
X287847330Y-78130883D01*
X287849180Y-78138897D01*
X287963048Y-78719147D01*
X287964363Y-78727265D01*
X288039515Y-79313780D01*
X288040290Y-79321968D01*
X288076399Y-79912212D01*
X288076628Y-79920434D01*
X288073530Y-80511742D01*
X288073214Y-80519960D01*
X288030926Y-81109753D01*
X288030067Y-81117933D01*
X287948767Y-81703669D01*
X287947366Y-81711773D01*
X287827426Y-82290787D01*
X287825492Y-82298781D01*
X287667427Y-82868593D01*
X287664967Y-82876441D01*
X287469475Y-83434523D01*
X287466500Y-83442190D01*
X287234448Y-83986077D01*
X287230971Y-83993531D01*
X286963374Y-84520835D01*
X286959411Y-84528042D01*
X286657444Y-85036455D01*
X286653012Y-85043383D01*
X286318005Y-85530663D01*
X286313123Y-85537282D01*
X285946562Y-86001267D01*
X285941253Y-86007548D01*
X285544721Y-86446235D01*
X285539006Y-86452150D01*
X285114280Y-86863572D01*
X285108186Y-86869095D01*
X284657133Y-87251446D01*
X284650687Y-87256554D01*
X284175239Y-87608194D01*
X284168467Y-87612862D01*
X283670803Y-87932178D01*
X283663738Y-87936388D01*
X283145971Y-88222030D01*
X283138642Y-88225762D01*
X282603069Y-88476456D01*
X282595508Y-88479693D01*
X282044534Y-88694318D01*
X282036776Y-88697048D01*
X281472753Y-88874687D01*
X281464831Y-88876896D01*
X280890281Y-89016752D01*
X280882229Y-89018431D01*
X280299682Y-89119891D01*
X280291537Y-89121033D01*
X279703032Y-89183706D01*
X279695842Y-89184261D01*
X279400000Y-89198450D01*
X279400000Y-116767535D01*
X279399976Y-116769972D01*
X279397851Y-116878083D01*
X279396348Y-116895047D01*
X279362327Y-117109811D01*
X279357784Y-117128732D01*
X279290962Y-117334366D01*
X279283516Y-117352341D01*
X279185350Y-117544993D01*
X279175183Y-117561583D01*
X279048092Y-117736501D01*
X279035455Y-117751297D01*
X278882559Y-117904188D01*
X278867763Y-117916824D01*
X278692839Y-118043911D01*
X278676248Y-118054078D01*
X278483594Y-118152237D01*
X278465618Y-118159682D01*
X278259982Y-118226496D01*
X278241062Y-118231038D01*
X278026275Y-118265056D01*
X278009363Y-118266558D01*
X277908045Y-118268588D01*
X277901246Y-118268725D01*
X277898764Y-118268750D01*
X224282000Y-118268750D01*
X224267531Y-118523299D01*
X224266786Y-118531543D01*
X224204019Y-119036995D01*
X224202499Y-119046315D01*
X224101571Y-119544934D01*
X224099347Y-119554111D01*
X223960761Y-120043627D01*
X223957844Y-120052608D01*
X223782418Y-120530134D01*
X223778827Y-120538867D01*
X223567569Y-121001665D01*
X223563323Y-121010100D01*
X223317447Y-121455501D01*
X223312572Y-121463588D01*
X223033536Y-121888956D01*
X223028060Y-121896649D01*
X222717450Y-122299567D01*
X222711404Y-122306821D01*
X222371035Y-122684934D01*
X222364455Y-122691706D01*
X221996306Y-123042814D01*
X221989229Y-123049067D01*
X221595421Y-123371148D01*
X221587890Y-123376843D01*
X221170715Y-123668024D01*
X221162771Y-123673130D01*
X220724656Y-123931713D01*
X220716347Y-123936200D01*
X220259813Y-124160701D01*
X220251187Y-124164542D01*
X219778903Y-124353647D01*
X219770009Y-124356821D01*
X219284703Y-124509438D01*
X219275594Y-124511926D01*
X218846144Y-124611806D01*
X218776388Y-124607819D01*
X218719861Y-124566753D01*
X218694509Y-124501645D01*
X218708382Y-124433166D01*
X218757075Y-124383059D01*
X218770602Y-124376468D01*
X218878326Y-124331847D01*
X218878327Y-124331846D01*
X218878333Y-124331844D01*
X219192952Y-124157961D01*
X219486123Y-123949944D01*
X219754161Y-123710411D01*
X219993694Y-123442373D01*
X220201711Y-123149202D01*
X220375594Y-122834583D01*
X220513159Y-122502474D01*
X220612673Y-122157050D01*
X220672887Y-121802657D01*
X220693043Y-121443750D01*
X220672887Y-121084843D01*
X220612673Y-120730450D01*
X220513159Y-120385026D01*
X220375594Y-120052917D01*
X220201711Y-119738298D01*
X219993694Y-119445127D01*
X219754161Y-119177089D01*
X219486123Y-118937556D01*
X219486122Y-118937555D01*
X219192954Y-118729540D01*
X218878331Y-118555655D01*
X218791586Y-118519724D01*
X218546224Y-118418091D01*
X218546220Y-118418089D01*
X218546218Y-118418089D01*
X218200805Y-118318578D01*
X218200796Y-118318576D01*
X217846414Y-118258364D01*
X217846402Y-118258362D01*
X217487500Y-118238207D01*
X217128597Y-118258362D01*
X217128585Y-118258364D01*
X216774203Y-118318576D01*
X216774194Y-118318578D01*
X216428781Y-118418089D01*
X216096668Y-118555655D01*
X215782045Y-118729540D01*
X215488877Y-118937555D01*
X215220839Y-119177089D01*
X214981305Y-119445127D01*
X214773290Y-119738295D01*
X214599405Y-120052918D01*
X214461839Y-120385031D01*
X214362328Y-120730444D01*
X214362326Y-120730453D01*
X214302114Y-121084835D01*
X214302112Y-121084847D01*
X214281957Y-121443750D01*
X214302112Y-121802652D01*
X214302114Y-121802664D01*
X214362326Y-122157046D01*
X214362328Y-122157055D01*
X214461839Y-122502468D01*
X214599405Y-122834581D01*
X214773290Y-123149204D01*
X214981305Y-123442372D01*
X214981306Y-123442373D01*
X215220839Y-123710411D01*
X215488877Y-123949944D01*
X215782048Y-124157961D01*
X216096667Y-124331844D01*
X216192548Y-124371559D01*
X216204398Y-124376468D01*
X216258801Y-124420309D01*
X216280866Y-124486603D01*
X216263587Y-124554303D01*
X216212449Y-124601913D01*
X216143690Y-124614319D01*
X216128855Y-124611806D01*
X215699405Y-124511926D01*
X215690296Y-124509438D01*
X215204990Y-124356821D01*
X215196096Y-124353647D01*
X214723812Y-124164542D01*
X214715186Y-124160701D01*
X214258652Y-123936200D01*
X214250343Y-123931713D01*
X214179693Y-123890014D01*
X213812223Y-123673127D01*
X213804284Y-123668024D01*
X213387109Y-123376843D01*
X213379578Y-123371148D01*
X212985770Y-123049067D01*
X212978693Y-123042814D01*
X212610544Y-122691706D01*
X212603964Y-122684934D01*
X212263595Y-122306821D01*
X212257549Y-122299567D01*
X211946939Y-121896649D01*
X211941463Y-121888956D01*
X211662427Y-121463588D01*
X211657552Y-121455501D01*
X211411676Y-121010100D01*
X211407430Y-121001665D01*
X211196166Y-120538854D01*
X211192586Y-120530148D01*
X211017153Y-120052603D01*
X211014238Y-120043627D01*
X210927796Y-119738295D01*
X210875648Y-119554096D01*
X210873431Y-119544949D01*
X210772499Y-119046309D01*
X210770980Y-119036995D01*
X210758632Y-118937555D01*
X210708211Y-118531524D01*
X210707469Y-118523316D01*
X210693000Y-118268750D01*
X90932000Y-118268750D01*
X90917531Y-118523299D01*
X90916786Y-118531543D01*
X90854019Y-119036995D01*
X90852499Y-119046315D01*
X90751571Y-119544934D01*
X90749347Y-119554111D01*
X90610761Y-120043627D01*
X90607844Y-120052608D01*
X90432418Y-120530134D01*
X90428827Y-120538867D01*
X90217569Y-121001665D01*
X90213323Y-121010100D01*
X89967447Y-121455501D01*
X89962572Y-121463588D01*
X89683536Y-121888956D01*
X89678060Y-121896649D01*
X89367450Y-122299567D01*
X89361404Y-122306821D01*
X89021035Y-122684934D01*
X89014455Y-122691706D01*
X88646306Y-123042814D01*
X88639229Y-123049067D01*
X88245421Y-123371148D01*
X88237890Y-123376843D01*
X87820715Y-123668024D01*
X87812771Y-123673130D01*
X87374656Y-123931713D01*
X87366347Y-123936200D01*
X86909813Y-124160701D01*
X86901187Y-124164542D01*
X86428903Y-124353647D01*
X86420009Y-124356821D01*
X85934703Y-124509438D01*
X85925594Y-124511926D01*
X85496142Y-124611806D01*
X85426386Y-124607819D01*
X85369859Y-124566753D01*
X85344507Y-124501644D01*
X85358380Y-124433166D01*
X85407073Y-124383059D01*
X85420595Y-124376470D01*
X85528332Y-124331844D01*
X85842951Y-124157961D01*
X86136122Y-123949944D01*
X86404160Y-123710411D01*
X86643693Y-123442373D01*
X86851710Y-123149202D01*
X87025593Y-122834583D01*
X87163158Y-122502474D01*
X87262672Y-122157050D01*
X87322886Y-121802657D01*
X87343042Y-121443750D01*
X87322886Y-121084843D01*
X87262672Y-120730450D01*
X87163158Y-120385026D01*
X87025593Y-120052917D01*
X86851710Y-119738298D01*
X86643693Y-119445127D01*
X86404160Y-119177089D01*
X86136122Y-118937556D01*
X86136121Y-118937555D01*
X85842953Y-118729540D01*
X85528330Y-118555655D01*
X85441585Y-118519724D01*
X85196223Y-118418091D01*
X85196219Y-118418089D01*
X85196217Y-118418089D01*
X84850804Y-118318578D01*
X84850795Y-118318576D01*
X84496413Y-118258364D01*
X84496401Y-118258362D01*
X84137499Y-118238207D01*
X83778596Y-118258362D01*
X83778584Y-118258364D01*
X83424202Y-118318576D01*
X83424193Y-118318578D01*
X83078780Y-118418089D01*
X82746667Y-118555655D01*
X82432044Y-118729540D01*
X82138876Y-118937555D01*
X81870838Y-119177089D01*
X81631304Y-119445127D01*
X81423289Y-119738295D01*
X81249404Y-120052918D01*
X81111838Y-120385031D01*
X81012327Y-120730444D01*
X81012325Y-120730453D01*
X80952113Y-121084835D01*
X80952111Y-121084847D01*
X80931956Y-121443750D01*
X80952111Y-121802652D01*
X80952113Y-121802664D01*
X81012325Y-122157046D01*
X81012327Y-122157055D01*
X81111838Y-122502468D01*
X81249404Y-122834581D01*
X81423289Y-123149204D01*
X81631304Y-123442372D01*
X81631305Y-123442373D01*
X81870838Y-123710411D01*
X82138876Y-123949944D01*
X82432047Y-124157961D01*
X82746666Y-124331844D01*
X82746668Y-124331845D01*
X82746672Y-124331847D01*
X82854395Y-124376467D01*
X82908799Y-124420308D01*
X82930864Y-124486602D01*
X82913585Y-124554301D01*
X82862448Y-124601912D01*
X82793688Y-124614318D01*
X82778853Y-124611805D01*
X82349405Y-124511926D01*
X82340296Y-124509438D01*
X81854990Y-124356821D01*
X81846096Y-124353647D01*
X81373812Y-124164542D01*
X81365186Y-124160701D01*
X80908652Y-123936200D01*
X80900343Y-123931713D01*
X80829693Y-123890014D01*
X80462223Y-123673127D01*
X80454284Y-123668024D01*
X80037109Y-123376843D01*
X80029578Y-123371148D01*
X79635770Y-123049067D01*
X79628693Y-123042814D01*
X79260544Y-122691706D01*
X79253964Y-122684934D01*
X78913595Y-122306821D01*
X78907549Y-122299567D01*
X78596939Y-121896649D01*
X78591463Y-121888956D01*
X78312427Y-121463588D01*
X78307552Y-121455501D01*
X78061676Y-121010100D01*
X78057430Y-121001665D01*
X77846166Y-120538854D01*
X77842586Y-120530148D01*
X77667153Y-120052603D01*
X77664238Y-120043627D01*
X77577796Y-119738295D01*
X77525648Y-119554096D01*
X77523431Y-119544949D01*
X77422499Y-119046309D01*
X77420980Y-119036995D01*
X77408632Y-118937555D01*
X77358211Y-118531524D01*
X77357469Y-118523316D01*
X77343000Y-118268750D01*
X18963708Y-118268750D01*
X18961276Y-118268726D01*
X18853161Y-118266605D01*
X18836195Y-118265102D01*
X18621423Y-118231086D01*
X18602503Y-118226544D01*
X18602355Y-118226496D01*
X18555232Y-118211185D01*
X18396861Y-118159728D01*
X18378885Y-118152282D01*
X18186224Y-118054119D01*
X18169634Y-118043953D01*
X17994704Y-117916862D01*
X17979908Y-117904226D01*
X17827007Y-117751331D01*
X17814370Y-117736535D01*
X17814345Y-117736501D01*
X17687272Y-117561606D01*
X17677106Y-117545017D01*
X17578937Y-117352362D01*
X17571490Y-117334385D01*
X17504668Y-117128745D01*
X17500125Y-117109826D01*
X17466105Y-116895076D01*
X17464601Y-116878057D01*
X17462523Y-116769946D01*
X17462500Y-116767563D01*
X17462500Y-102743749D01*
X19687500Y-102743749D01*
X19687500Y-102743750D01*
X19687500Y-114743750D01*
X20687500Y-115743750D01*
X33287500Y-115743750D01*
X34287500Y-114743750D01*
X34287500Y-108637414D01*
X35364953Y-108637414D01*
X35364953Y-108850086D01*
X35404031Y-109059137D01*
X35480856Y-109257444D01*
X35480858Y-109257450D01*
X35592808Y-109438255D01*
X35592814Y-109438264D01*
X35736090Y-109595431D01*
X35905806Y-109723594D01*
X36003389Y-109772184D01*
X36096171Y-109818385D01*
X36096175Y-109818386D01*
X36096182Y-109818390D01*
X36300735Y-109876591D01*
X36512499Y-109896214D01*
X36512500Y-109896214D01*
X36512501Y-109896214D01*
X36583088Y-109889673D01*
X36724265Y-109876591D01*
X36928818Y-109818390D01*
X37119194Y-109723594D01*
X37288910Y-109595431D01*
X37432186Y-109438264D01*
X37544143Y-109257447D01*
X37620969Y-109059137D01*
X37660047Y-108850086D01*
X37662500Y-108743750D01*
X37660047Y-108637414D01*
X37620969Y-108428363D01*
X37544143Y-108230053D01*
X37432186Y-108049236D01*
X37288910Y-107892069D01*
X37119194Y-107763906D01*
X36928828Y-107669114D01*
X36928815Y-107669109D01*
X36859317Y-107649335D01*
X36724265Y-107610909D01*
X36618382Y-107601098D01*
X36512501Y-107591287D01*
X36512499Y-107591287D01*
X36300735Y-107610909D01*
X36096184Y-107669109D01*
X36096171Y-107669114D01*
X35905805Y-107763906D01*
X35736091Y-107892068D01*
X35736090Y-107892069D01*
X35592814Y-108049236D01*
X35592812Y-108049237D01*
X35592810Y-108049241D01*
X35592808Y-108049244D01*
X35480858Y-108230049D01*
X35480857Y-108230053D01*
X35404031Y-108428363D01*
X35364953Y-108637414D01*
X34287500Y-108637414D01*
X34287500Y-102743750D01*
X34287499Y-102743749D01*
X38737500Y-102743749D01*
X38737500Y-102743750D01*
X38737500Y-114743750D01*
X39737500Y-115743750D01*
X52337500Y-115743750D01*
X53337500Y-114743750D01*
X53337500Y-102743750D01*
X53337499Y-102743749D01*
X57787500Y-102743749D01*
X57787500Y-102743750D01*
X57787500Y-114743750D01*
X58787500Y-115743750D01*
X71387500Y-115743750D01*
X72387500Y-114743750D01*
X72387500Y-108637414D01*
X73464953Y-108637414D01*
X73464953Y-108850086D01*
X73504031Y-109059137D01*
X73580856Y-109257444D01*
X73580858Y-109257450D01*
X73692808Y-109438255D01*
X73692814Y-109438264D01*
X73836090Y-109595431D01*
X74005806Y-109723594D01*
X74103389Y-109772184D01*
X74196171Y-109818385D01*
X74196175Y-109818386D01*
X74196182Y-109818390D01*
X74400735Y-109876591D01*
X74612499Y-109896214D01*
X74612500Y-109896214D01*
X74612501Y-109896214D01*
X74683088Y-109889673D01*
X74824265Y-109876591D01*
X75028818Y-109818390D01*
X75219194Y-109723594D01*
X75388910Y-109595431D01*
X75532186Y-109438264D01*
X75644143Y-109257447D01*
X75720969Y-109059137D01*
X75760047Y-108850086D01*
X75762500Y-108743750D01*
X75760047Y-108637414D01*
X75720969Y-108428363D01*
X75644143Y-108230053D01*
X75532186Y-108049236D01*
X75388910Y-107892069D01*
X75219194Y-107763906D01*
X75028828Y-107669114D01*
X75028815Y-107669109D01*
X74959317Y-107649335D01*
X74824265Y-107610909D01*
X74718382Y-107601098D01*
X74612501Y-107591287D01*
X74612499Y-107591287D01*
X74400735Y-107610909D01*
X74196184Y-107669109D01*
X74196171Y-107669114D01*
X74005805Y-107763906D01*
X73836091Y-107892068D01*
X73836090Y-107892069D01*
X73692814Y-108049236D01*
X73692812Y-108049237D01*
X73692810Y-108049241D01*
X73692808Y-108049244D01*
X73580858Y-108230049D01*
X73580857Y-108230053D01*
X73504031Y-108428363D01*
X73464953Y-108637414D01*
X72387500Y-108637414D01*
X72387500Y-102743750D01*
X72387499Y-102743749D01*
X79218750Y-102743749D01*
X79218750Y-102743750D01*
X79218750Y-114743750D01*
X80218750Y-115743750D01*
X92818750Y-115743750D01*
X93818750Y-114743750D01*
X93818750Y-108637414D01*
X94896203Y-108637414D01*
X94896203Y-108850086D01*
X94935281Y-109059137D01*
X95012106Y-109257444D01*
X95012108Y-109257450D01*
X95124058Y-109438255D01*
X95124064Y-109438264D01*
X95267340Y-109595431D01*
X95437056Y-109723594D01*
X95534639Y-109772184D01*
X95627421Y-109818385D01*
X95627425Y-109818386D01*
X95627432Y-109818390D01*
X95831985Y-109876591D01*
X96043749Y-109896214D01*
X96043750Y-109896214D01*
X96043751Y-109896214D01*
X96114338Y-109889673D01*
X96255515Y-109876591D01*
X96460068Y-109818390D01*
X96650444Y-109723594D01*
X96820160Y-109595431D01*
X96963436Y-109438264D01*
X97075393Y-109257447D01*
X97152219Y-109059137D01*
X97191297Y-108850086D01*
X97193750Y-108743750D01*
X103856250Y-108743750D01*
X103856250Y-114243750D01*
X103856251Y-114243751D01*
X106856249Y-115743750D01*
X132856250Y-115743750D01*
X132856251Y-115743750D01*
X135856248Y-114243751D01*
X135856250Y-114243750D01*
X135856250Y-108743750D01*
X151481250Y-108743750D01*
X151481250Y-114243750D01*
X151481251Y-114243751D01*
X154481249Y-115743750D01*
X180481250Y-115743750D01*
X180481251Y-115743750D01*
X183481248Y-114243751D01*
X183481250Y-114243750D01*
X183481250Y-108743750D01*
X183481250Y-108637414D01*
X192527453Y-108637414D01*
X192527453Y-108850086D01*
X192566531Y-109059137D01*
X192643356Y-109257444D01*
X192643358Y-109257450D01*
X192755308Y-109438255D01*
X192755314Y-109438264D01*
X192898590Y-109595431D01*
X193068306Y-109723594D01*
X193165889Y-109772184D01*
X193258671Y-109818385D01*
X193258675Y-109818386D01*
X193258682Y-109818390D01*
X193463235Y-109876591D01*
X193674999Y-109896214D01*
X193675000Y-109896214D01*
X193675001Y-109896214D01*
X193745588Y-109889673D01*
X193886765Y-109876591D01*
X194091318Y-109818390D01*
X194281694Y-109723594D01*
X194451410Y-109595431D01*
X194594686Y-109438264D01*
X194706643Y-109257447D01*
X194783469Y-109059137D01*
X194822547Y-108850086D01*
X194825000Y-108743750D01*
X194822547Y-108637414D01*
X194783469Y-108428363D01*
X194706643Y-108230053D01*
X194594686Y-108049236D01*
X194451410Y-107892069D01*
X194281694Y-107763906D01*
X194091328Y-107669114D01*
X194091315Y-107669109D01*
X194021817Y-107649335D01*
X193886765Y-107610909D01*
X193780882Y-107601098D01*
X193675001Y-107591287D01*
X193674999Y-107591287D01*
X193463235Y-107610909D01*
X193258684Y-107669109D01*
X193258671Y-107669114D01*
X193068305Y-107763906D01*
X192898591Y-107892068D01*
X192898590Y-107892069D01*
X192755314Y-108049236D01*
X192755312Y-108049237D01*
X192755310Y-108049241D01*
X192755308Y-108049244D01*
X192643358Y-108230049D01*
X192643357Y-108230053D01*
X192566531Y-108428363D01*
X192527453Y-108637414D01*
X183481250Y-108637414D01*
X183481250Y-102743749D01*
X195900000Y-102743749D01*
X195900000Y-102743750D01*
X195900000Y-114743750D01*
X196900000Y-115743750D01*
X209500000Y-115743750D01*
X210500000Y-114743750D01*
X210500000Y-102743750D01*
X210499999Y-102743749D01*
X224475000Y-102743749D01*
X224475000Y-102743750D01*
X224475000Y-114743750D01*
X225475000Y-115743750D01*
X238075000Y-115743750D01*
X239075000Y-114743750D01*
X239075000Y-102743750D01*
X239074999Y-102743749D01*
X243525000Y-102743749D01*
X243525000Y-102743750D01*
X243525000Y-114743750D01*
X244525000Y-115743750D01*
X257125000Y-115743750D01*
X258125000Y-114743750D01*
X258125000Y-108637414D01*
X259202453Y-108637414D01*
X259202453Y-108850086D01*
X259241531Y-109059137D01*
X259318356Y-109257444D01*
X259318358Y-109257450D01*
X259430308Y-109438255D01*
X259430314Y-109438264D01*
X259573590Y-109595431D01*
X259743306Y-109723594D01*
X259840889Y-109772184D01*
X259933671Y-109818385D01*
X259933675Y-109818386D01*
X259933682Y-109818390D01*
X260138235Y-109876591D01*
X260349999Y-109896214D01*
X260350000Y-109896214D01*
X260350001Y-109896214D01*
X260420588Y-109889673D01*
X260561765Y-109876591D01*
X260766318Y-109818390D01*
X260956694Y-109723594D01*
X261126410Y-109595431D01*
X261269686Y-109438264D01*
X261381643Y-109257447D01*
X261458469Y-109059137D01*
X261497547Y-108850086D01*
X261500000Y-108743750D01*
X261497547Y-108637414D01*
X261458469Y-108428363D01*
X261381643Y-108230053D01*
X261269686Y-108049236D01*
X261126410Y-107892069D01*
X260956694Y-107763906D01*
X260766328Y-107669114D01*
X260766315Y-107669109D01*
X260696817Y-107649335D01*
X260561765Y-107610909D01*
X260455882Y-107601098D01*
X260350001Y-107591287D01*
X260349999Y-107591287D01*
X260138235Y-107610909D01*
X259933684Y-107669109D01*
X259933671Y-107669114D01*
X259743305Y-107763906D01*
X259573591Y-107892068D01*
X259573590Y-107892069D01*
X259430314Y-108049236D01*
X259430312Y-108049237D01*
X259430310Y-108049241D01*
X259430308Y-108049244D01*
X259318358Y-108230049D01*
X259318357Y-108230053D01*
X259241531Y-108428363D01*
X259202453Y-108637414D01*
X258125000Y-108637414D01*
X258125000Y-102743750D01*
X258124999Y-102743749D01*
X262575000Y-102743749D01*
X262575000Y-102743750D01*
X262575000Y-114743750D01*
X263575000Y-115743750D01*
X276175000Y-115743750D01*
X277175000Y-114743750D01*
X277175000Y-102743750D01*
X276175000Y-101743750D01*
X263574999Y-101743750D01*
X262575000Y-102743749D01*
X258124999Y-102743749D01*
X257125000Y-101743750D01*
X244524999Y-101743750D01*
X243525000Y-102743749D01*
X239074999Y-102743749D01*
X238075000Y-101743750D01*
X225474999Y-101743750D01*
X224475000Y-102743749D01*
X210499999Y-102743749D01*
X209500000Y-101743750D01*
X196899999Y-101743750D01*
X195900000Y-102743749D01*
X183481250Y-102743749D01*
X183481250Y-101743750D01*
X151481250Y-101743750D01*
X151481250Y-108743750D01*
X135856250Y-108743750D01*
X135856250Y-101743750D01*
X103856250Y-101743750D01*
X103856250Y-108743750D01*
X97193750Y-108743750D01*
X97191297Y-108637414D01*
X97152219Y-108428363D01*
X97075393Y-108230053D01*
X96963436Y-108049236D01*
X96820160Y-107892069D01*
X96650444Y-107763906D01*
X96460078Y-107669114D01*
X96460065Y-107669109D01*
X96390567Y-107649335D01*
X96255515Y-107610909D01*
X96149632Y-107601098D01*
X96043751Y-107591287D01*
X96043749Y-107591287D01*
X95831985Y-107610909D01*
X95627434Y-107669109D01*
X95627421Y-107669114D01*
X95437055Y-107763906D01*
X95267341Y-107892068D01*
X95267340Y-107892069D01*
X95124064Y-108049236D01*
X95124062Y-108049237D01*
X95124060Y-108049241D01*
X95124058Y-108049244D01*
X95012108Y-108230049D01*
X95012107Y-108230053D01*
X94935281Y-108428363D01*
X94896203Y-108637414D01*
X93818750Y-108637414D01*
X93818750Y-102743750D01*
X92818750Y-101743750D01*
X80218749Y-101743750D01*
X79218750Y-102743749D01*
X72387499Y-102743749D01*
X71387500Y-101743750D01*
X58787499Y-101743750D01*
X57787500Y-102743749D01*
X53337499Y-102743749D01*
X52337500Y-101743750D01*
X39737499Y-101743750D01*
X38737500Y-102743749D01*
X34287499Y-102743749D01*
X33287500Y-101743750D01*
X20687499Y-101743750D01*
X19687500Y-102743749D01*
X17462500Y-102743749D01*
X17462500Y-89198450D01*
X17462499Y-89198449D01*
X17165648Y-89184187D01*
X17158440Y-89183630D01*
X16567915Y-89120605D01*
X16559742Y-89119456D01*
X15975248Y-89017383D01*
X15967170Y-89015694D01*
X15390742Y-88874963D01*
X15382794Y-88872740D01*
X14817002Y-88693978D01*
X14809220Y-88691231D01*
X14256584Y-88475235D01*
X14249002Y-88471976D01*
X13711944Y-88219690D01*
X13704595Y-88215935D01*
X13185516Y-87928489D01*
X13178434Y-87924253D01*
X12679631Y-87602921D01*
X12672845Y-87598223D01*
X12196513Y-87244416D01*
X12190056Y-87239278D01*
X11738315Y-86854572D01*
X11732213Y-86849015D01*
X11321617Y-86449282D01*
X11307057Y-86435107D01*
X11301342Y-86429160D01*
X10922333Y-86007548D01*
X10904658Y-85987885D01*
X10899369Y-85981594D01*
X10532895Y-85514883D01*
X10528030Y-85508243D01*
X10208300Y-85039994D01*
X10193432Y-85018220D01*
X10189021Y-85011274D01*
X9887753Y-84500066D01*
X9883805Y-84492827D01*
X9632706Y-83993531D01*
X9617212Y-83962722D01*
X9613755Y-83955235D01*
X9503385Y-83693750D01*
X9503385Y-83693749D01*
X26831250Y-83693749D01*
X26831250Y-83693750D01*
X26831250Y-95693750D01*
X27831250Y-96693750D01*
X40431250Y-96693750D01*
X41431250Y-95693750D01*
X41431250Y-89587414D01*
X42508703Y-89587414D01*
X42508703Y-89800086D01*
X42547781Y-90009137D01*
X42624606Y-90207444D01*
X42624608Y-90207450D01*
X42736558Y-90388255D01*
X42736564Y-90388264D01*
X42879840Y-90545431D01*
X43049556Y-90673594D01*
X43147139Y-90722184D01*
X43239921Y-90768385D01*
X43239925Y-90768386D01*
X43239932Y-90768390D01*
X43444485Y-90826591D01*
X43656249Y-90846214D01*
X43656250Y-90846214D01*
X43656251Y-90846214D01*
X43726838Y-90839673D01*
X43868015Y-90826591D01*
X44072568Y-90768390D01*
X44262944Y-90673594D01*
X44432660Y-90545431D01*
X44575936Y-90388264D01*
X44687893Y-90207447D01*
X44764719Y-90009137D01*
X44803797Y-89800086D01*
X44806250Y-89693750D01*
X44803797Y-89587414D01*
X44764719Y-89378363D01*
X44687893Y-89180053D01*
X44651349Y-89121033D01*
X44575941Y-88999244D01*
X44575939Y-88999241D01*
X44575936Y-88999236D01*
X44432660Y-88842069D01*
X44262944Y-88713906D01*
X44229089Y-88697048D01*
X44072578Y-88619114D01*
X44072565Y-88619109D01*
X44003067Y-88599335D01*
X43868015Y-88560909D01*
X43762132Y-88551098D01*
X43656251Y-88541287D01*
X43656249Y-88541287D01*
X43444485Y-88560909D01*
X43239934Y-88619109D01*
X43239921Y-88619114D01*
X43049555Y-88713906D01*
X42879841Y-88842068D01*
X42879840Y-88842069D01*
X42736564Y-88999236D01*
X42736562Y-88999237D01*
X42736560Y-88999241D01*
X42736558Y-88999244D01*
X42624608Y-89180049D01*
X42624607Y-89180053D01*
X42547781Y-89378363D01*
X42508703Y-89587414D01*
X41431250Y-89587414D01*
X41431250Y-83693750D01*
X41431249Y-83693749D01*
X53025000Y-83693749D01*
X53025000Y-83693750D01*
X53025000Y-95693750D01*
X54025000Y-96693750D01*
X66625000Y-96693750D01*
X67625000Y-95693750D01*
X67625000Y-83693750D01*
X67624999Y-83693749D01*
X72075000Y-83693749D01*
X72075000Y-83693750D01*
X72075000Y-95693750D01*
X73075000Y-96693750D01*
X85675000Y-96693750D01*
X86675000Y-95693750D01*
X86675000Y-89587414D01*
X87752453Y-89587414D01*
X87752453Y-89800086D01*
X87791531Y-90009137D01*
X87868356Y-90207444D01*
X87868358Y-90207450D01*
X87980308Y-90388255D01*
X87980314Y-90388264D01*
X88123590Y-90545431D01*
X88293306Y-90673594D01*
X88390889Y-90722184D01*
X88483671Y-90768385D01*
X88483675Y-90768386D01*
X88483682Y-90768390D01*
X88688235Y-90826591D01*
X88899999Y-90846214D01*
X88900000Y-90846214D01*
X88900001Y-90846214D01*
X88970588Y-90839673D01*
X89111765Y-90826591D01*
X89316318Y-90768390D01*
X89506694Y-90673594D01*
X89676410Y-90545431D01*
X89819686Y-90388264D01*
X89931643Y-90207447D01*
X90008469Y-90009137D01*
X90047547Y-89800086D01*
X90050000Y-89693750D01*
X90047547Y-89587414D01*
X90008469Y-89378363D01*
X89931643Y-89180053D01*
X89895099Y-89121033D01*
X89819691Y-88999244D01*
X89819689Y-88999241D01*
X89819686Y-88999236D01*
X89676410Y-88842069D01*
X89506694Y-88713906D01*
X89472839Y-88697048D01*
X89316328Y-88619114D01*
X89316315Y-88619109D01*
X89246817Y-88599335D01*
X89111765Y-88560909D01*
X89005882Y-88551098D01*
X88900001Y-88541287D01*
X88899999Y-88541287D01*
X88688235Y-88560909D01*
X88483684Y-88619109D01*
X88483671Y-88619114D01*
X88293305Y-88713906D01*
X88123591Y-88842068D01*
X88123590Y-88842069D01*
X87980314Y-88999236D01*
X87980312Y-88999237D01*
X87980310Y-88999241D01*
X87980308Y-88999244D01*
X87868358Y-89180049D01*
X87868357Y-89180053D01*
X87791531Y-89378363D01*
X87752453Y-89587414D01*
X86675000Y-89587414D01*
X86675000Y-83693750D01*
X86674999Y-83693749D01*
X91125000Y-83693749D01*
X91125000Y-83693750D01*
X91125000Y-95693750D01*
X92125000Y-96693750D01*
X104725000Y-96693750D01*
X105725000Y-95693750D01*
X105725000Y-83693750D01*
X105724999Y-83693749D01*
X110175000Y-83693749D01*
X110175000Y-83693750D01*
X110175000Y-95693750D01*
X111175000Y-96693750D01*
X123775000Y-96693750D01*
X124775000Y-95693750D01*
X124775000Y-89587414D01*
X125852453Y-89587414D01*
X125852453Y-89800086D01*
X125891531Y-90009137D01*
X125968356Y-90207444D01*
X125968358Y-90207450D01*
X126080308Y-90388255D01*
X126080314Y-90388264D01*
X126223590Y-90545431D01*
X126393306Y-90673594D01*
X126490889Y-90722184D01*
X126583671Y-90768385D01*
X126583675Y-90768386D01*
X126583682Y-90768390D01*
X126788235Y-90826591D01*
X126999999Y-90846214D01*
X127000000Y-90846214D01*
X127000001Y-90846214D01*
X127070588Y-90839673D01*
X127211765Y-90826591D01*
X127416318Y-90768390D01*
X127606694Y-90673594D01*
X127776410Y-90545431D01*
X127919686Y-90388264D01*
X128031643Y-90207447D01*
X128108469Y-90009137D01*
X128147547Y-89800086D01*
X128150000Y-89693750D01*
X128147547Y-89587414D01*
X128108469Y-89378363D01*
X128031643Y-89180053D01*
X127995099Y-89121033D01*
X127919691Y-88999244D01*
X127919689Y-88999241D01*
X127919686Y-88999236D01*
X127776410Y-88842069D01*
X127606694Y-88713906D01*
X127572839Y-88697048D01*
X127416328Y-88619114D01*
X127416315Y-88619109D01*
X127346817Y-88599335D01*
X127211765Y-88560909D01*
X127105882Y-88551098D01*
X127000001Y-88541287D01*
X126999999Y-88541287D01*
X126788235Y-88560909D01*
X126583684Y-88619109D01*
X126583671Y-88619114D01*
X126393305Y-88713906D01*
X126223591Y-88842068D01*
X126223590Y-88842069D01*
X126080314Y-88999236D01*
X126080312Y-88999237D01*
X126080310Y-88999241D01*
X126080308Y-88999244D01*
X125968358Y-89180049D01*
X125968357Y-89180053D01*
X125891531Y-89378363D01*
X125852453Y-89587414D01*
X124775000Y-89587414D01*
X124775000Y-83693750D01*
X124774999Y-83693749D01*
X129225000Y-83693749D01*
X129225000Y-83693750D01*
X129225000Y-95693750D01*
X130225000Y-96693750D01*
X142825000Y-96693750D01*
X143825000Y-95693750D01*
X143825000Y-83693750D01*
X143824999Y-83693749D01*
X148275000Y-83693749D01*
X148275000Y-83693750D01*
X148275000Y-95693750D01*
X149275000Y-96693750D01*
X161875000Y-96693750D01*
X162875000Y-95693750D01*
X162875000Y-89587414D01*
X163952453Y-89587414D01*
X163952453Y-89800086D01*
X163991531Y-90009137D01*
X164068356Y-90207444D01*
X164068358Y-90207450D01*
X164180308Y-90388255D01*
X164180314Y-90388264D01*
X164323590Y-90545431D01*
X164493306Y-90673594D01*
X164590889Y-90722184D01*
X164683671Y-90768385D01*
X164683675Y-90768386D01*
X164683682Y-90768390D01*
X164888235Y-90826591D01*
X165099999Y-90846214D01*
X165100000Y-90846214D01*
X165100001Y-90846214D01*
X165170588Y-90839673D01*
X165311765Y-90826591D01*
X165516318Y-90768390D01*
X165706694Y-90673594D01*
X165876410Y-90545431D01*
X166019686Y-90388264D01*
X166131643Y-90207447D01*
X166208469Y-90009137D01*
X166247547Y-89800086D01*
X166250000Y-89693750D01*
X166247547Y-89587414D01*
X166208469Y-89378363D01*
X166131643Y-89180053D01*
X166095099Y-89121033D01*
X166019691Y-88999244D01*
X166019689Y-88999241D01*
X166019686Y-88999236D01*
X165876410Y-88842069D01*
X165706694Y-88713906D01*
X165672839Y-88697048D01*
X165516328Y-88619114D01*
X165516315Y-88619109D01*
X165446817Y-88599335D01*
X165311765Y-88560909D01*
X165205882Y-88551098D01*
X165100001Y-88541287D01*
X165099999Y-88541287D01*
X164888235Y-88560909D01*
X164683684Y-88619109D01*
X164683671Y-88619114D01*
X164493305Y-88713906D01*
X164323591Y-88842068D01*
X164323590Y-88842069D01*
X164180314Y-88999236D01*
X164180312Y-88999237D01*
X164180310Y-88999241D01*
X164180308Y-88999244D01*
X164068358Y-89180049D01*
X164068357Y-89180053D01*
X163991531Y-89378363D01*
X163952453Y-89587414D01*
X162875000Y-89587414D01*
X162875000Y-83693750D01*
X162874999Y-83693749D01*
X167325000Y-83693749D01*
X167325000Y-83693750D01*
X167325000Y-95693750D01*
X168325000Y-96693750D01*
X180925000Y-96693750D01*
X181925000Y-95693750D01*
X181925000Y-83693750D01*
X181924999Y-83693749D01*
X186375000Y-83693749D01*
X186375000Y-83693750D01*
X186375000Y-95693750D01*
X187375000Y-96693750D01*
X199975000Y-96693750D01*
X200975000Y-95693750D01*
X200975000Y-89587414D01*
X202052453Y-89587414D01*
X202052453Y-89800086D01*
X202091531Y-90009137D01*
X202168356Y-90207444D01*
X202168358Y-90207450D01*
X202280308Y-90388255D01*
X202280314Y-90388264D01*
X202423590Y-90545431D01*
X202593306Y-90673594D01*
X202690889Y-90722184D01*
X202783671Y-90768385D01*
X202783675Y-90768386D01*
X202783682Y-90768390D01*
X202988235Y-90826591D01*
X203199999Y-90846214D01*
X203200000Y-90846214D01*
X203200001Y-90846214D01*
X203270588Y-90839673D01*
X203411765Y-90826591D01*
X203616318Y-90768390D01*
X203806694Y-90673594D01*
X203976410Y-90545431D01*
X204119686Y-90388264D01*
X204231643Y-90207447D01*
X204308469Y-90009137D01*
X204347547Y-89800086D01*
X204350000Y-89693750D01*
X204347547Y-89587414D01*
X204308469Y-89378363D01*
X204231643Y-89180053D01*
X204195099Y-89121033D01*
X204119691Y-88999244D01*
X204119689Y-88999241D01*
X204119686Y-88999236D01*
X203976410Y-88842069D01*
X203806694Y-88713906D01*
X203772839Y-88697048D01*
X203616328Y-88619114D01*
X203616315Y-88619109D01*
X203546817Y-88599335D01*
X203411765Y-88560909D01*
X203305882Y-88551098D01*
X203200001Y-88541287D01*
X203199999Y-88541287D01*
X202988235Y-88560909D01*
X202783684Y-88619109D01*
X202783671Y-88619114D01*
X202593305Y-88713906D01*
X202423591Y-88842068D01*
X202423590Y-88842069D01*
X202280314Y-88999236D01*
X202280312Y-88999237D01*
X202280310Y-88999241D01*
X202280308Y-88999244D01*
X202168358Y-89180049D01*
X202168357Y-89180053D01*
X202091531Y-89378363D01*
X202052453Y-89587414D01*
X200975000Y-89587414D01*
X200975000Y-83693750D01*
X200974999Y-83693749D01*
X205425000Y-83693749D01*
X205425000Y-83693750D01*
X205425000Y-95693750D01*
X206425000Y-96693750D01*
X219025000Y-96693750D01*
X220025000Y-95693750D01*
X220025000Y-83693750D01*
X220024999Y-83693749D01*
X224475000Y-83693749D01*
X224475000Y-83693750D01*
X224475000Y-95693750D01*
X225475000Y-96693750D01*
X238075000Y-96693750D01*
X239075000Y-95693750D01*
X239075000Y-83693750D01*
X239074999Y-83693749D01*
X243525000Y-83693749D01*
X243525000Y-83693750D01*
X243525000Y-95693750D01*
X244525000Y-96693750D01*
X257125000Y-96693750D01*
X258125000Y-95693750D01*
X258125000Y-83693750D01*
X257625008Y-83193758D01*
X262875000Y-83193758D01*
X262875000Y-96193739D01*
X262877145Y-96259289D01*
X262877145Y-96259292D01*
X262911081Y-96385900D01*
X262911082Y-96385902D01*
X262976628Y-96499414D01*
X262976633Y-96499421D01*
X263069320Y-96592099D01*
X263069322Y-96592100D01*
X263069323Y-96592101D01*
X263182844Y-96657637D01*
X263182848Y-96657638D01*
X263182850Y-96657639D01*
X263309456Y-96691561D01*
X263309460Y-96691562D01*
X263375000Y-96693750D01*
X263375003Y-96693750D01*
X276375000Y-96693750D01*
X276375002Y-96693750D01*
X276379142Y-96693614D01*
X276440547Y-96691612D01*
X276567175Y-96657684D01*
X276680708Y-96592141D01*
X276773410Y-96499448D01*
X276838965Y-96385921D01*
X276872905Y-96259297D01*
X276875000Y-96193750D01*
X276875000Y-83193750D01*
X276872855Y-83128210D01*
X276838918Y-83001598D01*
X276773370Y-82888083D01*
X276773368Y-82888081D01*
X276773366Y-82888078D01*
X276680679Y-82795400D01*
X276660880Y-82783970D01*
X276567156Y-82729863D01*
X276567153Y-82729862D01*
X276567149Y-82729860D01*
X276440543Y-82695938D01*
X276407770Y-82694844D01*
X276375000Y-82693750D01*
X276374997Y-82693750D01*
X263374998Y-82693750D01*
X263309451Y-82695888D01*
X263182831Y-82729813D01*
X263182827Y-82729815D01*
X263182825Y-82729815D01*
X263182825Y-82729816D01*
X263182744Y-82729863D01*
X263069289Y-82795360D01*
X262976593Y-82888047D01*
X262976588Y-82888054D01*
X262911035Y-83001578D01*
X262877095Y-83128201D01*
X262875000Y-83193758D01*
X257625008Y-83193758D01*
X257125000Y-82693750D01*
X244524999Y-82693750D01*
X243525000Y-83693749D01*
X239074999Y-83693749D01*
X238075000Y-82693750D01*
X225474999Y-82693750D01*
X224475000Y-83693749D01*
X220024999Y-83693749D01*
X219025000Y-82693750D01*
X206424999Y-82693750D01*
X205425000Y-83693749D01*
X200974999Y-83693749D01*
X199975000Y-82693750D01*
X187374999Y-82693750D01*
X186375000Y-83693749D01*
X181924999Y-83693749D01*
X180925000Y-82693750D01*
X168324999Y-82693750D01*
X167325000Y-83693749D01*
X162874999Y-83693749D01*
X161875000Y-82693750D01*
X149274999Y-82693750D01*
X148275000Y-83693749D01*
X143824999Y-83693749D01*
X142825000Y-82693750D01*
X130224999Y-82693750D01*
X129225000Y-83693749D01*
X124774999Y-83693749D01*
X123775000Y-82693750D01*
X111174999Y-82693750D01*
X110175000Y-83693749D01*
X105724999Y-83693749D01*
X104725000Y-82693750D01*
X92124999Y-82693750D01*
X91125000Y-83693749D01*
X86674999Y-83693749D01*
X85675000Y-82693750D01*
X73074999Y-82693750D01*
X72075000Y-83693749D01*
X67624999Y-83693749D01*
X66625000Y-82693750D01*
X54024999Y-82693750D01*
X53025000Y-83693749D01*
X41431249Y-83693749D01*
X40431250Y-82693750D01*
X27831249Y-82693750D01*
X26831250Y-83693749D01*
X9503385Y-83693749D01*
X9383022Y-83408588D01*
X9380069Y-83400887D01*
X9363907Y-83354136D01*
X9186200Y-82840078D01*
X9183767Y-82832196D01*
X9155855Y-82729860D01*
X9027640Y-82259768D01*
X9025735Y-82251741D01*
X8949322Y-81874203D01*
X8908021Y-81670146D01*
X8906661Y-81662048D01*
X8827892Y-81073899D01*
X8827073Y-81065722D01*
X8787606Y-80473681D01*
X8787331Y-80465433D01*
X8787331Y-80168750D01*
X9925707Y-80168750D01*
X9945862Y-80527652D01*
X9945864Y-80527664D01*
X10006076Y-80882046D01*
X10006078Y-80882055D01*
X10105589Y-81227468D01*
X10243155Y-81559581D01*
X10417040Y-81874204D01*
X10625055Y-82167372D01*
X10625056Y-82167373D01*
X10864589Y-82435411D01*
X11132626Y-82674943D01*
X11132627Y-82674944D01*
X11302336Y-82795360D01*
X11425798Y-82882961D01*
X11740417Y-83056844D01*
X12072526Y-83194409D01*
X12417950Y-83293923D01*
X12772343Y-83354137D01*
X13131250Y-83374293D01*
X13490157Y-83354137D01*
X13844550Y-83293923D01*
X14189974Y-83194409D01*
X14522083Y-83056844D01*
X14836702Y-82882961D01*
X15129873Y-82674944D01*
X15397911Y-82435411D01*
X15637444Y-82167373D01*
X15845461Y-81874202D01*
X16019344Y-81559583D01*
X16156909Y-81227474D01*
X16256423Y-80882050D01*
X16316637Y-80527657D01*
X16336793Y-80168750D01*
X16316637Y-79809843D01*
X16256423Y-79455450D01*
X16156909Y-79110026D01*
X16019344Y-78777917D01*
X15845461Y-78463298D01*
X15637444Y-78170127D01*
X15397911Y-77902089D01*
X15129873Y-77662556D01*
X15129872Y-77662555D01*
X14836704Y-77454540D01*
X14522081Y-77280655D01*
X14435336Y-77244724D01*
X14189974Y-77143091D01*
X14189970Y-77143089D01*
X14189968Y-77143089D01*
X13844555Y-77043578D01*
X13844546Y-77043576D01*
X13490164Y-76983364D01*
X13490152Y-76983362D01*
X13131250Y-76963207D01*
X12772347Y-76983362D01*
X12772335Y-76983364D01*
X12417953Y-77043576D01*
X12417944Y-77043578D01*
X12072531Y-77143089D01*
X11740418Y-77280655D01*
X11425795Y-77454540D01*
X11132627Y-77662555D01*
X10864589Y-77902089D01*
X10625055Y-78170127D01*
X10417040Y-78463295D01*
X10243155Y-78777918D01*
X10105589Y-79110031D01*
X10006078Y-79455444D01*
X10006076Y-79455453D01*
X9945864Y-79809835D01*
X9945862Y-79809847D01*
X9925707Y-80168750D01*
X8787331Y-80168750D01*
X8787331Y-79872066D01*
X8787606Y-79863818D01*
X8802233Y-79644399D01*
X8827074Y-79271774D01*
X8827891Y-79263603D01*
X8906662Y-78675446D01*
X8908020Y-78667358D01*
X9025737Y-78085748D01*
X9027641Y-78077729D01*
X9075546Y-77902088D01*
X9183771Y-77505289D01*
X9186202Y-77497417D01*
X9380074Y-76936598D01*
X9383018Y-76928920D01*
X9613762Y-76382246D01*
X9617207Y-76374789D01*
X9883815Y-75844653D01*
X9887745Y-75837445D01*
X10189029Y-75326211D01*
X10193423Y-75319293D01*
X10528038Y-74829244D01*
X10532884Y-74822630D01*
X10899381Y-74355890D01*
X10904645Y-74349628D01*
X11301360Y-73908319D01*
X11307042Y-73902407D01*
X11732225Y-73488472D01*
X11738303Y-73482937D01*
X12190069Y-73098210D01*
X12196499Y-73093093D01*
X12672866Y-72739261D01*
X12679609Y-72734592D01*
X13178447Y-72413237D01*
X13185502Y-72409017D01*
X13704617Y-72121552D01*
X13711944Y-72117809D01*
X14249002Y-71865523D01*
X14256557Y-71862275D01*
X14809229Y-71646264D01*
X14816992Y-71643524D01*
X15382801Y-71464756D01*
X15390734Y-71462538D01*
X15967185Y-71321801D01*
X15975232Y-71320119D01*
X16559760Y-71218040D01*
X16567896Y-71216896D01*
X17158448Y-71153868D01*
X17165643Y-71153312D01*
X17462500Y-71139050D01*
X17462500Y-70537414D01*
X18696203Y-70537414D01*
X18696203Y-70750086D01*
X18735281Y-70959137D01*
X18810721Y-71153869D01*
X18812106Y-71157444D01*
X18812108Y-71157450D01*
X18849626Y-71218043D01*
X18924064Y-71338264D01*
X19067340Y-71495431D01*
X19237056Y-71623594D01*
X19282592Y-71646268D01*
X19427421Y-71718385D01*
X19427425Y-71718386D01*
X19427432Y-71718390D01*
X19631985Y-71776591D01*
X19843749Y-71796214D01*
X19843750Y-71796214D01*
X19843751Y-71796214D01*
X19914338Y-71789673D01*
X20055515Y-71776591D01*
X20260068Y-71718390D01*
X20450444Y-71623594D01*
X20620160Y-71495431D01*
X20763436Y-71338264D01*
X20875393Y-71157447D01*
X20952219Y-70959137D01*
X20991297Y-70750086D01*
X20993750Y-70643750D01*
X20991297Y-70537414D01*
X20952219Y-70328363D01*
X20875393Y-70130053D01*
X20763436Y-69949236D01*
X20620160Y-69792069D01*
X20450444Y-69663906D01*
X20260078Y-69569114D01*
X20260065Y-69569109D01*
X20190567Y-69549335D01*
X20055515Y-69510909D01*
X19949632Y-69501098D01*
X19843751Y-69491287D01*
X19843749Y-69491287D01*
X19631985Y-69510909D01*
X19427434Y-69569109D01*
X19427421Y-69569114D01*
X19237055Y-69663906D01*
X19067341Y-69792068D01*
X19067340Y-69792069D01*
X18924064Y-69949236D01*
X18924062Y-69949237D01*
X18924060Y-69949241D01*
X18924058Y-69949244D01*
X18812108Y-70130049D01*
X18812107Y-70130053D01*
X18735281Y-70328363D01*
X18696203Y-70537414D01*
X17462500Y-70537414D01*
X17462500Y-64643749D01*
X22068750Y-64643749D01*
X22068750Y-64643750D01*
X22068750Y-76643750D01*
X23068750Y-77643750D01*
X35668750Y-77643750D01*
X36668750Y-76643750D01*
X36668750Y-64643750D01*
X36668749Y-64643749D01*
X43500000Y-64643749D01*
X43500000Y-64643750D01*
X43500000Y-76643750D01*
X44500000Y-77643750D01*
X57100000Y-77643750D01*
X58100000Y-76643750D01*
X58100000Y-70537414D01*
X59177453Y-70537414D01*
X59177453Y-70750086D01*
X59216531Y-70959137D01*
X59291971Y-71153869D01*
X59293356Y-71157444D01*
X59293358Y-71157450D01*
X59330876Y-71218043D01*
X59405314Y-71338264D01*
X59548590Y-71495431D01*
X59718306Y-71623594D01*
X59763842Y-71646268D01*
X59908671Y-71718385D01*
X59908675Y-71718386D01*
X59908682Y-71718390D01*
X60113235Y-71776591D01*
X60324999Y-71796214D01*
X60325000Y-71796214D01*
X60325001Y-71796214D01*
X60395588Y-71789673D01*
X60536765Y-71776591D01*
X60741318Y-71718390D01*
X60931694Y-71623594D01*
X61101410Y-71495431D01*
X61244686Y-71338264D01*
X61356643Y-71157447D01*
X61433469Y-70959137D01*
X61472547Y-70750086D01*
X61475000Y-70643750D01*
X61472547Y-70537414D01*
X61433469Y-70328363D01*
X61356643Y-70130053D01*
X61244686Y-69949236D01*
X61101410Y-69792069D01*
X60931694Y-69663906D01*
X60741328Y-69569114D01*
X60741315Y-69569109D01*
X60671817Y-69549335D01*
X60536765Y-69510909D01*
X60430882Y-69501098D01*
X60325001Y-69491287D01*
X60324999Y-69491287D01*
X60113235Y-69510909D01*
X59908684Y-69569109D01*
X59908671Y-69569114D01*
X59718305Y-69663906D01*
X59548591Y-69792068D01*
X59548590Y-69792069D01*
X59405314Y-69949236D01*
X59405312Y-69949237D01*
X59405310Y-69949241D01*
X59405308Y-69949244D01*
X59293358Y-70130049D01*
X59293357Y-70130053D01*
X59216531Y-70328363D01*
X59177453Y-70537414D01*
X58100000Y-70537414D01*
X58100000Y-64643750D01*
X58099999Y-64643749D01*
X62550000Y-64643749D01*
X62550000Y-64643750D01*
X62550000Y-76643750D01*
X63550000Y-77643750D01*
X76150000Y-77643750D01*
X77150000Y-76643750D01*
X77150000Y-64643750D01*
X77149999Y-64643749D01*
X81600000Y-64643749D01*
X81600000Y-64643750D01*
X81600000Y-76643750D01*
X82600000Y-77643750D01*
X95200000Y-77643750D01*
X96200000Y-76643750D01*
X96200000Y-70537414D01*
X97277453Y-70537414D01*
X97277453Y-70750086D01*
X97316531Y-70959137D01*
X97391971Y-71153869D01*
X97393356Y-71157444D01*
X97393358Y-71157450D01*
X97430876Y-71218043D01*
X97505314Y-71338264D01*
X97648590Y-71495431D01*
X97818306Y-71623594D01*
X97863842Y-71646268D01*
X98008671Y-71718385D01*
X98008675Y-71718386D01*
X98008682Y-71718390D01*
X98213235Y-71776591D01*
X98424999Y-71796214D01*
X98425000Y-71796214D01*
X98425001Y-71796214D01*
X98495588Y-71789673D01*
X98636765Y-71776591D01*
X98841318Y-71718390D01*
X99031694Y-71623594D01*
X99201410Y-71495431D01*
X99344686Y-71338264D01*
X99456643Y-71157447D01*
X99533469Y-70959137D01*
X99572547Y-70750086D01*
X99575000Y-70643750D01*
X99572547Y-70537414D01*
X99533469Y-70328363D01*
X99456643Y-70130053D01*
X99344686Y-69949236D01*
X99201410Y-69792069D01*
X99031694Y-69663906D01*
X98841328Y-69569114D01*
X98841315Y-69569109D01*
X98771817Y-69549335D01*
X98636765Y-69510909D01*
X98530882Y-69501098D01*
X98425001Y-69491287D01*
X98424999Y-69491287D01*
X98213235Y-69510909D01*
X98008684Y-69569109D01*
X98008671Y-69569114D01*
X97818305Y-69663906D01*
X97648591Y-69792068D01*
X97648590Y-69792069D01*
X97505314Y-69949236D01*
X97505312Y-69949237D01*
X97505310Y-69949241D01*
X97505308Y-69949244D01*
X97393358Y-70130049D01*
X97393357Y-70130053D01*
X97316531Y-70328363D01*
X97277453Y-70537414D01*
X96200000Y-70537414D01*
X96200000Y-64643750D01*
X96199999Y-64643749D01*
X100650000Y-64643749D01*
X100650000Y-64643750D01*
X100650000Y-76643750D01*
X101650000Y-77643750D01*
X114250000Y-77643750D01*
X115250000Y-76643750D01*
X115250000Y-64643750D01*
X115249999Y-64643749D01*
X119700000Y-64643749D01*
X119700000Y-64643750D01*
X119700000Y-76643750D01*
X120700000Y-77643750D01*
X133300000Y-77643750D01*
X134300000Y-76643750D01*
X134300000Y-70537414D01*
X135377453Y-70537414D01*
X135377453Y-70750086D01*
X135416531Y-70959137D01*
X135491971Y-71153869D01*
X135493356Y-71157444D01*
X135493358Y-71157450D01*
X135530876Y-71218043D01*
X135605314Y-71338264D01*
X135748590Y-71495431D01*
X135918306Y-71623594D01*
X135963842Y-71646268D01*
X136108671Y-71718385D01*
X136108675Y-71718386D01*
X136108682Y-71718390D01*
X136313235Y-71776591D01*
X136524999Y-71796214D01*
X136525000Y-71796214D01*
X136525001Y-71796214D01*
X136595588Y-71789673D01*
X136736765Y-71776591D01*
X136941318Y-71718390D01*
X137131694Y-71623594D01*
X137301410Y-71495431D01*
X137444686Y-71338264D01*
X137556643Y-71157447D01*
X137633469Y-70959137D01*
X137672547Y-70750086D01*
X137675000Y-70643750D01*
X137672547Y-70537414D01*
X137633469Y-70328363D01*
X137556643Y-70130053D01*
X137444686Y-69949236D01*
X137301410Y-69792069D01*
X137131694Y-69663906D01*
X136941328Y-69569114D01*
X136941315Y-69569109D01*
X136871817Y-69549335D01*
X136736765Y-69510909D01*
X136630882Y-69501098D01*
X136525001Y-69491287D01*
X136524999Y-69491287D01*
X136313235Y-69510909D01*
X136108684Y-69569109D01*
X136108671Y-69569114D01*
X135918305Y-69663906D01*
X135748591Y-69792068D01*
X135748590Y-69792069D01*
X135605314Y-69949236D01*
X135605312Y-69949237D01*
X135605310Y-69949241D01*
X135605308Y-69949244D01*
X135493358Y-70130049D01*
X135493357Y-70130053D01*
X135416531Y-70328363D01*
X135377453Y-70537414D01*
X134300000Y-70537414D01*
X134300000Y-64643750D01*
X134299999Y-64643749D01*
X138750000Y-64643749D01*
X138750000Y-64643750D01*
X138750000Y-76643750D01*
X139750000Y-77643750D01*
X152350000Y-77643750D01*
X153350000Y-76643750D01*
X153350000Y-64643750D01*
X153349999Y-64643749D01*
X157800000Y-64643749D01*
X157800000Y-64643750D01*
X157800000Y-76643750D01*
X158800000Y-77643750D01*
X171400000Y-77643750D01*
X172400000Y-76643750D01*
X172400000Y-70537414D01*
X173477453Y-70537414D01*
X173477453Y-70750086D01*
X173516531Y-70959137D01*
X173591971Y-71153869D01*
X173593356Y-71157444D01*
X173593358Y-71157450D01*
X173630876Y-71218043D01*
X173705314Y-71338264D01*
X173848590Y-71495431D01*
X174018306Y-71623594D01*
X174063842Y-71646268D01*
X174208671Y-71718385D01*
X174208675Y-71718386D01*
X174208682Y-71718390D01*
X174413235Y-71776591D01*
X174624999Y-71796214D01*
X174625000Y-71796214D01*
X174625001Y-71796214D01*
X174695588Y-71789673D01*
X174836765Y-71776591D01*
X175041318Y-71718390D01*
X175231694Y-71623594D01*
X175401410Y-71495431D01*
X175544686Y-71338264D01*
X175656643Y-71157447D01*
X175733469Y-70959137D01*
X175772547Y-70750086D01*
X175775000Y-70643750D01*
X175772547Y-70537414D01*
X175733469Y-70328363D01*
X175656643Y-70130053D01*
X175544686Y-69949236D01*
X175401410Y-69792069D01*
X175231694Y-69663906D01*
X175041328Y-69569114D01*
X175041315Y-69569109D01*
X174971817Y-69549335D01*
X174836765Y-69510909D01*
X174730882Y-69501098D01*
X174625001Y-69491287D01*
X174624999Y-69491287D01*
X174413235Y-69510909D01*
X174208684Y-69569109D01*
X174208671Y-69569114D01*
X174018305Y-69663906D01*
X173848591Y-69792068D01*
X173848590Y-69792069D01*
X173705314Y-69949236D01*
X173705312Y-69949237D01*
X173705310Y-69949241D01*
X173705308Y-69949244D01*
X173593358Y-70130049D01*
X173593357Y-70130053D01*
X173516531Y-70328363D01*
X173477453Y-70537414D01*
X172400000Y-70537414D01*
X172400000Y-64643750D01*
X172399999Y-64643749D01*
X176850000Y-64643749D01*
X176850000Y-64643750D01*
X176850000Y-76643750D01*
X177850000Y-77643750D01*
X190450000Y-77643750D01*
X191450000Y-76643750D01*
X191450000Y-64643750D01*
X191449999Y-64643749D01*
X195900000Y-64643749D01*
X195900000Y-64643750D01*
X195900000Y-76643750D01*
X196900000Y-77643750D01*
X209500000Y-77643750D01*
X210500000Y-76643750D01*
X210500000Y-70537414D01*
X211577453Y-70537414D01*
X211577453Y-70750086D01*
X211616531Y-70959137D01*
X211691971Y-71153869D01*
X211693356Y-71157444D01*
X211693358Y-71157450D01*
X211730876Y-71218043D01*
X211805314Y-71338264D01*
X211948590Y-71495431D01*
X212118306Y-71623594D01*
X212163842Y-71646268D01*
X212308671Y-71718385D01*
X212308675Y-71718386D01*
X212308682Y-71718390D01*
X212513235Y-71776591D01*
X212724999Y-71796214D01*
X212725000Y-71796214D01*
X212725001Y-71796214D01*
X212795588Y-71789673D01*
X212936765Y-71776591D01*
X213141318Y-71718390D01*
X213331694Y-71623594D01*
X213501410Y-71495431D01*
X213644686Y-71338264D01*
X213756643Y-71157447D01*
X213833469Y-70959137D01*
X213872547Y-70750086D01*
X213875000Y-70643750D01*
X213872547Y-70537414D01*
X213833469Y-70328363D01*
X213756643Y-70130053D01*
X213644686Y-69949236D01*
X213501410Y-69792069D01*
X213331694Y-69663906D01*
X213141328Y-69569114D01*
X213141315Y-69569109D01*
X213071817Y-69549335D01*
X212936765Y-69510909D01*
X212830882Y-69501098D01*
X212725001Y-69491287D01*
X212724999Y-69491287D01*
X212513235Y-69510909D01*
X212308684Y-69569109D01*
X212308671Y-69569114D01*
X212118305Y-69663906D01*
X211948591Y-69792068D01*
X211948590Y-69792069D01*
X211805314Y-69949236D01*
X211805312Y-69949237D01*
X211805310Y-69949241D01*
X211805308Y-69949244D01*
X211693358Y-70130049D01*
X211693357Y-70130053D01*
X211616531Y-70328363D01*
X211577453Y-70537414D01*
X210500000Y-70537414D01*
X210500000Y-64643750D01*
X210499999Y-64643749D01*
X214950000Y-64643749D01*
X214950000Y-64643750D01*
X214950000Y-76643750D01*
X215950000Y-77643750D01*
X228550000Y-77643750D01*
X229550000Y-76643750D01*
X229550000Y-64643750D01*
X229549999Y-64643749D01*
X238762500Y-64643749D01*
X238762500Y-64643750D01*
X238762500Y-76643750D01*
X239762500Y-77643750D01*
X252362500Y-77643750D01*
X253362500Y-76643750D01*
X253362500Y-70537414D01*
X256821203Y-70537414D01*
X256821203Y-70750086D01*
X256860281Y-70959137D01*
X256935721Y-71153869D01*
X256937106Y-71157444D01*
X256937108Y-71157450D01*
X256974626Y-71218043D01*
X257049064Y-71338264D01*
X257192340Y-71495431D01*
X257362056Y-71623594D01*
X257407592Y-71646268D01*
X257552421Y-71718385D01*
X257552425Y-71718386D01*
X257552432Y-71718390D01*
X257756985Y-71776591D01*
X257968749Y-71796214D01*
X257968750Y-71796214D01*
X257968751Y-71796214D01*
X258039338Y-71789673D01*
X258180515Y-71776591D01*
X258385068Y-71718390D01*
X258575444Y-71623594D01*
X258745160Y-71495431D01*
X258888436Y-71338264D01*
X259000393Y-71157447D01*
X259077219Y-70959137D01*
X259116297Y-70750086D01*
X259118750Y-70643750D01*
X259116297Y-70537414D01*
X259077219Y-70328363D01*
X259000393Y-70130053D01*
X258888436Y-69949236D01*
X258745160Y-69792069D01*
X258575444Y-69663906D01*
X258385078Y-69569114D01*
X258385065Y-69569109D01*
X258315567Y-69549335D01*
X258180515Y-69510909D01*
X258074632Y-69501098D01*
X257968751Y-69491287D01*
X257968749Y-69491287D01*
X257756985Y-69510909D01*
X257552434Y-69569109D01*
X257552421Y-69569114D01*
X257362055Y-69663906D01*
X257192341Y-69792068D01*
X257192340Y-69792069D01*
X257049064Y-69949236D01*
X257049062Y-69949237D01*
X257049060Y-69949241D01*
X257049058Y-69949244D01*
X256937108Y-70130049D01*
X256937107Y-70130053D01*
X256860281Y-70328363D01*
X256821203Y-70537414D01*
X253362500Y-70537414D01*
X253362500Y-64643750D01*
X252362500Y-63643750D01*
X239762499Y-63643750D01*
X238762500Y-64643749D01*
X229549999Y-64643749D01*
X228550000Y-63643750D01*
X215949999Y-63643750D01*
X214950000Y-64643749D01*
X210499999Y-64643749D01*
X209500000Y-63643750D01*
X196899999Y-63643750D01*
X195900000Y-64643749D01*
X191449999Y-64643749D01*
X190450000Y-63643750D01*
X177849999Y-63643750D01*
X176850000Y-64643749D01*
X172399999Y-64643749D01*
X171400000Y-63643750D01*
X158799999Y-63643750D01*
X157800000Y-64643749D01*
X153349999Y-64643749D01*
X152350000Y-63643750D01*
X139749999Y-63643750D01*
X138750000Y-64643749D01*
X134299999Y-64643749D01*
X133300000Y-63643750D01*
X120699999Y-63643750D01*
X119700000Y-64643749D01*
X115249999Y-64643749D01*
X114250000Y-63643750D01*
X101649999Y-63643750D01*
X100650000Y-64643749D01*
X96199999Y-64643749D01*
X95200000Y-63643750D01*
X82599999Y-63643750D01*
X81600000Y-64643749D01*
X77149999Y-64643749D01*
X76150000Y-63643750D01*
X63549999Y-63643750D01*
X62550000Y-64643749D01*
X58099999Y-64643749D01*
X57100000Y-63643750D01*
X44499999Y-63643750D01*
X43500000Y-64643749D01*
X36668749Y-64643749D01*
X35668750Y-63643750D01*
X23068749Y-63643750D01*
X22068750Y-64643749D01*
X17462500Y-64643749D01*
X17462500Y-45593749D01*
X19687500Y-45593749D01*
X19687500Y-45593750D01*
X19687500Y-57593750D01*
X20687500Y-58593750D01*
X33287500Y-58593750D01*
X34287500Y-57593750D01*
X34287500Y-51487414D01*
X35364953Y-51487414D01*
X35364953Y-51700086D01*
X35404031Y-51909137D01*
X35480856Y-52107444D01*
X35480858Y-52107450D01*
X35592808Y-52288255D01*
X35592814Y-52288264D01*
X35736090Y-52445431D01*
X35905806Y-52573594D01*
X36003389Y-52622184D01*
X36096171Y-52668385D01*
X36096175Y-52668386D01*
X36096182Y-52668390D01*
X36300735Y-52726591D01*
X36512499Y-52746214D01*
X36512500Y-52746214D01*
X36512501Y-52746214D01*
X36583088Y-52739673D01*
X36724265Y-52726591D01*
X36928818Y-52668390D01*
X37119194Y-52573594D01*
X37288910Y-52445431D01*
X37432186Y-52288264D01*
X37544143Y-52107447D01*
X37620969Y-51909137D01*
X37660047Y-51700086D01*
X37662500Y-51593750D01*
X37660047Y-51487414D01*
X37620969Y-51278363D01*
X37544143Y-51080053D01*
X37432186Y-50899236D01*
X37288910Y-50742069D01*
X37119194Y-50613906D01*
X36928828Y-50519114D01*
X36928815Y-50519109D01*
X36859317Y-50499335D01*
X36724265Y-50460909D01*
X36618382Y-50451098D01*
X36512501Y-50441287D01*
X36512499Y-50441287D01*
X36300735Y-50460909D01*
X36096184Y-50519109D01*
X36096171Y-50519114D01*
X35905805Y-50613906D01*
X35736091Y-50742068D01*
X35736090Y-50742069D01*
X35592814Y-50899236D01*
X35592812Y-50899237D01*
X35592810Y-50899241D01*
X35592808Y-50899244D01*
X35480858Y-51080049D01*
X35480857Y-51080053D01*
X35404031Y-51278363D01*
X35364953Y-51487414D01*
X34287500Y-51487414D01*
X34287500Y-45593750D01*
X34287499Y-45593749D01*
X38737500Y-45593749D01*
X38737500Y-45593750D01*
X38737500Y-57593750D01*
X39737500Y-58593750D01*
X52337500Y-58593750D01*
X53337500Y-57593750D01*
X53337500Y-45593750D01*
X53337499Y-45593749D01*
X57787500Y-45593749D01*
X57787500Y-45593750D01*
X57787500Y-57593750D01*
X58787500Y-58593750D01*
X71387500Y-58593750D01*
X72387500Y-57593750D01*
X72387500Y-51487414D01*
X73464953Y-51487414D01*
X73464953Y-51700086D01*
X73504031Y-51909137D01*
X73580856Y-52107444D01*
X73580858Y-52107450D01*
X73692808Y-52288255D01*
X73692814Y-52288264D01*
X73836090Y-52445431D01*
X74005806Y-52573594D01*
X74103389Y-52622184D01*
X74196171Y-52668385D01*
X74196175Y-52668386D01*
X74196182Y-52668390D01*
X74400735Y-52726591D01*
X74612499Y-52746214D01*
X74612500Y-52746214D01*
X74612501Y-52746214D01*
X74683088Y-52739673D01*
X74824265Y-52726591D01*
X75028818Y-52668390D01*
X75219194Y-52573594D01*
X75388910Y-52445431D01*
X75532186Y-52288264D01*
X75644143Y-52107447D01*
X75720969Y-51909137D01*
X75760047Y-51700086D01*
X75762500Y-51593750D01*
X75760047Y-51487414D01*
X75720969Y-51278363D01*
X75644143Y-51080053D01*
X75532186Y-50899236D01*
X75388910Y-50742069D01*
X75219194Y-50613906D01*
X75028828Y-50519114D01*
X75028815Y-50519109D01*
X74959317Y-50499335D01*
X74824265Y-50460909D01*
X74718382Y-50451098D01*
X74612501Y-50441287D01*
X74612499Y-50441287D01*
X74400735Y-50460909D01*
X74196184Y-50519109D01*
X74196171Y-50519114D01*
X74005805Y-50613906D01*
X73836091Y-50742068D01*
X73836090Y-50742069D01*
X73692814Y-50899236D01*
X73692812Y-50899237D01*
X73692810Y-50899241D01*
X73692808Y-50899244D01*
X73580858Y-51080049D01*
X73580857Y-51080053D01*
X73504031Y-51278363D01*
X73464953Y-51487414D01*
X72387500Y-51487414D01*
X72387500Y-45593750D01*
X72387499Y-45593749D01*
X76837500Y-45593749D01*
X76837500Y-45593750D01*
X76837500Y-57593750D01*
X77837500Y-58593750D01*
X90437500Y-58593750D01*
X91437500Y-57593750D01*
X91437500Y-45593750D01*
X91437499Y-45593749D01*
X95887500Y-45593749D01*
X95887500Y-45593750D01*
X95887500Y-57593750D01*
X96887500Y-58593750D01*
X109487500Y-58593750D01*
X110487500Y-57593750D01*
X110487500Y-45593750D01*
X110487499Y-45593749D01*
X114937500Y-45593749D01*
X114937500Y-45593750D01*
X114937500Y-57593750D01*
X115937500Y-58593750D01*
X128537500Y-58593750D01*
X129537500Y-57593750D01*
X129537500Y-51487414D01*
X130614953Y-51487414D01*
X130614953Y-51700086D01*
X130654031Y-51909137D01*
X130730856Y-52107444D01*
X130730858Y-52107450D01*
X130842808Y-52288255D01*
X130842814Y-52288264D01*
X130986090Y-52445431D01*
X131155806Y-52573594D01*
X131253389Y-52622184D01*
X131346171Y-52668385D01*
X131346175Y-52668386D01*
X131346182Y-52668390D01*
X131550735Y-52726591D01*
X131762499Y-52746214D01*
X131762500Y-52746214D01*
X131762501Y-52746214D01*
X131833088Y-52739673D01*
X131974265Y-52726591D01*
X132178818Y-52668390D01*
X132369194Y-52573594D01*
X132538910Y-52445431D01*
X132682186Y-52288264D01*
X132794143Y-52107447D01*
X132870969Y-51909137D01*
X132910047Y-51700086D01*
X132912500Y-51593750D01*
X132910047Y-51487414D01*
X132870969Y-51278363D01*
X132794143Y-51080053D01*
X132682186Y-50899236D01*
X132538910Y-50742069D01*
X132369194Y-50613906D01*
X132178828Y-50519114D01*
X132178815Y-50519109D01*
X132109317Y-50499335D01*
X131974265Y-50460909D01*
X131868382Y-50451098D01*
X131762501Y-50441287D01*
X131762499Y-50441287D01*
X131550735Y-50460909D01*
X131346184Y-50519109D01*
X131346171Y-50519114D01*
X131155805Y-50613906D01*
X130986091Y-50742068D01*
X130986090Y-50742069D01*
X130842814Y-50899236D01*
X130842812Y-50899237D01*
X130842810Y-50899241D01*
X130842808Y-50899244D01*
X130730858Y-51080049D01*
X130730857Y-51080053D01*
X130654031Y-51278363D01*
X130614953Y-51487414D01*
X129537500Y-51487414D01*
X129537500Y-45593750D01*
X129537499Y-45593749D01*
X133987500Y-45593749D01*
X133987500Y-45593750D01*
X133987500Y-57593750D01*
X134987500Y-58593750D01*
X147587500Y-58593750D01*
X148587500Y-57593750D01*
X148587500Y-45593750D01*
X148587499Y-45593749D01*
X153037500Y-45593749D01*
X153037500Y-45593750D01*
X153037500Y-57593750D01*
X154037500Y-58593750D01*
X166637500Y-58593750D01*
X167637500Y-57593750D01*
X167637500Y-51487414D01*
X168714953Y-51487414D01*
X168714953Y-51700086D01*
X168754031Y-51909137D01*
X168830856Y-52107444D01*
X168830858Y-52107450D01*
X168942808Y-52288255D01*
X168942814Y-52288264D01*
X169086090Y-52445431D01*
X169255806Y-52573594D01*
X169353389Y-52622184D01*
X169446171Y-52668385D01*
X169446175Y-52668386D01*
X169446182Y-52668390D01*
X169650735Y-52726591D01*
X169862499Y-52746214D01*
X169862500Y-52746214D01*
X169862501Y-52746214D01*
X169933088Y-52739673D01*
X170074265Y-52726591D01*
X170278818Y-52668390D01*
X170469194Y-52573594D01*
X170638910Y-52445431D01*
X170782186Y-52288264D01*
X170894143Y-52107447D01*
X170970969Y-51909137D01*
X171010047Y-51700086D01*
X171012500Y-51593750D01*
X171010047Y-51487414D01*
X170970969Y-51278363D01*
X170894143Y-51080053D01*
X170782186Y-50899236D01*
X170638910Y-50742069D01*
X170469194Y-50613906D01*
X170278828Y-50519114D01*
X170278815Y-50519109D01*
X170209317Y-50499335D01*
X170074265Y-50460909D01*
X169968382Y-50451098D01*
X169862501Y-50441287D01*
X169862499Y-50441287D01*
X169650735Y-50460909D01*
X169446184Y-50519109D01*
X169446171Y-50519114D01*
X169255805Y-50613906D01*
X169086091Y-50742068D01*
X169086090Y-50742069D01*
X168942814Y-50899236D01*
X168942812Y-50899237D01*
X168942810Y-50899241D01*
X168942808Y-50899244D01*
X168830858Y-51080049D01*
X168830857Y-51080053D01*
X168754031Y-51278363D01*
X168714953Y-51487414D01*
X167637500Y-51487414D01*
X167637500Y-45593750D01*
X167637499Y-45593749D01*
X172087500Y-45593749D01*
X172087500Y-45593750D01*
X172087500Y-57593750D01*
X173087500Y-58593750D01*
X185687500Y-58593750D01*
X186687500Y-57593750D01*
X186687500Y-45593750D01*
X186687499Y-45593749D01*
X191137500Y-45593749D01*
X191137500Y-45593750D01*
X191137500Y-57593750D01*
X192137500Y-58593750D01*
X204737500Y-58593750D01*
X205737500Y-57593750D01*
X205737500Y-51487414D01*
X206814953Y-51487414D01*
X206814953Y-51700086D01*
X206854031Y-51909137D01*
X206930856Y-52107444D01*
X206930858Y-52107450D01*
X207042808Y-52288255D01*
X207042814Y-52288264D01*
X207186090Y-52445431D01*
X207355806Y-52573594D01*
X207453389Y-52622184D01*
X207546171Y-52668385D01*
X207546175Y-52668386D01*
X207546182Y-52668390D01*
X207750735Y-52726591D01*
X207962499Y-52746214D01*
X207962500Y-52746214D01*
X207962501Y-52746214D01*
X208033088Y-52739673D01*
X208174265Y-52726591D01*
X208378818Y-52668390D01*
X208569194Y-52573594D01*
X208738910Y-52445431D01*
X208882186Y-52288264D01*
X208994143Y-52107447D01*
X209070969Y-51909137D01*
X209110047Y-51700086D01*
X209112500Y-51593750D01*
X209110047Y-51487414D01*
X209070969Y-51278363D01*
X208994143Y-51080053D01*
X208882186Y-50899236D01*
X208738910Y-50742069D01*
X208569194Y-50613906D01*
X208378828Y-50519114D01*
X208378815Y-50519109D01*
X208309317Y-50499335D01*
X208174265Y-50460909D01*
X208068382Y-50451098D01*
X207962501Y-50441287D01*
X207962499Y-50441287D01*
X207750735Y-50460909D01*
X207546184Y-50519109D01*
X207546171Y-50519114D01*
X207355805Y-50613906D01*
X207186091Y-50742068D01*
X207186090Y-50742069D01*
X207042814Y-50899236D01*
X207042812Y-50899237D01*
X207042810Y-50899241D01*
X207042808Y-50899244D01*
X206930858Y-51080049D01*
X206930857Y-51080053D01*
X206854031Y-51278363D01*
X206814953Y-51487414D01*
X205737500Y-51487414D01*
X205737500Y-45593750D01*
X205737499Y-45593749D01*
X210187500Y-45593749D01*
X210187500Y-45593750D01*
X210187500Y-57593750D01*
X211187500Y-58593750D01*
X223787500Y-58593750D01*
X224787500Y-57593750D01*
X224787500Y-54665906D01*
X229185478Y-54665906D01*
X232777022Y-54665906D01*
X232777022Y-48521594D01*
X229185478Y-48521594D01*
X229185478Y-54665906D01*
X224787500Y-54665906D01*
X224787500Y-45593750D01*
X224787499Y-45593749D01*
X236381250Y-45593749D01*
X236381250Y-45593750D01*
X236381250Y-57593750D01*
X237381250Y-58593750D01*
X249981250Y-58593750D01*
X250981250Y-57593750D01*
X250981250Y-51487414D01*
X252058703Y-51487414D01*
X252058703Y-51700086D01*
X252097781Y-51909137D01*
X252174606Y-52107444D01*
X252174608Y-52107450D01*
X252286558Y-52288255D01*
X252286564Y-52288264D01*
X252429840Y-52445431D01*
X252599556Y-52573594D01*
X252697139Y-52622184D01*
X252789921Y-52668385D01*
X252789925Y-52668386D01*
X252789932Y-52668390D01*
X252994485Y-52726591D01*
X253206249Y-52746214D01*
X253206250Y-52746214D01*
X253206251Y-52746214D01*
X253276838Y-52739673D01*
X253418015Y-52726591D01*
X253622568Y-52668390D01*
X253812944Y-52573594D01*
X253982660Y-52445431D01*
X254125936Y-52288264D01*
X254237893Y-52107447D01*
X254314719Y-51909137D01*
X254353797Y-51700086D01*
X254356250Y-51593750D01*
X254353797Y-51487414D01*
X254314719Y-51278363D01*
X254237893Y-51080053D01*
X254125936Y-50899236D01*
X253982660Y-50742069D01*
X253812944Y-50613906D01*
X253622578Y-50519114D01*
X253622565Y-50519109D01*
X253553067Y-50499335D01*
X253418015Y-50460909D01*
X253312132Y-50451098D01*
X253206251Y-50441287D01*
X253206249Y-50441287D01*
X252994485Y-50460909D01*
X252789934Y-50519109D01*
X252789921Y-50519114D01*
X252599555Y-50613906D01*
X252429841Y-50742068D01*
X252429840Y-50742069D01*
X252286564Y-50899236D01*
X252286562Y-50899237D01*
X252286560Y-50899241D01*
X252286558Y-50899244D01*
X252174608Y-51080049D01*
X252174607Y-51080053D01*
X252097781Y-51278363D01*
X252058703Y-51487414D01*
X250981250Y-51487414D01*
X250981250Y-45593750D01*
X249981250Y-44593750D01*
X237381249Y-44593750D01*
X236381250Y-45593749D01*
X224787499Y-45593749D01*
X223787500Y-44593750D01*
X211187499Y-44593750D01*
X210187500Y-45593749D01*
X205737499Y-45593749D01*
X204737500Y-44593750D01*
X192137499Y-44593750D01*
X191137500Y-45593749D01*
X186687499Y-45593749D01*
X185687500Y-44593750D01*
X173087499Y-44593750D01*
X172087500Y-45593749D01*
X167637499Y-45593749D01*
X166637500Y-44593750D01*
X154037499Y-44593750D01*
X153037500Y-45593749D01*
X148587499Y-45593749D01*
X147587500Y-44593750D01*
X134987499Y-44593750D01*
X133987500Y-45593749D01*
X129537499Y-45593749D01*
X128537500Y-44593750D01*
X115937499Y-44593750D01*
X114937500Y-45593749D01*
X110487499Y-45593749D01*
X109487500Y-44593750D01*
X96887499Y-44593750D01*
X95887500Y-45593749D01*
X91437499Y-45593749D01*
X90437500Y-44593750D01*
X77837499Y-44593750D01*
X76837500Y-45593749D01*
X72387499Y-45593749D01*
X71387500Y-44593750D01*
X58787499Y-44593750D01*
X57787500Y-45593749D01*
X53337499Y-45593749D01*
X52337500Y-44593750D01*
X39737499Y-44593750D01*
X38737500Y-45593749D01*
X34287499Y-45593749D01*
X33287500Y-44593750D01*
X20687499Y-44593750D01*
X19687500Y-45593749D01*
X17462500Y-45593749D01*
X17462500Y-43569936D01*
X17462524Y-43567527D01*
X17462562Y-43565561D01*
X17464644Y-43459404D01*
X17466146Y-43442455D01*
X17500163Y-43227678D01*
X17504705Y-43208761D01*
X17571524Y-43003111D01*
X17578963Y-42985151D01*
X17677135Y-42792478D01*
X17687293Y-42775901D01*
X17814399Y-42600956D01*
X17827025Y-42586174D01*
X17979927Y-42433273D01*
X17994706Y-42420649D01*
X18169651Y-42293543D01*
X18186228Y-42283385D01*
X18378901Y-42185213D01*
X18396861Y-42177774D01*
X18602513Y-42110954D01*
X18621428Y-42106413D01*
X18836205Y-42072396D01*
X18853154Y-42070894D01*
X18959311Y-42068812D01*
X18961277Y-42068774D01*
X18963708Y-42068750D01*
X77343000Y-42068750D01*
X77357469Y-41814180D01*
X77358210Y-41805978D01*
X77420981Y-41300495D01*
X77422500Y-41291184D01*
X77523432Y-40792544D01*
X77525646Y-40783409D01*
X77664242Y-40293859D01*
X77667150Y-40284904D01*
X77842590Y-39807342D01*
X77846162Y-39798654D01*
X78057439Y-39335815D01*
X78061676Y-39327399D01*
X78307552Y-38881998D01*
X78312427Y-38873911D01*
X78591470Y-38448532D01*
X78596931Y-38440860D01*
X78907555Y-38037923D01*
X78913588Y-38030685D01*
X79253981Y-37652547D01*
X79260526Y-37645810D01*
X79628701Y-37294677D01*
X79635761Y-37288439D01*
X80029590Y-36966341D01*
X80037096Y-36960665D01*
X80454307Y-36669460D01*
X80462204Y-36664383D01*
X80900362Y-36405775D01*
X80908632Y-36401309D01*
X81365208Y-36176788D01*
X81373789Y-36172967D01*
X81846118Y-35983843D01*
X81854967Y-35980686D01*
X82340318Y-35828054D01*
X82349384Y-35825578D01*
X82778854Y-35725694D01*
X82848609Y-35729681D01*
X82905136Y-35770747D01*
X82930488Y-35835856D01*
X82916615Y-35904334D01*
X82867921Y-35954441D01*
X82854396Y-35961032D01*
X82746667Y-36005655D01*
X82432044Y-36179540D01*
X82138876Y-36387555D01*
X81870838Y-36627089D01*
X81631304Y-36895127D01*
X81423289Y-37188295D01*
X81249404Y-37502918D01*
X81111838Y-37835031D01*
X81012327Y-38180444D01*
X81012325Y-38180453D01*
X80952113Y-38534835D01*
X80952111Y-38534847D01*
X80931956Y-38893750D01*
X80952111Y-39252652D01*
X80952113Y-39252664D01*
X81012325Y-39607046D01*
X81012327Y-39607055D01*
X81111838Y-39952468D01*
X81111838Y-39952470D01*
X81111840Y-39952474D01*
X81249405Y-40284583D01*
X81254532Y-40293859D01*
X81423289Y-40599204D01*
X81560472Y-40792544D01*
X81631305Y-40892373D01*
X81870838Y-41160411D01*
X82138876Y-41399944D01*
X82432047Y-41607961D01*
X82746666Y-41781844D01*
X83078775Y-41919409D01*
X83424199Y-42018923D01*
X83778592Y-42079137D01*
X84137499Y-42099293D01*
X84496406Y-42079137D01*
X84850799Y-42018923D01*
X85196223Y-41919409D01*
X85528332Y-41781844D01*
X85842951Y-41607961D01*
X86136122Y-41399944D01*
X86404160Y-41160411D01*
X86643693Y-40892373D01*
X86851710Y-40599202D01*
X87025593Y-40284583D01*
X87163158Y-39952474D01*
X87262672Y-39607050D01*
X87322886Y-39252657D01*
X87343042Y-38893750D01*
X87322886Y-38534843D01*
X87262672Y-38180450D01*
X87163158Y-37835026D01*
X87025593Y-37502917D01*
X86851710Y-37188298D01*
X86643693Y-36895127D01*
X86404160Y-36627089D01*
X86136122Y-36387556D01*
X85842954Y-36179541D01*
X85842953Y-36179540D01*
X85528330Y-36005655D01*
X85420599Y-35961031D01*
X85366196Y-35917190D01*
X85344131Y-35850896D01*
X85361410Y-35783196D01*
X85412548Y-35735586D01*
X85481307Y-35723181D01*
X85496139Y-35725692D01*
X85925609Y-35825577D01*
X85934688Y-35828057D01*
X86420024Y-35980683D01*
X86428889Y-35983847D01*
X86901200Y-36172963D01*
X86909801Y-36176792D01*
X87366356Y-36401304D01*
X87374648Y-36405782D01*
X87812783Y-36664376D01*
X87820704Y-36669468D01*
X88144008Y-36895128D01*
X88237890Y-36960656D01*
X88245421Y-36966351D01*
X88639229Y-37288432D01*
X88646306Y-37294685D01*
X89014455Y-37645793D01*
X89021035Y-37652565D01*
X89361404Y-38030678D01*
X89367450Y-38037932D01*
X89678060Y-38440850D01*
X89683536Y-38448543D01*
X89962572Y-38873911D01*
X89967447Y-38881998D01*
X90213323Y-39327399D01*
X90217569Y-39335834D01*
X90428827Y-39798632D01*
X90432418Y-39807365D01*
X90607844Y-40284891D01*
X90610761Y-40293872D01*
X90749347Y-40783388D01*
X90751571Y-40792565D01*
X90852499Y-41291184D01*
X90854019Y-41300504D01*
X90916786Y-41805956D01*
X90917531Y-41814200D01*
X90929168Y-42018921D01*
X90932000Y-42068750D01*
X210693000Y-42068750D01*
X210707469Y-41814180D01*
X210708210Y-41805978D01*
X210770981Y-41300495D01*
X210772500Y-41291184D01*
X210873432Y-40792544D01*
X210875646Y-40783409D01*
X211014242Y-40293859D01*
X211017150Y-40284904D01*
X211192590Y-39807342D01*
X211196162Y-39798654D01*
X211407439Y-39335815D01*
X211411676Y-39327399D01*
X211657552Y-38881998D01*
X211662427Y-38873911D01*
X211941470Y-38448532D01*
X211946931Y-38440860D01*
X212257555Y-38037923D01*
X212263588Y-38030685D01*
X212603981Y-37652547D01*
X212610526Y-37645810D01*
X212978701Y-37294677D01*
X212985761Y-37288439D01*
X213379590Y-36966341D01*
X213387096Y-36960665D01*
X213804307Y-36669460D01*
X213812204Y-36664383D01*
X214250362Y-36405775D01*
X214258632Y-36401309D01*
X214715208Y-36176788D01*
X214723789Y-36172967D01*
X215196118Y-35983843D01*
X215204967Y-35980686D01*
X215690318Y-35828054D01*
X215699384Y-35825578D01*
X216128862Y-35725692D01*
X216198616Y-35729679D01*
X216255143Y-35770745D01*
X216280495Y-35835853D01*
X216266622Y-35904332D01*
X216217929Y-35954439D01*
X216204404Y-35961030D01*
X216096665Y-36005657D01*
X215782045Y-36179541D01*
X215488877Y-36387556D01*
X215220839Y-36627090D01*
X214981305Y-36895128D01*
X214773290Y-37188296D01*
X214599405Y-37502919D01*
X214461839Y-37835032D01*
X214362328Y-38180445D01*
X214362326Y-38180454D01*
X214302114Y-38534836D01*
X214302112Y-38534848D01*
X214281957Y-38893751D01*
X214302112Y-39252653D01*
X214302114Y-39252665D01*
X214362326Y-39607047D01*
X214362328Y-39607056D01*
X214461839Y-39952469D01*
X214599405Y-40284582D01*
X214773290Y-40599205D01*
X214981305Y-40892373D01*
X214981306Y-40892374D01*
X215220839Y-41160412D01*
X215488877Y-41399945D01*
X215782048Y-41607962D01*
X216096667Y-41781845D01*
X216428776Y-41919410D01*
X216774200Y-42018924D01*
X217128593Y-42079138D01*
X217487500Y-42099294D01*
X217846407Y-42079138D01*
X218200800Y-42018924D01*
X218546224Y-41919410D01*
X218878333Y-41781845D01*
X219192952Y-41607962D01*
X219486123Y-41399945D01*
X219754161Y-41160412D01*
X219993694Y-40892374D01*
X220201711Y-40599203D01*
X220375594Y-40284584D01*
X220513159Y-39952475D01*
X220612673Y-39607051D01*
X220672887Y-39252658D01*
X220693043Y-38893751D01*
X220672887Y-38534844D01*
X220612673Y-38180451D01*
X220513159Y-37835027D01*
X220375594Y-37502918D01*
X220201711Y-37188299D01*
X219993694Y-36895128D01*
X219754161Y-36627090D01*
X219486123Y-36387557D01*
X219486122Y-36387556D01*
X219192954Y-36179541D01*
X218878331Y-36005656D01*
X218770596Y-35961030D01*
X218716193Y-35917189D01*
X218694128Y-35850894D01*
X218711408Y-35783195D01*
X218762545Y-35735585D01*
X218831305Y-35723180D01*
X218846131Y-35725690D01*
G37*
%TD.AperFunction*%
%TD*%
M02*
