%TF.GenerationSoftware,KiCad,Pcbnew,8.0.8*%
%TF.CreationDate,2025-02-20T20:10:54+01:00*%
%TF.ProjectId,plate 625u OEM,706c6174-6520-4363-9235-75204f454d2e,rev?*%
%TF.SameCoordinates,Original*%
%TF.FileFunction,Legend,Bot*%
%TF.FilePolarity,Positive*%
%FSLAX46Y46*%
G04 Gerber Fmt 4.6, Leading zero omitted, Abs format (unit mm)*
G04 Created by KiCad (PCBNEW 8.0.8) date 2025-02-20 20:10:54*
%MOMM*%
%LPD*%
G01*
G04 APERTURE LIST*
%ADD10C,0.150000*%
G04 APERTURE END LIST*
D10*
X236394048Y-94704819D02*
X236394048Y-95419104D01*
X236394048Y-95419104D02*
X236441667Y-95561961D01*
X236441667Y-95561961D02*
X236536905Y-95657200D01*
X236536905Y-95657200D02*
X236679762Y-95704819D01*
X236679762Y-95704819D02*
X236775000Y-95704819D01*
X235441667Y-95704819D02*
X235917857Y-95704819D01*
X235917857Y-95704819D02*
X235917857Y-94704819D01*
X234536905Y-95609580D02*
X234584524Y-95657200D01*
X234584524Y-95657200D02*
X234727381Y-95704819D01*
X234727381Y-95704819D02*
X234822619Y-95704819D01*
X234822619Y-95704819D02*
X234965476Y-95657200D01*
X234965476Y-95657200D02*
X235060714Y-95561961D01*
X235060714Y-95561961D02*
X235108333Y-95466723D01*
X235108333Y-95466723D02*
X235155952Y-95276247D01*
X235155952Y-95276247D02*
X235155952Y-95133390D01*
X235155952Y-95133390D02*
X235108333Y-94942914D01*
X235108333Y-94942914D02*
X235060714Y-94847676D01*
X235060714Y-94847676D02*
X234965476Y-94752438D01*
X234965476Y-94752438D02*
X234822619Y-94704819D01*
X234822619Y-94704819D02*
X234727381Y-94704819D01*
X234727381Y-94704819D02*
X234584524Y-94752438D01*
X234584524Y-94752438D02*
X234536905Y-94800057D01*
X233822619Y-94704819D02*
X233822619Y-95419104D01*
X233822619Y-95419104D02*
X233870238Y-95561961D01*
X233870238Y-95561961D02*
X233965476Y-95657200D01*
X233965476Y-95657200D02*
X234108333Y-95704819D01*
X234108333Y-95704819D02*
X234203571Y-95704819D01*
X232870238Y-95704819D02*
X233346428Y-95704819D01*
X233346428Y-95704819D02*
X233346428Y-94704819D01*
X231965476Y-95609580D02*
X232013095Y-95657200D01*
X232013095Y-95657200D02*
X232155952Y-95704819D01*
X232155952Y-95704819D02*
X232251190Y-95704819D01*
X232251190Y-95704819D02*
X232394047Y-95657200D01*
X232394047Y-95657200D02*
X232489285Y-95561961D01*
X232489285Y-95561961D02*
X232536904Y-95466723D01*
X232536904Y-95466723D02*
X232584523Y-95276247D01*
X232584523Y-95276247D02*
X232584523Y-95133390D01*
X232584523Y-95133390D02*
X232536904Y-94942914D01*
X232536904Y-94942914D02*
X232489285Y-94847676D01*
X232489285Y-94847676D02*
X232394047Y-94752438D01*
X232394047Y-94752438D02*
X232251190Y-94704819D01*
X232251190Y-94704819D02*
X232155952Y-94704819D01*
X232155952Y-94704819D02*
X232013095Y-94752438D01*
X232013095Y-94752438D02*
X231965476Y-94800057D01*
X231251190Y-94704819D02*
X231251190Y-95419104D01*
X231251190Y-95419104D02*
X231298809Y-95561961D01*
X231298809Y-95561961D02*
X231394047Y-95657200D01*
X231394047Y-95657200D02*
X231536904Y-95704819D01*
X231536904Y-95704819D02*
X231632142Y-95704819D01*
X230298809Y-95704819D02*
X230774999Y-95704819D01*
X230774999Y-95704819D02*
X230774999Y-94704819D01*
X229394047Y-95609580D02*
X229441666Y-95657200D01*
X229441666Y-95657200D02*
X229584523Y-95704819D01*
X229584523Y-95704819D02*
X229679761Y-95704819D01*
X229679761Y-95704819D02*
X229822618Y-95657200D01*
X229822618Y-95657200D02*
X229917856Y-95561961D01*
X229917856Y-95561961D02*
X229965475Y-95466723D01*
X229965475Y-95466723D02*
X230013094Y-95276247D01*
X230013094Y-95276247D02*
X230013094Y-95133390D01*
X230013094Y-95133390D02*
X229965475Y-94942914D01*
X229965475Y-94942914D02*
X229917856Y-94847676D01*
X229917856Y-94847676D02*
X229822618Y-94752438D01*
X229822618Y-94752438D02*
X229679761Y-94704819D01*
X229679761Y-94704819D02*
X229584523Y-94704819D01*
X229584523Y-94704819D02*
X229441666Y-94752438D01*
X229441666Y-94752438D02*
X229394047Y-94800057D01*
X228679761Y-94704819D02*
X228679761Y-95419104D01*
X228679761Y-95419104D02*
X228727380Y-95561961D01*
X228727380Y-95561961D02*
X228822618Y-95657200D01*
X228822618Y-95657200D02*
X228965475Y-95704819D01*
X228965475Y-95704819D02*
X229060713Y-95704819D01*
X227727380Y-95704819D02*
X228203570Y-95704819D01*
X228203570Y-95704819D02*
X228203570Y-94704819D01*
X226822618Y-95609580D02*
X226870237Y-95657200D01*
X226870237Y-95657200D02*
X227013094Y-95704819D01*
X227013094Y-95704819D02*
X227108332Y-95704819D01*
X227108332Y-95704819D02*
X227251189Y-95657200D01*
X227251189Y-95657200D02*
X227346427Y-95561961D01*
X227346427Y-95561961D02*
X227394046Y-95466723D01*
X227394046Y-95466723D02*
X227441665Y-95276247D01*
X227441665Y-95276247D02*
X227441665Y-95133390D01*
X227441665Y-95133390D02*
X227394046Y-94942914D01*
X227394046Y-94942914D02*
X227346427Y-94847676D01*
X227346427Y-94847676D02*
X227251189Y-94752438D01*
X227251189Y-94752438D02*
X227108332Y-94704819D01*
X227108332Y-94704819D02*
X227013094Y-94704819D01*
X227013094Y-94704819D02*
X226870237Y-94752438D01*
X226870237Y-94752438D02*
X226822618Y-94800057D01*
M02*
