M48
; DRILL file {KiCad 8.0.8} date 2025-02-20T20:08:51+0100
; FORMAT={-:-/ absolute / inch / decimal}
; #@! TF.CreationDate,2025-02-20T20:08:51+01:00
; #@! TF.GenerationSoftware,Kicad,Pcbnew,8.0.8
; #@! TF.FileFunction,NonPlated,1,4,NPTH
FMAT,2
INCH
; #@! TA.AperFunction,NonPlated,NPTH,ComponentDrill
T1C0.0256
; #@! TA.AperFunction,NonPlated,NPTH,ComponentDrill
T2C0.0866
%
G90
G05
T1
X5.8237Y-1.8195
X6.0513Y-1.8195
T2
X0.7812Y-2.7812
X1.4375Y-2.0312
X1.4375Y-4.2812
X1.7188Y-3.5312
X2.375Y-2.7812
X2.9375Y-2.0312
X2.9375Y-4.2812
X3.5Y-3.5312
X3.7812Y-4.2812
X3.875Y-2.7812
X5.0Y-3.5312
X5.1875Y-2.0312
X5.375Y-2.7812
X6.5Y-3.5312
X6.6875Y-2.0312
X6.875Y-2.7812
X7.625Y-4.2812
X8.0Y-3.5312
X8.1875Y-2.0312
X8.375Y-2.7812
X9.9688Y-2.0312
X10.1562Y-2.7812
X10.25Y-4.2812
M30
