%TF.GenerationSoftware,KiCad,Pcbnew,(7.0.0)*%
%TF.CreationDate,2024-01-19T15:20:53+01:00*%
%TF.ProjectId,oceanographer EC,6f636561-6e6f-4677-9261-706865722045,rev?*%
%TF.SameCoordinates,Original*%
%TF.FileFunction,Paste,Bot*%
%TF.FilePolarity,Positive*%
%FSLAX46Y46*%
G04 Gerber Fmt 4.6, Leading zero omitted, Abs format (unit mm)*
G04 Created by KiCad (PCBNEW (7.0.0)) date 2024-01-19 15:20:53*
%MOMM*%
%LPD*%
G01*
G04 APERTURE LIST*
G04 Aperture macros list*
%AMRoundRect*
0 Rectangle with rounded corners*
0 $1 Rounding radius*
0 $2 $3 $4 $5 $6 $7 $8 $9 X,Y pos of 4 corners*
0 Add a 4 corners polygon primitive as box body*
4,1,4,$2,$3,$4,$5,$6,$7,$8,$9,$2,$3,0*
0 Add four circle primitives for the rounded corners*
1,1,$1+$1,$2,$3*
1,1,$1+$1,$4,$5*
1,1,$1+$1,$6,$7*
1,1,$1+$1,$8,$9*
0 Add four rect primitives between the rounded corners*
20,1,$1+$1,$2,$3,$4,$5,0*
20,1,$1+$1,$4,$5,$6,$7,0*
20,1,$1+$1,$6,$7,$8,$9,0*
20,1,$1+$1,$8,$9,$2,$3,0*%
G04 Aperture macros list end*
%ADD10RoundRect,0.140000X-0.170000X0.140000X-0.170000X-0.140000X0.170000X-0.140000X0.170000X0.140000X0*%
%ADD11RoundRect,0.135000X0.185000X-0.135000X0.185000X0.135000X-0.185000X0.135000X-0.185000X-0.135000X0*%
%ADD12RoundRect,0.135000X-0.185000X0.135000X-0.185000X-0.135000X0.185000X-0.135000X0.185000X0.135000X0*%
%ADD13RoundRect,0.250000X0.315000X-0.315000X0.315000X0.315000X-0.315000X0.315000X-0.315000X-0.315000X0*%
%ADD14RoundRect,0.062500X0.062500X-0.375000X0.062500X0.375000X-0.062500X0.375000X-0.062500X-0.375000X0*%
%ADD15RoundRect,0.062500X0.375000X-0.062500X0.375000X0.062500X-0.375000X0.062500X-0.375000X-0.062500X0*%
%ADD16R,1.778000X0.419100*%
%ADD17RoundRect,0.135000X0.135000X0.185000X-0.135000X0.185000X-0.135000X-0.185000X0.135000X-0.185000X0*%
%ADD18RoundRect,0.135000X-0.135000X-0.185000X0.135000X-0.185000X0.135000X0.185000X-0.135000X0.185000X0*%
%ADD19RoundRect,0.140000X-0.140000X-0.170000X0.140000X-0.170000X0.140000X0.170000X-0.140000X0.170000X0*%
%ADD20RoundRect,0.140000X0.140000X0.170000X-0.140000X0.170000X-0.140000X-0.170000X0.140000X-0.170000X0*%
%ADD21RoundRect,0.250000X-0.625000X0.375000X-0.625000X-0.375000X0.625000X-0.375000X0.625000X0.375000X0*%
%ADD22RoundRect,0.150000X0.150000X-0.587500X0.150000X0.587500X-0.150000X0.587500X-0.150000X-0.587500X0*%
%ADD23RoundRect,0.140000X0.170000X-0.140000X0.170000X0.140000X-0.170000X0.140000X-0.170000X-0.140000X0*%
%ADD24RoundRect,0.150000X-0.825000X-0.150000X0.825000X-0.150000X0.825000X0.150000X-0.825000X0.150000X0*%
%ADD25RoundRect,0.237500X0.250000X0.237500X-0.250000X0.237500X-0.250000X-0.237500X0.250000X-0.237500X0*%
%ADD26R,0.600000X1.450000*%
%ADD27R,0.300000X1.450000*%
%ADD28R,0.700000X1.000000*%
%ADD29R,0.700000X0.600000*%
%ADD30R,0.400000X1.900000*%
G04 APERTURE END LIST*
D10*
%TO.C,C6*%
X232556998Y-93522513D03*
X232556998Y-94482513D03*
%TD*%
D11*
%TO.C,R1*%
X234837714Y-83023426D03*
X234837714Y-82003426D03*
%TD*%
D12*
%TO.C,R12*%
X56356250Y-100062500D03*
X56356250Y-101082500D03*
%TD*%
D10*
%TO.C,C2*%
X239618750Y-93088750D03*
X239618750Y-94048750D03*
%TD*%
D13*
%TO.C,U1*%
X232756250Y-90906250D03*
X234156250Y-90906250D03*
X235556250Y-90906250D03*
X236956250Y-90906250D03*
X232756250Y-89506250D03*
X234156250Y-89506250D03*
X235556250Y-89506250D03*
X236956250Y-89506250D03*
X232756250Y-88106250D03*
X234156250Y-88106250D03*
X235556250Y-88106250D03*
X236956250Y-88106250D03*
X232756250Y-86706250D03*
X234156250Y-86706250D03*
X235556250Y-86706250D03*
X236956250Y-86706250D03*
D14*
X237606250Y-92243750D03*
X237106250Y-92243750D03*
X236606250Y-92243750D03*
X236106250Y-92243750D03*
X235606250Y-92243750D03*
X235106250Y-92243750D03*
X234606250Y-92243750D03*
X234106250Y-92243750D03*
X233606250Y-92243750D03*
X233106250Y-92243750D03*
X232606250Y-92243750D03*
X232106250Y-92243750D03*
D15*
X231418750Y-91556250D03*
X231418750Y-91056250D03*
X231418750Y-90556250D03*
X231418750Y-90056250D03*
X231418750Y-89556250D03*
X231418750Y-89056250D03*
X231418750Y-88556250D03*
X231418750Y-88056250D03*
X231418750Y-87556250D03*
X231418750Y-87056250D03*
X231418750Y-86556250D03*
X231418750Y-86056250D03*
D14*
X232106250Y-85368750D03*
X232606250Y-85368750D03*
X233106250Y-85368750D03*
X233606250Y-85368750D03*
X234106250Y-85368750D03*
X234606250Y-85368750D03*
X235106250Y-85368750D03*
X235606250Y-85368750D03*
X236106250Y-85368750D03*
X236606250Y-85368750D03*
X237106250Y-85368750D03*
X237606250Y-85368750D03*
D15*
X238293750Y-86056250D03*
X238293750Y-86556250D03*
X238293750Y-87056250D03*
X238293750Y-87556250D03*
X238293750Y-88056250D03*
X238293750Y-88556250D03*
X238293750Y-89056250D03*
X238293750Y-89556250D03*
X238293750Y-90056250D03*
X238293750Y-90556250D03*
X238293750Y-91056250D03*
X238293750Y-91556250D03*
%TD*%
D16*
%TO.C,U5*%
X188711839Y-104089199D03*
X188711839Y-104739439D03*
X188711839Y-105389679D03*
X188711839Y-106039919D03*
X188711839Y-106685079D03*
X188711839Y-107335319D03*
X188711839Y-107985559D03*
X188711839Y-108635799D03*
X182763159Y-108635799D03*
X182763159Y-107985559D03*
X182763159Y-107335319D03*
X182763159Y-106685079D03*
X182763159Y-106039919D03*
X182763159Y-105389679D03*
X182763159Y-104739439D03*
X182763159Y-104089199D03*
%TD*%
D12*
%TO.C,R4*%
X232675141Y-82003426D03*
X232675141Y-83023426D03*
%TD*%
D17*
%TO.C,R17*%
X269591250Y-46037500D03*
X268571250Y-46037500D03*
%TD*%
D11*
%TO.C,R2*%
X230579325Y-83023426D03*
X230579325Y-82003426D03*
%TD*%
D18*
%TO.C,R7*%
X232516946Y-95516759D03*
X233536946Y-95516759D03*
%TD*%
D12*
%TO.C,R8*%
X229300000Y-85921704D03*
X229300000Y-86941704D03*
%TD*%
D19*
%TO.C,C9*%
X232882500Y-73113757D03*
X233842500Y-73113757D03*
%TD*%
D12*
%TO.C,R19*%
X189706250Y-111408750D03*
X189706250Y-112428750D03*
%TD*%
%TO.C,R23*%
X242832727Y-101870075D03*
X242832727Y-102890075D03*
%TD*%
%TO.C,R21*%
X152489007Y-100833403D03*
X152489007Y-101853403D03*
%TD*%
D20*
%TO.C,C8*%
X233842500Y-68262500D03*
X232882500Y-68262500D03*
%TD*%
D11*
%TO.C,R13*%
X37306250Y-99445000D03*
X37306250Y-98425000D03*
%TD*%
D10*
%TO.C,C7*%
X233497819Y-93523981D03*
X233497819Y-94483981D03*
%TD*%
D19*
%TO.C,C13*%
X181288750Y-102393750D03*
X182248750Y-102393750D03*
%TD*%
D21*
%TO.C,F_USBC1*%
X148431250Y-58131250D03*
X148431250Y-60931250D03*
%TD*%
D17*
%TO.C,R25*%
X224763750Y-96743750D03*
X223743750Y-96743750D03*
%TD*%
D12*
%TO.C,R9*%
X151880851Y-49864394D03*
X151880851Y-50884394D03*
%TD*%
D17*
%TO.C,R16*%
X272766250Y-46037500D03*
X271746250Y-46037500D03*
%TD*%
D19*
%TO.C,C11*%
X273363750Y-99218750D03*
X274323750Y-99218750D03*
%TD*%
D20*
%TO.C,C3*%
X230264816Y-84858130D03*
X229304816Y-84858130D03*
%TD*%
D22*
%TO.C,U2*%
X234312500Y-71581250D03*
X232412500Y-71581250D03*
X233362500Y-69706250D03*
%TD*%
D23*
%TO.C,C4*%
X239515478Y-84719951D03*
X239515478Y-83759951D03*
%TD*%
D20*
%TO.C,C12*%
X266386250Y-99218750D03*
X265426250Y-99218750D03*
%TD*%
D24*
%TO.C,U6*%
X224443750Y-95473750D03*
X224443750Y-94203750D03*
X224443750Y-92933750D03*
X224443750Y-91663750D03*
X229393750Y-91663750D03*
X229393750Y-92933750D03*
X229393750Y-94203750D03*
X229393750Y-95473750D03*
%TD*%
D10*
%TO.C,C14*%
X222511287Y-91888631D03*
X222511287Y-92848631D03*
%TD*%
D12*
%TO.C,R26*%
X261013719Y-100970265D03*
X261013719Y-101990265D03*
%TD*%
D25*
%TO.C,JP1*%
X227831250Y-97537500D03*
X226006250Y-97537500D03*
%TD*%
D12*
%TO.C,R22*%
X223639054Y-101941694D03*
X223639054Y-102961694D03*
%TD*%
D26*
%TO.C,USB1*%
X147587499Y-47659999D03*
X148362499Y-47659999D03*
D27*
X149062499Y-47659999D03*
X149562499Y-47659999D03*
X150062499Y-47659999D03*
X150562499Y-47659999D03*
X151062499Y-47659999D03*
X151562499Y-47659999D03*
X152062499Y-47659999D03*
X152562499Y-47659999D03*
D26*
X153262499Y-47659999D03*
X154037499Y-47659999D03*
%TD*%
D12*
%TO.C,R11*%
X76993750Y-100654803D03*
X76993750Y-101674803D03*
%TD*%
%TO.C,R5*%
X233725019Y-82003426D03*
X233725019Y-83023426D03*
%TD*%
D28*
%TO.C,D1*%
X151812499Y-52431249D03*
D29*
X151812499Y-54131249D03*
X149812499Y-54131249D03*
X149812499Y-52231249D03*
%TD*%
D19*
%TO.C,C10*%
X99532500Y-102393750D03*
X100492500Y-102393750D03*
%TD*%
D10*
%TO.C,C15*%
X231198594Y-93535746D03*
X231198594Y-94495746D03*
%TD*%
D23*
%TO.C,C1*%
X230274750Y-86905000D03*
X230274750Y-85945000D03*
%TD*%
D11*
%TO.C,R6*%
X149563877Y-50923798D03*
X149563877Y-49903798D03*
%TD*%
D12*
%TO.C,R14*%
X99218750Y-106796975D03*
X99218750Y-107816975D03*
%TD*%
D10*
%TO.C,C5*%
X240648105Y-93103691D03*
X240648105Y-94063691D03*
%TD*%
D18*
%TO.C,R24*%
X229073750Y-96743750D03*
X230093750Y-96743750D03*
%TD*%
D11*
%TO.C,R15*%
X108961023Y-106872499D03*
X108961023Y-105852499D03*
%TD*%
D17*
%TO.C,R20*%
X163738750Y-102393750D03*
X162718750Y-102393750D03*
%TD*%
D18*
%TO.C,R10*%
X240790000Y-89693750D03*
X241810000Y-89693750D03*
%TD*%
D30*
%TO.C,Y1*%
X238049999Y-94362499D03*
X236849999Y-94362499D03*
X235649999Y-94362499D03*
%TD*%
D16*
%TO.C,U3*%
X106955589Y-104089199D03*
X106955589Y-104739439D03*
X106955589Y-105389679D03*
X106955589Y-106039919D03*
X106955589Y-106685079D03*
X106955589Y-107335319D03*
X106955589Y-107985559D03*
X106955589Y-108635799D03*
X101006909Y-108635799D03*
X101006909Y-107985559D03*
X101006909Y-107335319D03*
X101006909Y-106685079D03*
X101006909Y-106039919D03*
X101006909Y-105389679D03*
X101006909Y-104739439D03*
X101006909Y-104089199D03*
%TD*%
D12*
%TO.C,R18*%
X125752100Y-101560183D03*
X125752100Y-102580183D03*
%TD*%
D11*
%TO.C,R3*%
X231646688Y-83023426D03*
X231646688Y-82003426D03*
%TD*%
M02*
