M48
; DRILL file {KiCad (7.0.0)} date Fri Jan 19 15:20:55 2024
; FORMAT={-:-/ absolute / inch / decimal}
; #@! TF.CreationDate,2024-01-19T15:20:55+01:00
; #@! TF.GenerationSoftware,Kicad,Pcbnew,(7.0.0)
; #@! TF.FileFunction,Plated,1,4,PTH
FMAT,2
INCH
; #@! TA.AperFunction,Plated,PTH,ViaDrill
T1C0.0157
; #@! TA.AperFunction,Plated,PTH,ComponentDrill
T2C0.0236
; #@! TA.AperFunction,Plated,PTH,ComponentDrill
T3C0.0320
; #@! TA.AperFunction,Plated,PTH,ComponentDrill
T4C0.0394
; #@! TA.AperFunction,Plated,PTH,ComponentDrill
T5C0.0591
%
G90
G05
T1
X0.75Y-2.0312
X0.8872Y-2.3783
X0.8884Y-2.3028
X0.9062Y-4.5938
X0.979Y-3.1274
X0.9806Y-3.2252
X0.9964Y-2.3783
X0.9976Y-2.3028
X1.0185Y-2.0307
X1.0185Y-4.2807
X1.0883Y-3.1274
X1.0899Y-3.2252
X1.1045Y-2.0312
X1.1045Y-4.2812
X1.1122Y-2.7807
X1.1317Y-3.8523
X1.1322Y-3.7812
X1.1639Y-3.1273
X1.1652Y-3.2252
X1.1982Y-2.7812
X1.241Y-3.8516
X1.2415Y-3.7805
X1.2542Y-3.1273
X1.2555Y-3.2252
X1.2812Y-2.3438
X1.2997Y-3.5307
X1.3374Y-3.1274
X1.3378Y-3.2254
X1.3857Y-3.5312
X1.4277Y-3.1274
X1.428Y-3.2254
X1.4375Y-3.875
X1.5243Y-3.1274
X1.5247Y-3.2254
X1.5625Y-2.7812
X1.5625Y-3.8162
X1.5836Y-3.8516
X1.6118Y-3.1274
X1.6122Y-3.2254
X1.6365Y-2.3028
X1.6365Y-2.3783
X1.6674Y-3.8516
X1.7068Y-3.1274
X1.7072Y-3.2254
X1.7457Y-2.3028
X1.7457Y-2.3783
X1.755Y-3.8516
X1.7685Y-2.0307
X1.7685Y-4.2807
X1.822Y-3.0568
X1.822Y-3.2252
X1.8223Y-3.1274
X1.8452Y-3.8516
X1.8545Y-2.0312
X1.8545Y-4.2812
X1.9312Y-3.0568
X1.9312Y-3.2252
X1.932Y-3.1274
X1.9418Y-3.8516
X1.956Y-2.7807
X2.0201Y-3.2256
X2.0205Y-3.1274
X2.0287Y-3.7762
X2.0293Y-3.8516
X2.0304Y-3.9605
X2.042Y-2.7812
X2.1076Y-3.2256
X2.108Y-3.1274
X2.1618Y-3.7762
X2.1624Y-3.8516
X2.1875Y-2.0312
X2.1979Y-3.2256
X2.1983Y-3.1274
X2.2463Y-3.8516
X2.2561Y-3.9785
X2.2945Y-3.2256
X2.2949Y-3.1274
X2.331Y-3.5307
X2.3338Y-3.8516
X2.3347Y-3.9789
X2.3811Y-2.3028
X2.382Y-3.2256
X2.3824Y-3.1274
X2.3834Y-2.3783
X2.417Y-3.5312
X2.4241Y-3.8516
X2.4249Y-3.9789
X2.477Y-3.2256
X2.4774Y-3.1274
X2.4903Y-2.3028
X2.4927Y-2.3783
X2.5185Y-2.0307
X2.5185Y-4.2807
X2.5207Y-3.8516
X2.5215Y-3.9789
X2.5649Y-3.1274
X2.565Y-3.0579
X2.5666Y-3.2252
X2.6045Y-2.0312
X2.6045Y-4.2812
X2.6082Y-3.8516
X2.6091Y-3.9789
X2.6742Y-3.1278
X2.6742Y-3.0571
X2.6758Y-3.2252
X2.7032Y-3.8516
X2.7041Y-3.9789
X2.706Y-2.7807
X2.75Y-3.5312
X2.758Y-3.1278
X2.7591Y-3.2251
X2.792Y-2.7812
X2.8047Y-3.78
X2.8052Y-3.8516
X2.8056Y-3.9784
X2.8456Y-3.1278
X2.8466Y-3.2251
X2.9355Y-4.0079
X2.9358Y-3.1278
X2.9363Y-3.8516
X2.9368Y-3.2251
X2.9378Y-3.78
X3.0202Y-3.8516
X3.0309Y-4.0368
X3.0324Y-3.1278
X3.0335Y-3.2251
X3.081Y-3.5307
X3.1077Y-3.8516
X3.1091Y-3.9908
X3.12Y-3.1278
X3.121Y-3.2251
X3.125Y-2.7812
X3.1292Y-2.3028
X3.1292Y-2.3783
X3.167Y-3.5312
X3.198Y-3.8516
X3.1993Y-3.9908
X3.215Y-3.1278
X3.216Y-3.2251
X3.2384Y-2.3028
X3.2384Y-2.3783
X3.2685Y-2.0307
X3.2946Y-3.8516
X3.2959Y-3.1274
X3.2959Y-3.9908
X3.2967Y-3.0587
X3.2967Y-3.2252
X3.3545Y-2.0312
X3.3622Y-4.2807
X3.3821Y-3.8516
X3.3834Y-3.9908
X3.3984Y-3.0582
X3.3984Y-3.2252
X3.4041Y-3.1274
X3.4482Y-4.2812
X3.456Y-2.7807
X3.4771Y-3.8516
X3.4785Y-3.9908
X3.488Y-3.1274
X3.4891Y-3.2254
X3.542Y-2.7812
X3.5638Y-3.7778
X3.5642Y-3.9912
X3.5646Y-3.8516
X3.5755Y-3.1274
X3.5766Y-3.2254
X3.6657Y-3.1274
X3.6668Y-3.2254
X3.6875Y-2.0312
X3.6892Y-3.8516
X3.69Y-3.7778
X3.7624Y-3.1274
X3.7635Y-3.2254
X3.7731Y-3.8516
X3.831Y-3.5307
X3.8499Y-3.1274
X3.851Y-3.2254
X3.8606Y-3.8516
X3.8795Y-4.0267
X3.8844Y-2.3783
X3.8868Y-2.3028
X3.9062Y-4.2845
X3.917Y-3.5312
X3.9449Y-3.1274
X3.946Y-3.2254
X3.9508Y-3.8516
X3.9748Y-3.8828
X3.9936Y-2.3783
X3.996Y-2.3028
X4.0185Y-2.0307
X4.0324Y-3.1274
X4.0325Y-3.06
X4.0325Y-3.2252
X4.0325Y-4.2194
X4.0474Y-3.8516
X4.0625Y-4.2514
X4.0856Y-4.125
X4.0938Y-4.2812
X4.1045Y-2.0312
X4.1218Y-4.2219
X4.125Y-4.125
X4.135Y-3.8516
X4.1353Y-3.7773
X4.1617Y-3.1274
X4.1618Y-3.06
X4.1618Y-3.2252
X4.206Y-2.7807
X4.23Y-3.8516
X4.2307Y-3.7789
X4.2456Y-3.1274
X4.2458Y-3.225
X4.25Y-3.5312
X4.289Y-4.1363
X4.292Y-2.7812
X4.3331Y-3.1274
X4.3333Y-3.225
X4.3438Y-4.2812
X4.3759Y-3.9503
X4.3762Y-3.7781
X4.3767Y-3.8516
X4.4233Y-3.1274
X4.4375Y-2.0312
X4.5075Y-3.9503
X4.5081Y-3.8516
X4.5093Y-3.7781
X4.5195Y-3.225
X4.52Y-3.1274
X4.581Y-3.5307
X4.5957Y-3.8516
X4.5961Y-3.9503
X4.6075Y-3.1274
X4.625Y-2.7812
X4.6278Y-2.3028
X4.6301Y-2.3783
X4.667Y-3.5312
X4.6747Y-4.2807
X4.6859Y-3.8516
X4.6864Y-3.9503
X4.702Y-3.225
X4.7025Y-3.1274
X4.737Y-2.3028
X4.7394Y-2.3783
X4.7607Y-4.2812
X4.7685Y-2.0307
X4.7825Y-3.8516
X4.783Y-3.9503
X4.79Y-3.1274
X4.7902Y-3.0461
X4.7913Y-3.225
X4.8545Y-2.0312
X4.8701Y-3.8516
X4.8705Y-3.9503
X4.9509Y-4.0764
X4.956Y-2.7807
X4.9586Y-3.1274
X4.9599Y-3.225
X4.9651Y-3.8516
X5.042Y-2.7812
X5.0622Y-3.9503
X5.0625Y-3.1274
X5.0626Y-3.8516
X5.0626Y-3.777
X5.0633Y-3.225
X5.1562Y-3.1274
X5.157Y-3.225
X5.1957Y-3.777
X5.1962Y-3.8516
X5.1963Y-3.9503
X5.2372Y-4.2807
X5.25Y-3.1274
X5.2508Y-3.225
X5.2908Y-3.9503
X5.291Y-3.8516
X5.3232Y-4.2812
X5.331Y-3.5307
X5.3438Y-3.1274
X5.3783Y-3.9503
X5.3786Y-3.8516
X5.3818Y-2.3783
X5.383Y-2.3028
X5.417Y-3.5312
X5.4375Y-3.1274
X5.4383Y-3.225
X5.4686Y-3.9503
X5.4688Y-3.8516
X5.491Y-2.3783
X5.4922Y-2.3028
X5.5185Y-2.0307
X5.5312Y-3.1274
X5.532Y-3.225
X5.5652Y-3.9503
X5.5654Y-3.8516
X5.6045Y-2.0312
X5.625Y-3.1274
X5.625Y-3.225
X5.6258Y-3.0548
X5.6527Y-3.9503
X5.6529Y-3.8516
X5.6562Y-4.2812
X5.706Y-2.7807
X5.7477Y-3.9503
X5.748Y-3.8516
X5.75Y-3.225
X5.75Y-3.5312
X5.7517Y-3.1274
X5.792Y-2.7812
X5.8348Y-3.225
X5.8352Y-3.9503
X5.8355Y-3.8516
X5.8355Y-3.1274
X5.8586Y-1.9884
X5.9191Y-3.9503
X5.9193Y-3.8516
X5.9195Y-3.7783
X5.9224Y-3.225
X5.923Y-3.1274
X6.0035Y-4.0524
X6.0069Y-3.8516
X6.0074Y-3.782
X6.0126Y-3.225
X6.0133Y-3.1274
X6.0158Y-1.9875
X6.081Y-3.5307
X6.0971Y-3.8516
X6.0973Y-3.9503
X6.1099Y-3.1274
X6.125Y-2.7812
X6.1255Y-2.3783
X6.1264Y-2.4822
X6.1267Y-2.3028
X6.167Y-3.5312
X6.1937Y-3.8516
X6.1939Y-3.9503
X6.2181Y-3.225
X6.2188Y-3.1274
X6.2188Y-4.2812
X6.2347Y-2.3783
X6.2356Y-2.4822
X6.2359Y-2.3028
X6.2685Y-2.0307
X6.2812Y-3.8516
X6.2814Y-3.9503
X6.3098Y-3.225
X6.3125Y-3.1274
X6.3138Y-3.0568
X6.3222Y-2.4822
X6.3227Y-2.3778
X6.3545Y-2.0312
X6.3726Y-4.0314
X6.4065Y-3.8516
X6.4065Y-3.7741
X6.4067Y-3.9503
X6.4097Y-2.4822
X6.4102Y-2.3778
X6.4206Y-3.225
X6.4233Y-3.1274
X6.4246Y-3.0568
X6.456Y-2.7807
X6.507Y-2.4822
X6.5072Y-3.1274
X6.5075Y-2.3778
X6.5086Y-3.225
X6.5393Y-3.8516
X6.5396Y-3.7741
X6.542Y-2.7812
X6.5497Y-4.2807
X6.5909Y-2.4822
X6.5914Y-2.3778
X6.5947Y-3.1274
X6.5961Y-3.225
X6.6232Y-3.8516
X6.6357Y-4.2812
X6.6784Y-2.4822
X6.6789Y-2.3778
X6.6849Y-3.1274
X6.6863Y-3.225
X6.7104Y-3.9503
X6.7107Y-3.8516
X6.7687Y-2.4822
X6.7691Y-2.3778
X6.7816Y-3.1274
X6.783Y-3.225
X6.8007Y-3.9503
X6.801Y-3.8516
X6.831Y-3.5307
X6.8445Y-2.4822
X6.8452Y-2.3783
X6.8464Y-2.3028
X6.8691Y-3.1274
X6.8705Y-3.225
X6.8973Y-3.9503
X6.8976Y-3.8516
X6.917Y-3.5312
X6.9538Y-2.4822
X6.9544Y-2.3783
X6.9556Y-2.3028
X6.9641Y-3.1274
X6.9655Y-3.225
X6.9688Y-4.2812
X6.9848Y-3.9503
X6.9851Y-3.8516
X7.0185Y-2.0307
X7.0461Y-3.0568
X7.0516Y-3.1274
X7.0523Y-3.225
X7.0546Y-2.3778
X7.0573Y-2.4822
X7.1045Y-2.0312
X7.1374Y-3.9958
X7.1421Y-2.3778
X7.1448Y-2.4822
X7.1525Y-3.1274
X7.1532Y-3.225
X7.1569Y-3.0568
X7.1682Y-3.7802
X7.1875Y-3.8745
X7.206Y-2.7807
X7.2363Y-3.225
X7.2363Y-3.1274
X7.2395Y-2.3778
X7.2421Y-2.4822
X7.2763Y-4.1848
X7.2781Y-3.7786
X7.292Y-2.7812
X7.302Y-3.9138
X7.3067Y-4.4801
X7.3076Y-4.5201
X7.3084Y-4.5603
X7.3224Y-4.1232
X7.3233Y-2.3778
X7.3238Y-3.225
X7.3238Y-3.1274
X7.326Y-2.4822
X7.3639Y-4.1207
X7.3673Y-4.25
X7.3733Y-3.7802
X7.4108Y-2.3778
X7.4135Y-2.4822
X7.414Y-3.225
X7.4141Y-3.1274
X7.4375Y-2.0312
X7.4516Y-3.7813
X7.4688Y-4.4688
X7.5011Y-2.3778
X7.5034Y-4.2237
X7.5038Y-2.4822
X7.5107Y-3.1274
X7.581Y-3.5307
X7.5829Y-3.8516
X7.5948Y-2.4822
X7.5967Y-2.3028
X7.5982Y-3.1274
X7.5992Y-2.3774
X7.625Y-2.7812
X7.667Y-3.5312
X7.6704Y-3.8516
X7.6932Y-3.1274
X7.7041Y-2.4822
X7.7048Y-2.3783
X7.706Y-2.3028
X7.7685Y-2.0307
X7.773Y-3.8516
X7.7757Y-3.9444
X7.7795Y-3.225
X7.7808Y-3.1274
X7.7829Y-2.3774
X7.7841Y-2.4822
X7.8545Y-2.0312
X7.8568Y-3.8516
X7.8596Y-3.9444
X7.8668Y-2.3774
X7.8716Y-2.4822
X7.905Y-3.225
X7.9062Y-3.1274
X7.9444Y-3.8516
X7.9471Y-3.9444
X7.9543Y-2.3774
X7.956Y-2.7807
X7.956Y-4.2807
X7.9689Y-2.4822
X7.9993Y-3.225
X8.0Y-3.1274
X8.0346Y-3.8516
X8.0373Y-3.9444
X8.042Y-2.7812
X8.042Y-4.2812
X8.0516Y-2.3774
X8.0528Y-2.4822
X8.1141Y-3.225
X8.1148Y-3.1274
X8.1312Y-3.8516
X8.1339Y-3.9444
X8.1355Y-2.3774
X8.1403Y-2.4822
X8.2044Y-3.225
X8.205Y-3.1274
X8.218Y-3.7803
X8.2188Y-3.8516
X8.2228Y-3.9444
X8.223Y-2.3774
X8.2306Y-2.4822
X8.3017Y-3.1274
X8.312Y-2.4822
X8.3125Y-2.3783
X8.331Y-3.5307
X8.3518Y-3.8516
X8.375Y-4.2812
X8.3934Y-2.4822
X8.3961Y-2.3064
X8.3963Y-2.3783
X8.4062Y-3.1274
X8.417Y-3.5312
X8.4356Y-3.8516
X8.4375Y-3.9444
X8.4834Y-2.3091
X8.4838Y-2.3783
X8.4879Y-2.4822
X8.5185Y-2.0307
X8.5232Y-3.8516
X8.525Y-3.9444
X8.5312Y-3.1274
X8.5316Y-3.225
X8.5713Y-2.4822
X8.5741Y-2.3783
X8.6045Y-2.0312
X8.6223Y-3.7812
X8.6231Y-3.8516
X8.625Y-3.0568
X8.625Y-3.1274
X8.6253Y-3.225
X8.6278Y-3.9444
X8.6588Y-2.4822
X8.6676Y-2.3783
X8.706Y-2.7807
X8.7514Y-2.3783
X8.7644Y-3.1274
X8.7647Y-3.225
X8.766Y-3.2961
X8.7661Y-3.8844
X8.7812Y-3.5625
X8.792Y-2.7812
X8.8043Y-4.0868
X8.839Y-2.3783
X8.84Y-2.4822
X8.8438Y-3.5625
X8.8482Y-3.1274
X8.8485Y-3.225
X8.8499Y-3.2961
X8.8499Y-3.8844
X8.9275Y-2.4822
X8.9357Y-3.1274
X8.9361Y-3.225
X8.9363Y-2.3783
X8.9374Y-3.2961
X8.9375Y-3.8844
X8.9375Y-3.6875
X8.9975Y-3.3663
X9.0178Y-2.4822
X9.0202Y-2.3783
X9.025Y-3.0541
X9.026Y-3.1274
X9.0263Y-3.225
X9.0276Y-3.2961
X9.0277Y-3.8844
X9.081Y-4.2807
X9.0938Y-3.0938
X9.1045Y-3.3583
X9.1074Y-3.7603
X9.1077Y-2.3783
X9.1095Y-3.6464
X9.1117Y-2.4822
X9.1125Y-3.0541
X9.125Y-2.6875
X9.167Y-4.2812
X9.1875Y-2.4822
X9.1875Y-2.5625
X9.1875Y-2.9688
X9.1875Y-3.0562
X9.1875Y-3.1303
X9.1979Y-2.3783
X9.2051Y-3.8516
X9.2054Y-3.9281
X9.2188Y-2.0312
X9.2463Y-3.4963
X9.2473Y-2.75
X9.2473Y-3.1875
X9.2926Y-3.8516
X9.2929Y-3.9281
X9.3438Y-2.4688
X9.3438Y-2.5625
X9.3438Y-2.6562
X9.3438Y-2.7812
X9.3438Y-2.875
X9.3438Y-2.9688
X9.3438Y-3.2188
X9.3446Y-3.2982
X9.3451Y-3.1287
X9.3457Y-3.0574
X9.3638Y-2.3783
X9.365Y-2.3028
X9.3857Y-3.3574
X9.3899Y-3.8516
X9.3903Y-3.9281
X9.3953Y-3.6351
X9.4062Y-3.782
X9.4327Y-3.1287
X9.4332Y-3.0574
X9.4375Y-3.2188
X9.4455Y-3.5445
X9.4581Y-3.3978
X9.473Y-2.3783
X9.4742Y-2.3028
X9.4747Y-3.7822
X9.4753Y-3.8501
X9.4753Y-3.9271
X9.4889Y-3.5672
X9.4889Y-3.4223
X9.5121Y-3.4541
X9.5182Y-3.1308
X9.5188Y-3.0596
X9.5306Y-3.2789
X9.5312Y-3.2188
X9.5497Y-2.0307
X9.5814Y-3.8521
X9.5819Y-3.9273
X9.5821Y-3.7817
X9.5822Y-3.6307
X9.5822Y-3.7036
X9.6357Y-2.0312
X9.6417Y-3.132
X9.6435Y-2.7807
X9.6666Y-3.852
X9.6666Y-3.9285
X9.6666Y-4.0134
X9.6669Y-3.7817
X9.7292Y-3.132
X9.7295Y-2.7812
X9.7999Y-3.8516
X9.8148Y-3.1341
X9.831Y-4.2807
X9.833Y-3.5313
X9.8838Y-3.8516
X9.917Y-4.2812
X9.919Y-3.5318
X9.9713Y-3.8516
X10.0616Y-3.8516
X10.25Y-2.0312
X10.25Y-2.7812
X10.2768Y-4.0633
X10.2989Y-3.2658
X10.2992Y-3.1359
X10.3851Y-3.1352
X10.3883Y-3.265
X10.4168Y-3.906
X10.4375Y-1.8125
X10.5312Y-1.8125
X10.5531Y-3.1469
X10.5696Y-2.405
X10.5837Y-4.2806
X10.5938Y-3.25
X10.625Y-3.9062
X10.6562Y-1.8125
X10.667Y-4.2812
X10.6702Y-2.4062
X10.8348Y-3.9059
X10.9375Y-4.2812
T3
X10.4379Y-1.75
X10.5379Y-1.75
X10.6379Y-1.75
X10.7379Y-1.75
T4
X8.5625Y-4.2311
X8.5625Y-4.3311
X10.5266Y-3.2557
X10.5266Y-3.8265
X10.625Y-3.8265
X10.7234Y-3.2557
X10.7234Y-3.8265
T2
G00X5.7674Y-1.664
M15
G01X5.7674Y-1.6876
M16
G05
G00X5.7674Y-1.8187
M15
G01X5.7674Y-1.862
M16
G05
G00X6.1076Y-1.664
M15
G01X6.1076Y-1.6876
M16
G05
G00X6.1076Y-1.8187
M15
G01X6.1076Y-1.862
M16
G05
T5
G00X10.4045Y-3.5568
M15
G01X10.4045Y-3.5057
M16
G05
G00X10.8455Y-3.5568
M15
G01X10.8455Y-3.5057
M16
G05
T0
M30
