%TF.GenerationSoftware,KiCad,Pcbnew,8.0.8*%
%TF.CreationDate,2025-02-20T20:20:05+01:00*%
%TF.ProjectId,oceanographer EC,6f636561-6e6f-4677-9261-706865722045,rev?*%
%TF.SameCoordinates,Original*%
%TF.FileFunction,Profile,NP*%
%FSLAX46Y46*%
G04 Gerber Fmt 4.6, Leading zero omitted, Abs format (unit mm)*
G04 Created by KiCad (PCBNEW 8.0.8) date 2025-02-20 20:20:05*
%MOMM*%
%LPD*%
G01*
G04 APERTURE LIST*
%TA.AperFunction,Profile*%
%ADD10C,0.100000*%
%TD*%
G04 APERTURE END LIST*
D10*
X277257266Y-43097276D02*
X277151784Y-43049588D01*
X278557784Y-44763837D02*
X278531195Y-44648628D01*
X278461668Y-44424982D02*
X278419031Y-44316844D01*
X277987551Y-43642622D02*
X277908703Y-43559921D01*
X277908669Y-116777511D02*
X277987516Y-116694814D01*
X18443324Y-44316865D02*
X18400689Y-44425001D01*
X18953597Y-116777426D02*
X19036290Y-116856271D01*
X276587516Y-117447511D02*
X276704780Y-117426570D01*
X19502313Y-117187479D02*
X19604982Y-117240070D01*
X278603065Y-45121209D02*
X278593869Y-45000277D01*
X20637400Y-42862550D02*
X145653092Y-42862550D01*
X277908703Y-43559921D02*
X277826003Y-43481073D01*
X278318723Y-116228771D02*
X278371312Y-116126099D01*
X276933001Y-42969512D02*
X276820000Y-42937422D01*
X278606163Y-45243750D02*
X278603065Y-45121209D01*
X19818657Y-43006973D02*
X19710522Y-43049613D01*
X19212683Y-43335565D02*
X19122729Y-43406259D01*
X278261384Y-116328489D02*
X278318723Y-116228771D01*
X278557766Y-115573644D02*
X278578711Y-115456382D01*
X18304577Y-44763849D02*
X18283636Y-44881112D01*
X19929223Y-117367845D02*
X20042217Y-117399940D01*
X277359917Y-117187549D02*
X277459636Y-117130213D01*
X18256200Y-115093747D02*
X18256200Y-45243750D01*
X19036290Y-116856271D02*
X19122687Y-116931115D01*
X278603059Y-115216284D02*
X278606163Y-115093747D01*
X19036328Y-43481104D02*
X18953631Y-43559952D01*
X278606163Y-115093747D02*
X278606163Y-45243750D01*
X18259298Y-45121212D02*
X18256200Y-45243750D01*
X20514768Y-117471841D02*
X20637302Y-117474950D01*
X19605044Y-43097303D02*
X19502371Y-43149892D01*
X19604982Y-117240070D02*
X19710456Y-117287761D01*
X276820000Y-42937422D02*
X276704791Y-42910832D01*
X278062360Y-116608414D02*
X278133053Y-116518459D01*
X276224968Y-117474950D02*
X20637400Y-117474950D01*
X18543595Y-44108710D02*
X18491009Y-44211385D01*
X276704780Y-117426570D02*
X276819986Y-117399981D01*
X19929298Y-42969532D02*
X19818657Y-43006973D01*
X20637400Y-42862450D02*
X20514862Y-42865553D01*
X19305991Y-117068198D02*
X19402600Y-117130139D01*
X19122687Y-116931115D02*
X19212637Y-117001807D01*
X276468351Y-42874746D02*
X276347418Y-42865549D01*
X277826003Y-43481073D02*
X277739599Y-43406228D01*
X20157418Y-117426536D02*
X20274676Y-117447485D01*
X18953631Y-43559952D02*
X18874787Y-43642653D01*
X277739599Y-43406228D02*
X277649641Y-43335535D01*
X19710522Y-43049613D02*
X19605044Y-43097303D01*
X18662846Y-116425018D02*
X18729231Y-116518375D01*
X278199479Y-43912347D02*
X278133088Y-43818985D01*
X276347415Y-117471851D02*
X276468345Y-117462655D01*
X20274676Y-117447485D02*
X20393843Y-117462637D01*
X20157500Y-42910847D02*
X20042295Y-42937440D01*
X277459663Y-43207203D02*
X277359942Y-43149864D01*
X278419031Y-44316844D02*
X278371344Y-44211361D01*
X277649641Y-43335535D02*
X277556280Y-43269143D01*
X276347418Y-42865549D02*
X276224877Y-42862450D01*
X277459636Y-117130213D02*
X277556250Y-117068276D01*
X20393843Y-117462637D02*
X20514768Y-117471841D01*
X277151784Y-43049588D02*
X277043646Y-43006950D01*
X277556280Y-43269143D02*
X277459663Y-43207203D01*
X155971779Y-42862550D02*
X155971779Y-42068750D01*
X277151762Y-117287821D02*
X277257242Y-117240135D01*
X278499081Y-115801846D02*
X278531172Y-115688849D01*
X278578711Y-115456382D02*
X278593859Y-115337212D01*
X276468345Y-117462655D02*
X276587516Y-117447511D01*
X278199444Y-116425101D02*
X278261384Y-116328489D01*
X278062395Y-43729027D02*
X277987551Y-43642622D01*
X277739567Y-116931198D02*
X277825969Y-116856356D01*
X278371312Y-116126099D02*
X278419001Y-116020621D01*
X18662867Y-43912374D02*
X18600930Y-44008990D01*
X18729255Y-43819013D02*
X18662867Y-43912374D01*
X278261418Y-44008963D02*
X278199479Y-43912347D01*
X19122729Y-43406259D02*
X19036328Y-43481104D01*
X18600913Y-116328408D02*
X18662846Y-116425018D01*
X18799945Y-43729056D02*
X18729255Y-43819013D01*
X278133088Y-43818985D02*
X278062395Y-43729027D01*
X276819986Y-117399981D02*
X276932984Y-117367893D01*
X276224877Y-117474950D02*
X276347415Y-117471851D01*
X18283636Y-44881112D02*
X18268494Y-45000283D01*
X18283635Y-115456350D02*
X18304574Y-115573603D01*
X18729231Y-116518375D02*
X18799918Y-116608328D01*
X20514862Y-42865553D02*
X20393933Y-42874754D01*
X278371344Y-44211361D02*
X278318756Y-44108685D01*
X18268494Y-45000283D02*
X18259298Y-45121212D01*
X145653092Y-42068750D02*
X145653092Y-42862550D01*
X18400681Y-115912423D02*
X18443314Y-116020552D01*
X277043627Y-117330457D02*
X277151762Y-117287821D01*
X18331161Y-115688799D02*
X18363247Y-115801789D01*
X18490997Y-116126025D02*
X18543580Y-116228694D01*
X18799918Y-116608328D02*
X18874756Y-116694728D01*
X18600930Y-44008990D02*
X18543595Y-44108710D01*
X18400689Y-44425001D02*
X18363253Y-44535644D01*
X19710456Y-117287761D02*
X19818587Y-117330402D01*
X18543580Y-116228694D02*
X18600913Y-116328408D01*
X18304574Y-115573603D02*
X18331161Y-115688799D01*
X145653092Y-42068750D02*
X155971779Y-42068750D01*
X18268493Y-115337190D02*
X18283635Y-115456350D01*
X19818587Y-117330402D02*
X19929223Y-117367845D01*
X19306041Y-43269173D02*
X19212683Y-43335565D01*
X277257242Y-117240135D02*
X277359917Y-117187549D01*
X19502371Y-43149892D02*
X19402654Y-43207232D01*
X18363247Y-115801789D02*
X18400681Y-115912423D01*
X277043646Y-43006950D02*
X276933001Y-42969512D01*
X278133053Y-116518459D02*
X278199444Y-116425101D01*
X19402654Y-43207232D02*
X19306041Y-43269173D01*
X20042217Y-117399940D02*
X20157418Y-117426536D01*
X278419001Y-116020621D02*
X278461640Y-115912486D01*
X278499106Y-44535627D02*
X278461668Y-44424982D01*
X18874787Y-43642653D02*
X18799945Y-43729056D01*
X20393933Y-42874754D02*
X20274763Y-42889902D01*
X278593869Y-45000277D02*
X278578726Y-44881103D01*
X18491009Y-44211385D02*
X18443324Y-44316865D01*
X18443314Y-116020552D02*
X18490997Y-116126025D01*
X276587525Y-42889890D02*
X276468351Y-42874746D01*
X19402600Y-117130139D02*
X19502313Y-117187479D01*
X155971779Y-42862550D02*
X276224968Y-42862550D01*
X18363253Y-44535644D02*
X18331165Y-44648643D01*
X277556250Y-117068276D02*
X277649610Y-117001888D01*
X276704791Y-42910832D02*
X276587525Y-42889890D01*
X18256200Y-115093747D02*
X18259298Y-115216272D01*
X18874756Y-116694728D02*
X18953597Y-116777426D01*
X18331165Y-44648643D02*
X18304577Y-44763849D01*
X20274763Y-42889902D02*
X20157500Y-42910847D01*
X277825969Y-116856356D02*
X277908669Y-116777511D01*
X277359942Y-43149864D02*
X277257266Y-43097276D01*
X278531172Y-115688849D02*
X278557766Y-115573644D01*
X18259298Y-115216272D02*
X18268493Y-115337190D01*
X278318756Y-44108685D02*
X278261418Y-44008963D01*
X277987516Y-116694814D02*
X278062360Y-116608414D01*
X277649610Y-117001888D02*
X277739567Y-116931198D01*
X278578726Y-44881103D02*
X278557784Y-44763837D01*
X19212637Y-117001807D02*
X19305991Y-117068198D01*
X278531195Y-44648628D02*
X278499106Y-44535627D01*
X278461640Y-115912486D02*
X278499081Y-115801846D01*
X276932984Y-117367893D02*
X277043627Y-117330457D01*
X278593859Y-115337212D02*
X278603059Y-115216284D01*
X20042295Y-42937440D02*
X19929298Y-42969532D01*
M02*
