%TF.GenerationSoftware,KiCad,Pcbnew,8.0.8*%
%TF.CreationDate,2025-02-20T20:20:05+01:00*%
%TF.ProjectId,oceanographer EC,6f636561-6e6f-4677-9261-706865722045,rev?*%
%TF.SameCoordinates,Original*%
%TF.FileFunction,Legend,Top*%
%TF.FilePolarity,Positive*%
%FSLAX46Y46*%
G04 Gerber Fmt 4.6, Leading zero omitted, Abs format (unit mm)*
G04 Created by KiCad (PCBNEW 8.0.8) date 2025-02-20 20:20:05*
%MOMM*%
%LPD*%
G01*
G04 APERTURE LIST*
%ADD10C,0.150000*%
%ADD11C,0.900000*%
%ADD12C,0.000000*%
%ADD13C,0.120000*%
%ADD14C,2.200000*%
%ADD15C,1.397000*%
%ADD16R,1.700000X1.700000*%
%ADD17O,1.700000X1.700000*%
%ADD18C,0.650000*%
%ADD19O,1.000000X1.600000*%
%ADD20O,1.000000X2.100000*%
G04 APERTURE END LIST*
D10*
X271895534Y-47155450D02*
X271971725Y-47193545D01*
X271971725Y-47193545D02*
X272124106Y-47193545D01*
X272124106Y-47193545D02*
X272200296Y-47155450D01*
X272200296Y-47155450D02*
X272238392Y-47079259D01*
X272238392Y-47079259D02*
X272238392Y-47041164D01*
X272238392Y-47041164D02*
X272200296Y-46964973D01*
X272200296Y-46964973D02*
X272124106Y-46926878D01*
X272124106Y-46926878D02*
X272009820Y-46926878D01*
X272009820Y-46926878D02*
X271933630Y-46888783D01*
X271933630Y-46888783D02*
X271895534Y-46812592D01*
X271895534Y-46812592D02*
X271895534Y-46774497D01*
X271895534Y-46774497D02*
X271933630Y-46698307D01*
X271933630Y-46698307D02*
X272009820Y-46660211D01*
X272009820Y-46660211D02*
X272124106Y-46660211D01*
X272124106Y-46660211D02*
X272200296Y-46698307D01*
X272924106Y-47193545D02*
X272924106Y-46393545D01*
X272924106Y-47155450D02*
X272847915Y-47193545D01*
X272847915Y-47193545D02*
X272695534Y-47193545D01*
X272695534Y-47193545D02*
X272619344Y-47155450D01*
X272619344Y-47155450D02*
X272581249Y-47117354D01*
X272581249Y-47117354D02*
X272543153Y-47041164D01*
X272543153Y-47041164D02*
X272543153Y-46812592D01*
X272543153Y-46812592D02*
X272581249Y-46736402D01*
X272581249Y-46736402D02*
X272619344Y-46698307D01*
X272619344Y-46698307D02*
X272695534Y-46660211D01*
X272695534Y-46660211D02*
X272847915Y-46660211D01*
X272847915Y-46660211D02*
X272924106Y-46698307D01*
X273647916Y-47193545D02*
X273647916Y-46774497D01*
X273647916Y-46774497D02*
X273609821Y-46698307D01*
X273609821Y-46698307D02*
X273533630Y-46660211D01*
X273533630Y-46660211D02*
X273381249Y-46660211D01*
X273381249Y-46660211D02*
X273305059Y-46698307D01*
X273647916Y-47155450D02*
X273571725Y-47193545D01*
X273571725Y-47193545D02*
X273381249Y-47193545D01*
X273381249Y-47193545D02*
X273305059Y-47155450D01*
X273305059Y-47155450D02*
X273266963Y-47079259D01*
X273266963Y-47079259D02*
X273266963Y-47003069D01*
X273266963Y-47003069D02*
X273305059Y-46926878D01*
X273305059Y-46926878D02*
X273381249Y-46888783D01*
X273381249Y-46888783D02*
X273571725Y-46888783D01*
X273571725Y-46888783D02*
X273647916Y-46850688D01*
X269483065Y-47145186D02*
X269559256Y-47183281D01*
X269559256Y-47183281D02*
X269711637Y-47183281D01*
X269711637Y-47183281D02*
X269787827Y-47145186D01*
X269787827Y-47145186D02*
X269825923Y-47068995D01*
X269825923Y-47068995D02*
X269825923Y-47030900D01*
X269825923Y-47030900D02*
X269787827Y-46954709D01*
X269787827Y-46954709D02*
X269711637Y-46916614D01*
X269711637Y-46916614D02*
X269597351Y-46916614D01*
X269597351Y-46916614D02*
X269521161Y-46878519D01*
X269521161Y-46878519D02*
X269483065Y-46802328D01*
X269483065Y-46802328D02*
X269483065Y-46764233D01*
X269483065Y-46764233D02*
X269521161Y-46688043D01*
X269521161Y-46688043D02*
X269597351Y-46649947D01*
X269597351Y-46649947D02*
X269711637Y-46649947D01*
X269711637Y-46649947D02*
X269787827Y-46688043D01*
X270511637Y-47145186D02*
X270435446Y-47183281D01*
X270435446Y-47183281D02*
X270283065Y-47183281D01*
X270283065Y-47183281D02*
X270206875Y-47145186D01*
X270206875Y-47145186D02*
X270168780Y-47107090D01*
X270168780Y-47107090D02*
X270130684Y-47030900D01*
X270130684Y-47030900D02*
X270130684Y-46802328D01*
X270130684Y-46802328D02*
X270168780Y-46726138D01*
X270168780Y-46726138D02*
X270206875Y-46688043D01*
X270206875Y-46688043D02*
X270283065Y-46649947D01*
X270283065Y-46649947D02*
X270435446Y-46649947D01*
X270435446Y-46649947D02*
X270511637Y-46688043D01*
X270968779Y-47183281D02*
X270892589Y-47145186D01*
X270892589Y-47145186D02*
X270854494Y-47068995D01*
X270854494Y-47068995D02*
X270854494Y-46383281D01*
X267315618Y-46888783D02*
X267925142Y-46888783D01*
X267620380Y-47193545D02*
X267620380Y-46584021D01*
X264807738Y-46888783D02*
X265417262Y-46888783D01*
X268090774Y-47981045D02*
X268243155Y-47981045D01*
X268243155Y-47981045D02*
X268319345Y-48019140D01*
X268319345Y-48019140D02*
X268395536Y-48095330D01*
X268395536Y-48095330D02*
X268433631Y-48247711D01*
X268433631Y-48247711D02*
X268433631Y-48514378D01*
X268433631Y-48514378D02*
X268395536Y-48666759D01*
X268395536Y-48666759D02*
X268319345Y-48742950D01*
X268319345Y-48742950D02*
X268243155Y-48781045D01*
X268243155Y-48781045D02*
X268090774Y-48781045D01*
X268090774Y-48781045D02*
X268014583Y-48742950D01*
X268014583Y-48742950D02*
X267938393Y-48666759D01*
X267938393Y-48666759D02*
X267900297Y-48514378D01*
X267900297Y-48514378D02*
X267900297Y-48247711D01*
X267900297Y-48247711D02*
X267938393Y-48095330D01*
X267938393Y-48095330D02*
X268014583Y-48019140D01*
X268014583Y-48019140D02*
X268090774Y-47981045D01*
X268890773Y-48781045D02*
X268814583Y-48742950D01*
X268814583Y-48742950D02*
X268776488Y-48666759D01*
X268776488Y-48666759D02*
X268776488Y-47981045D01*
X269500298Y-48742950D02*
X269424107Y-48781045D01*
X269424107Y-48781045D02*
X269271726Y-48781045D01*
X269271726Y-48781045D02*
X269195536Y-48742950D01*
X269195536Y-48742950D02*
X269157440Y-48666759D01*
X269157440Y-48666759D02*
X269157440Y-48361997D01*
X269157440Y-48361997D02*
X269195536Y-48285807D01*
X269195536Y-48285807D02*
X269271726Y-48247711D01*
X269271726Y-48247711D02*
X269424107Y-48247711D01*
X269424107Y-48247711D02*
X269500298Y-48285807D01*
X269500298Y-48285807D02*
X269538393Y-48361997D01*
X269538393Y-48361997D02*
X269538393Y-48438188D01*
X269538393Y-48438188D02*
X269157440Y-48514378D01*
X270224107Y-48781045D02*
X270224107Y-47981045D01*
X270224107Y-48742950D02*
X270147916Y-48781045D01*
X270147916Y-48781045D02*
X269995535Y-48781045D01*
X269995535Y-48781045D02*
X269919345Y-48742950D01*
X269919345Y-48742950D02*
X269881250Y-48704854D01*
X269881250Y-48704854D02*
X269843154Y-48628664D01*
X269843154Y-48628664D02*
X269843154Y-48400092D01*
X269843154Y-48400092D02*
X269881250Y-48323902D01*
X269881250Y-48323902D02*
X269919345Y-48285807D01*
X269919345Y-48285807D02*
X269995535Y-48247711D01*
X269995535Y-48247711D02*
X270147916Y-48247711D01*
X270147916Y-48247711D02*
X270224107Y-48285807D01*
X229576488Y-56017319D02*
X229576488Y-55017319D01*
X229576488Y-55398271D02*
X229671726Y-55350652D01*
X229671726Y-55350652D02*
X229862202Y-55350652D01*
X229862202Y-55350652D02*
X229957440Y-55398271D01*
X229957440Y-55398271D02*
X230005059Y-55445890D01*
X230005059Y-55445890D02*
X230052678Y-55541128D01*
X230052678Y-55541128D02*
X230052678Y-55826842D01*
X230052678Y-55826842D02*
X230005059Y-55922080D01*
X230005059Y-55922080D02*
X229957440Y-55969700D01*
X229957440Y-55969700D02*
X229862202Y-56017319D01*
X229862202Y-56017319D02*
X229671726Y-56017319D01*
X229671726Y-56017319D02*
X229576488Y-55969700D01*
X230624107Y-56017319D02*
X230528869Y-55969700D01*
X230528869Y-55969700D02*
X230481250Y-55922080D01*
X230481250Y-55922080D02*
X230433631Y-55826842D01*
X230433631Y-55826842D02*
X230433631Y-55541128D01*
X230433631Y-55541128D02*
X230481250Y-55445890D01*
X230481250Y-55445890D02*
X230528869Y-55398271D01*
X230528869Y-55398271D02*
X230624107Y-55350652D01*
X230624107Y-55350652D02*
X230766964Y-55350652D01*
X230766964Y-55350652D02*
X230862202Y-55398271D01*
X230862202Y-55398271D02*
X230909821Y-55445890D01*
X230909821Y-55445890D02*
X230957440Y-55541128D01*
X230957440Y-55541128D02*
X230957440Y-55826842D01*
X230957440Y-55826842D02*
X230909821Y-55922080D01*
X230909821Y-55922080D02*
X230862202Y-55969700D01*
X230862202Y-55969700D02*
X230766964Y-56017319D01*
X230766964Y-56017319D02*
X230624107Y-56017319D01*
X231528869Y-56017319D02*
X231433631Y-55969700D01*
X231433631Y-55969700D02*
X231386012Y-55922080D01*
X231386012Y-55922080D02*
X231338393Y-55826842D01*
X231338393Y-55826842D02*
X231338393Y-55541128D01*
X231338393Y-55541128D02*
X231386012Y-55445890D01*
X231386012Y-55445890D02*
X231433631Y-55398271D01*
X231433631Y-55398271D02*
X231528869Y-55350652D01*
X231528869Y-55350652D02*
X231671726Y-55350652D01*
X231671726Y-55350652D02*
X231766964Y-55398271D01*
X231766964Y-55398271D02*
X231814583Y-55445890D01*
X231814583Y-55445890D02*
X231862202Y-55541128D01*
X231862202Y-55541128D02*
X231862202Y-55826842D01*
X231862202Y-55826842D02*
X231814583Y-55922080D01*
X231814583Y-55922080D02*
X231766964Y-55969700D01*
X231766964Y-55969700D02*
X231671726Y-56017319D01*
X231671726Y-56017319D02*
X231528869Y-56017319D01*
X232147917Y-55350652D02*
X232528869Y-55350652D01*
X232290774Y-55017319D02*
X232290774Y-55874461D01*
X232290774Y-55874461D02*
X232338393Y-55969700D01*
X232338393Y-55969700D02*
X232433631Y-56017319D01*
X232433631Y-56017319D02*
X232528869Y-56017319D01*
X268884524Y-94399497D02*
X269151190Y-94399497D01*
X269265476Y-94818545D02*
X268884524Y-94818545D01*
X268884524Y-94818545D02*
X268884524Y-94018545D01*
X268884524Y-94018545D02*
X269265476Y-94018545D01*
X269608334Y-94818545D02*
X269608334Y-94018545D01*
X269608334Y-94018545D02*
X270065477Y-94818545D01*
X270065477Y-94818545D02*
X270065477Y-94018545D01*
X270903572Y-94742354D02*
X270865476Y-94780450D01*
X270865476Y-94780450D02*
X270751191Y-94818545D01*
X270751191Y-94818545D02*
X270675000Y-94818545D01*
X270675000Y-94818545D02*
X270560714Y-94780450D01*
X270560714Y-94780450D02*
X270484524Y-94704259D01*
X270484524Y-94704259D02*
X270446429Y-94628069D01*
X270446429Y-94628069D02*
X270408333Y-94475688D01*
X270408333Y-94475688D02*
X270408333Y-94361402D01*
X270408333Y-94361402D02*
X270446429Y-94209021D01*
X270446429Y-94209021D02*
X270484524Y-94132830D01*
X270484524Y-94132830D02*
X270560714Y-94056640D01*
X270560714Y-94056640D02*
X270675000Y-94018545D01*
X270675000Y-94018545D02*
X270751191Y-94018545D01*
X270751191Y-94018545D02*
X270865476Y-94056640D01*
X270865476Y-94056640D02*
X270903572Y-94094735D01*
D11*
%TO.C,SW_EC24*%
X252529500Y-70643750D02*
G75*
G02*
X239595500Y-70643750I-6467000J0D01*
G01*
X239595500Y-70643750D02*
G75*
G02*
X252529500Y-70643750I6467000J0D01*
G01*
%TO.C,SW_EC28*%
X104892000Y-89693750D02*
G75*
G02*
X91958000Y-89693750I-6467000J0D01*
G01*
X91958000Y-89693750D02*
G75*
G02*
X104892000Y-89693750I6467000J0D01*
G01*
%TO.C,SW_EC47*%
X276342000Y-108743750D02*
G75*
G02*
X263408000Y-108743750I-6467000J0D01*
G01*
X263408000Y-108743750D02*
G75*
G02*
X276342000Y-108743750I6467000J0D01*
G01*
%TO.C,SW_EC37*%
X33454500Y-108743750D02*
G75*
G02*
X20520500Y-108743750I-6467000J0D01*
G01*
X20520500Y-108743750D02*
G75*
G02*
X33454500Y-108743750I6467000J0D01*
G01*
%TO.C,SW_EC26*%
X66792000Y-89693750D02*
G75*
G02*
X53858000Y-89693750I-6467000J0D01*
G01*
X53858000Y-89693750D02*
G75*
G02*
X66792000Y-89693750I6467000J0D01*
G01*
%TO.C,SW_EC4*%
X90604500Y-51593750D02*
G75*
G02*
X77670500Y-51593750I-6467000J0D01*
G01*
X77670500Y-51593750D02*
G75*
G02*
X90604500Y-51593750I6467000J0D01*
G01*
%TO.C,SW_EC6*%
X128704500Y-51593750D02*
G75*
G02*
X115770500Y-51593750I-6467000J0D01*
G01*
X115770500Y-51593750D02*
G75*
G02*
X128704500Y-51593750I6467000J0D01*
G01*
%TO.C,SW_EC12*%
X250148250Y-51593750D02*
G75*
G02*
X237214250Y-51593750I-6467000J0D01*
G01*
X237214250Y-51593750D02*
G75*
G02*
X250148250Y-51593750I6467000J0D01*
G01*
%TO.C,SW_EC19*%
X152517000Y-70643750D02*
G75*
G02*
X139583000Y-70643750I-6467000J0D01*
G01*
X139583000Y-70643750D02*
G75*
G02*
X152517000Y-70643750I6467000J0D01*
G01*
%TO.C,SW_EC11*%
X223954500Y-51593750D02*
G75*
G02*
X211020500Y-51593750I-6467000J0D01*
G01*
X211020500Y-51593750D02*
G75*
G02*
X223954500Y-51593750I6467000J0D01*
G01*
%TO.C,SW_EC18*%
X133467000Y-70643750D02*
G75*
G02*
X120533000Y-70643750I-6467000J0D01*
G01*
X120533000Y-70643750D02*
G75*
G02*
X133467000Y-70643750I6467000J0D01*
G01*
%TO.C,SW_EC46*%
X257292000Y-108743750D02*
G75*
G02*
X244358000Y-108743750I-6467000J0D01*
G01*
X244358000Y-108743750D02*
G75*
G02*
X257292000Y-108743750I6467000J0D01*
G01*
%TO.C,SW_EC38*%
X52504500Y-108743750D02*
G75*
G02*
X39570500Y-108743750I-6467000J0D01*
G01*
X39570500Y-108743750D02*
G75*
G02*
X52504500Y-108743750I6467000J0D01*
G01*
%TO.C,SW_EC27*%
X85842000Y-89693750D02*
G75*
G02*
X72908000Y-89693750I-6467000J0D01*
G01*
X72908000Y-89693750D02*
G75*
G02*
X85842000Y-89693750I6467000J0D01*
G01*
%TO.C,SW_EC29*%
X123942000Y-89693750D02*
G75*
G02*
X111008000Y-89693750I-6467000J0D01*
G01*
X111008000Y-89693750D02*
G75*
G02*
X123942000Y-89693750I6467000J0D01*
G01*
%TO.C,SW_EC16*%
X95367000Y-70643750D02*
G75*
G02*
X82433000Y-70643750I-6467000J0D01*
G01*
X82433000Y-70643750D02*
G75*
G02*
X95367000Y-70643750I6467000J0D01*
G01*
%TO.C,SW_EC17*%
X114417000Y-70643750D02*
G75*
G02*
X101483000Y-70643750I-6467000J0D01*
G01*
X101483000Y-70643750D02*
G75*
G02*
X114417000Y-70643750I6467000J0D01*
G01*
D12*
%TO.C,G\u002A\u002A\u002A*%
G36*
X25526030Y-54790670D02*
G01*
X25555678Y-54816136D01*
X25596179Y-54853494D01*
X25632237Y-54888161D01*
X25704471Y-54952024D01*
X25797971Y-55024264D01*
X25907844Y-55101730D01*
X26029197Y-55181272D01*
X26157136Y-55259739D01*
X26286767Y-55333981D01*
X26413198Y-55400846D01*
X26477132Y-55432167D01*
X26541958Y-55466329D01*
X26601880Y-55504000D01*
X26651821Y-55541340D01*
X26686703Y-55574510D01*
X26701449Y-55599672D01*
X26701625Y-55601917D01*
X26693002Y-55610597D01*
X26675264Y-55603863D01*
X26663027Y-55590394D01*
X26644556Y-55578686D01*
X26605156Y-55564635D01*
X26552083Y-55550667D01*
X26530100Y-55545939D01*
X26399798Y-55512350D01*
X26268601Y-55465202D01*
X26140786Y-55407056D01*
X26020629Y-55340475D01*
X25912406Y-55268020D01*
X25820391Y-55192253D01*
X25748862Y-55115736D01*
X25708071Y-55053412D01*
X25681392Y-55011787D01*
X25641287Y-54961022D01*
X25595670Y-54911000D01*
X25587854Y-54903201D01*
X25538102Y-54851052D01*
X25508554Y-54812465D01*
X25500037Y-54788768D01*
X25511914Y-54781257D01*
X25526030Y-54790670D01*
G37*
G36*
X28589049Y-50709630D02*
G01*
X28664164Y-50835203D01*
X28714462Y-50972632D01*
X28738930Y-51117949D01*
X28736559Y-51267182D01*
X28734810Y-51282148D01*
X28714756Y-51387966D01*
X28682824Y-51469397D01*
X28636334Y-51529119D01*
X28572605Y-51569813D01*
X28488958Y-51594157D01*
X28413725Y-51603149D01*
X28353642Y-51605694D01*
X28313841Y-51602532D01*
X28286416Y-51592714D01*
X28277222Y-51586771D01*
X28241538Y-51549930D01*
X28206658Y-51496399D01*
X28184704Y-51450523D01*
X28270546Y-51450523D01*
X28281185Y-51470565D01*
X28309987Y-51484899D01*
X28316819Y-51487443D01*
X28382075Y-51502950D01*
X28451549Y-51505978D01*
X28514017Y-51496730D01*
X28547191Y-51483286D01*
X28591248Y-51441833D01*
X28624537Y-51379718D01*
X28646675Y-51302912D01*
X28657277Y-51217386D01*
X28655960Y-51129113D01*
X28642341Y-51044064D01*
X28616037Y-50968211D01*
X28583641Y-50915703D01*
X28549674Y-50873727D01*
X28528348Y-50908556D01*
X28511525Y-50935703D01*
X28484062Y-50979672D01*
X28450564Y-51033101D01*
X28431953Y-51062712D01*
X28366922Y-51172279D01*
X28317668Y-51268689D01*
X28285380Y-51349353D01*
X28271243Y-51411682D01*
X28271093Y-51413489D01*
X28270546Y-51450523D01*
X28184704Y-51450523D01*
X28178185Y-51436900D01*
X28161720Y-51382153D01*
X28159722Y-51361929D01*
X28168552Y-51314905D01*
X28195240Y-51245863D01*
X28239812Y-51154754D01*
X28302292Y-51041528D01*
X28382705Y-50906136D01*
X28420109Y-50845420D01*
X28543194Y-50647400D01*
X28589049Y-50709630D01*
G37*
G36*
X29742635Y-47894507D02*
G01*
X29819232Y-47901111D01*
X29881238Y-47914555D01*
X29935696Y-47938390D01*
X29989644Y-47976165D01*
X30050124Y-48031431D01*
X30085834Y-48067580D01*
X30161614Y-48154825D01*
X30210698Y-48233293D01*
X30233099Y-48304399D01*
X30228831Y-48369556D01*
X30197909Y-48430175D01*
X30140346Y-48487672D01*
X30090300Y-48522996D01*
X30050938Y-48545980D01*
X30019822Y-48560646D01*
X30008942Y-48563474D01*
X29988420Y-48555359D01*
X29954598Y-48534526D01*
X29929551Y-48516544D01*
X29869371Y-48461533D01*
X29818822Y-48393302D01*
X29774865Y-48306824D01*
X29734462Y-48197071D01*
X29732220Y-48190065D01*
X29708791Y-48119180D01*
X29684152Y-48049300D01*
X29672178Y-48017630D01*
X29789076Y-48017630D01*
X29793826Y-48039153D01*
X29806382Y-48080101D01*
X29824199Y-48133251D01*
X29844732Y-48191382D01*
X29865437Y-48247269D01*
X29883770Y-48293691D01*
X29895955Y-48321043D01*
X29924167Y-48366821D01*
X29959282Y-48410010D01*
X29994938Y-48443970D01*
X30024771Y-48462061D01*
X30032382Y-48463418D01*
X30058264Y-48453618D01*
X30085801Y-48431257D01*
X30122721Y-48379338D01*
X30138470Y-48321182D01*
X30134910Y-48249064D01*
X30132793Y-48236383D01*
X30120094Y-48183622D01*
X30100237Y-48145977D01*
X30065779Y-48109980D01*
X30060235Y-48105066D01*
X30011554Y-48069443D01*
X29956400Y-48038923D01*
X29934869Y-48029953D01*
X29883049Y-48014764D01*
X29836846Y-48007082D01*
X29803225Y-48007497D01*
X29789149Y-48016596D01*
X29789076Y-48017630D01*
X29672178Y-48017630D01*
X29661948Y-47990571D01*
X29651336Y-47964962D01*
X29617578Y-47888172D01*
X29742635Y-47894507D01*
G37*
G36*
X26443044Y-45878314D02*
G01*
X26583232Y-45879548D01*
X26636344Y-45880131D01*
X26778120Y-45881847D01*
X26895215Y-45883605D01*
X26991532Y-45885632D01*
X27070978Y-45888154D01*
X27137457Y-45891399D01*
X27194875Y-45895593D01*
X27247137Y-45900963D01*
X27298147Y-45907736D01*
X27351811Y-45916138D01*
X27401492Y-45924569D01*
X27545929Y-45951165D01*
X27665111Y-45977016D01*
X27762305Y-46003299D01*
X27840776Y-46031190D01*
X27903794Y-46061868D01*
X27954624Y-46096508D01*
X27996535Y-46136288D01*
X28000022Y-46140208D01*
X28032366Y-46186793D01*
X28043407Y-46233320D01*
X28033786Y-46287591D01*
X28015872Y-46332674D01*
X28000278Y-46372500D01*
X27999021Y-46400142D01*
X28015622Y-46420597D01*
X28053604Y-46438863D01*
X28102413Y-46455469D01*
X28180815Y-46485120D01*
X28272933Y-46527212D01*
X28369549Y-46577117D01*
X28461446Y-46630209D01*
X28502034Y-46656035D01*
X28648395Y-46766679D01*
X28771583Y-46889373D01*
X28869938Y-47022275D01*
X28925377Y-47125281D01*
X28954183Y-47208826D01*
X28970040Y-47299995D01*
X28972161Y-47389057D01*
X28959760Y-47466283D01*
X28954257Y-47482708D01*
X28928211Y-47529446D01*
X28886239Y-47583052D01*
X28836332Y-47634735D01*
X28786481Y-47675706D01*
X28768480Y-47687052D01*
X28753664Y-47698288D01*
X28751352Y-47711288D01*
X28764138Y-47728909D01*
X28794617Y-47754006D01*
X28845382Y-47789438D01*
X28885904Y-47816349D01*
X28983711Y-47887524D01*
X29086439Y-47974054D01*
X29185701Y-48068156D01*
X29273111Y-48162051D01*
X29318279Y-48217543D01*
X29420474Y-48374000D01*
X29504942Y-48549084D01*
X29570061Y-48737801D01*
X29614208Y-48935159D01*
X29635761Y-49136164D01*
X29637618Y-49200143D01*
X29637213Y-49271835D01*
X29633807Y-49321528D01*
X29626546Y-49355730D01*
X29614580Y-49380948D01*
X29613778Y-49382189D01*
X29576690Y-49426760D01*
X29531567Y-49454424D01*
X29471529Y-49468162D01*
X29408498Y-49471128D01*
X29340874Y-49467210D01*
X29290908Y-49452305D01*
X29250778Y-49421684D01*
X29212664Y-49370619D01*
X29195693Y-49342484D01*
X29172023Y-49296396D01*
X29153885Y-49246700D01*
X29139791Y-49187123D01*
X29128250Y-49111393D01*
X29117963Y-49015273D01*
X29106066Y-48907593D01*
X29092006Y-48823465D01*
X29074043Y-48757857D01*
X29050435Y-48705736D01*
X29019443Y-48662069D01*
X28983030Y-48625142D01*
X28901154Y-48561870D01*
X28818046Y-48521554D01*
X28724399Y-48499730D01*
X28720618Y-48499220D01*
X28676343Y-48494697D01*
X28653603Y-48496947D01*
X28645916Y-48507067D01*
X28645575Y-48511915D01*
X28651487Y-48532801D01*
X28667645Y-48573710D01*
X28691680Y-48629012D01*
X28721225Y-48693075D01*
X28725774Y-48702649D01*
X28792414Y-48849668D01*
X28843303Y-48980254D01*
X28880025Y-49100704D01*
X28904167Y-49217316D01*
X28917311Y-49336389D01*
X28921044Y-49464219D01*
X28920956Y-49478275D01*
X28912790Y-49636980D01*
X28890761Y-49771844D01*
X28853847Y-49884564D01*
X28801025Y-49976841D01*
X28731271Y-50050374D01*
X28643564Y-50106861D01*
X28536879Y-50148003D01*
X28514055Y-50154310D01*
X28467845Y-50165523D01*
X28438417Y-50168009D01*
X28414989Y-50160628D01*
X28386780Y-50142240D01*
X28384484Y-50140608D01*
X28333246Y-50095061D01*
X28296580Y-50039911D01*
X28273977Y-49972114D01*
X28264927Y-49888623D01*
X28268921Y-49786395D01*
X28285451Y-49662382D01*
X28295276Y-49606970D01*
X28313852Y-49501927D01*
X28325062Y-49419507D01*
X28328439Y-49354593D01*
X28323518Y-49302064D01*
X28309831Y-49256802D01*
X28286912Y-49213688D01*
X28255351Y-49168991D01*
X28214049Y-49117395D01*
X28182108Y-49085612D01*
X28153685Y-49069243D01*
X28122937Y-49063891D01*
X28115537Y-49063756D01*
X28094810Y-49075826D01*
X28088181Y-49112172D01*
X28095649Y-49173000D01*
X28114643Y-49249620D01*
X28143676Y-49374932D01*
X28154073Y-49485148D01*
X28146377Y-49586375D01*
X28145090Y-49593752D01*
X28114206Y-49705947D01*
X28066418Y-49802613D01*
X28004238Y-49881113D01*
X27930177Y-49938815D01*
X27846747Y-49973083D01*
X27775025Y-49981854D01*
X27690924Y-49969348D01*
X27620747Y-49931927D01*
X27564662Y-49869736D01*
X27522839Y-49782920D01*
X27514653Y-49757459D01*
X27458949Y-49611256D01*
X27384676Y-49486722D01*
X27292147Y-49384061D01*
X27181674Y-49303478D01*
X27053570Y-49245176D01*
X26908147Y-49209361D01*
X26745719Y-49196235D01*
X26658744Y-49198217D01*
X26513323Y-49212146D01*
X26375829Y-49238930D01*
X26238680Y-49280731D01*
X26094292Y-49339708D01*
X25994257Y-49387631D01*
X25787665Y-49505641D01*
X25596847Y-49643445D01*
X25423755Y-49798812D01*
X25270338Y-49969506D01*
X25138546Y-50153296D01*
X25030329Y-50347946D01*
X24947638Y-50551223D01*
X24930253Y-50606248D01*
X24892205Y-50754540D01*
X24868347Y-50899066D01*
X24858672Y-51045189D01*
X24863170Y-51198271D01*
X24881835Y-51363676D01*
X24914658Y-51546767D01*
X24928779Y-51612811D01*
X24976889Y-51821329D01*
X25024619Y-52010620D01*
X25071329Y-52178388D01*
X25116376Y-52322331D01*
X25159123Y-52440151D01*
X25159362Y-52440752D01*
X25191592Y-52521220D01*
X25216891Y-52580133D01*
X25239177Y-52622384D01*
X25262367Y-52652866D01*
X25290380Y-52676473D01*
X25327132Y-52698098D01*
X25376543Y-52722635D01*
X25390443Y-52729366D01*
X25519117Y-52785163D01*
X25635915Y-52820390D01*
X25747837Y-52835948D01*
X25861883Y-52832735D01*
X25985054Y-52811652D01*
X26001231Y-52807855D01*
X26126033Y-52780512D01*
X26245252Y-52760664D01*
X26367153Y-52747438D01*
X26500002Y-52739961D01*
X26652064Y-52737360D01*
X26668910Y-52737335D01*
X26943512Y-52737250D01*
X27118911Y-52837739D01*
X27215154Y-52891099D01*
X27294448Y-52930297D01*
X27363196Y-52957662D01*
X27427801Y-52975524D01*
X27494667Y-52986211D01*
X27537809Y-52990097D01*
X27574772Y-52991655D01*
X27614259Y-52990753D01*
X27659217Y-52986839D01*
X27712592Y-52979361D01*
X27777333Y-52967768D01*
X27856384Y-52951508D01*
X27952694Y-52930028D01*
X28069210Y-52902777D01*
X28208878Y-52869204D01*
X28294008Y-52848484D01*
X28649981Y-52761577D01*
X28688693Y-52809009D01*
X28706475Y-52828761D01*
X28725430Y-52842662D01*
X28749448Y-52850650D01*
X28782417Y-52852663D01*
X28828228Y-52848640D01*
X28890771Y-52838520D01*
X28973934Y-52822240D01*
X29065974Y-52803043D01*
X29293408Y-52755039D01*
X29524966Y-52887309D01*
X29666361Y-52965647D01*
X29785850Y-53026579D01*
X29883998Y-53070367D01*
X29961369Y-53097276D01*
X29987129Y-53103473D01*
X30022866Y-53104902D01*
X30072633Y-53096831D01*
X30139085Y-53078493D01*
X30224877Y-53049117D01*
X30332665Y-53007934D01*
X30374372Y-52991277D01*
X30511384Y-52938263D01*
X30626616Y-52898640D01*
X30723077Y-52871560D01*
X30803772Y-52856169D01*
X30868040Y-52851600D01*
X30908539Y-52853002D01*
X30944958Y-52858723D01*
X30984321Y-52871035D01*
X31033653Y-52892210D01*
X31099977Y-52924519D01*
X31111768Y-52930438D01*
X31334732Y-53028286D01*
X31559932Y-53098183D01*
X31789934Y-53140762D01*
X32027305Y-53156657D01*
X32027936Y-53156665D01*
X32108863Y-53157229D01*
X32166345Y-53156433D01*
X32205514Y-53153700D01*
X32231500Y-53148452D01*
X32249437Y-53140111D01*
X32261997Y-53130329D01*
X32299134Y-53089435D01*
X32345571Y-53025676D01*
X32399207Y-52942404D01*
X32457940Y-52842970D01*
X32519671Y-52730725D01*
X32555591Y-52661912D01*
X32593207Y-52590017D01*
X32626808Y-52528709D01*
X32654155Y-52481833D01*
X32673014Y-52453238D01*
X32680882Y-52446314D01*
X32687040Y-52467385D01*
X32690322Y-52512122D01*
X32690896Y-52575766D01*
X32688928Y-52653558D01*
X32684588Y-52740740D01*
X32678041Y-52832551D01*
X32669456Y-52924233D01*
X32661733Y-52990418D01*
X32603014Y-53339326D01*
X32517880Y-53677356D01*
X32406383Y-54004426D01*
X32268578Y-54320456D01*
X32104519Y-54625362D01*
X31914259Y-54919065D01*
X31697854Y-55201482D01*
X31455356Y-55472532D01*
X31186820Y-55732133D01*
X30892300Y-55980204D01*
X30571850Y-56216664D01*
X30482139Y-56277672D01*
X30118706Y-56505464D01*
X29751688Y-56705114D01*
X29380281Y-56876931D01*
X29003680Y-57021226D01*
X28621082Y-57138308D01*
X28231680Y-57228488D01*
X27855113Y-57289470D01*
X27784809Y-57296186D01*
X27690962Y-57301633D01*
X27578356Y-57305815D01*
X27451775Y-57308737D01*
X27316002Y-57310404D01*
X27175820Y-57310821D01*
X27036013Y-57309993D01*
X26901363Y-57307923D01*
X26776656Y-57304617D01*
X26666672Y-57300081D01*
X26576197Y-57294317D01*
X26515806Y-57288140D01*
X26086769Y-57217798D01*
X25674467Y-57124331D01*
X25278770Y-57007693D01*
X24899544Y-56867842D01*
X24536660Y-56704731D01*
X24189984Y-56518317D01*
X24124840Y-56479598D01*
X23791245Y-56261643D01*
X23471831Y-56019708D01*
X23168111Y-55755439D01*
X22881598Y-55470482D01*
X22613803Y-55166483D01*
X22366240Y-54845089D01*
X22140421Y-54507946D01*
X21937859Y-54156701D01*
X21869936Y-54025151D01*
X21706633Y-53668854D01*
X21570218Y-53305842D01*
X21460438Y-52935007D01*
X21377037Y-52555243D01*
X21319761Y-52165441D01*
X21288356Y-51764494D01*
X21281620Y-51465106D01*
X21294835Y-51057622D01*
X21334682Y-50659754D01*
X21401516Y-50269935D01*
X21495689Y-49886596D01*
X21617556Y-49508169D01*
X21767472Y-49133087D01*
X21847868Y-48957200D01*
X22034379Y-48594614D01*
X22239529Y-48251866D01*
X22245523Y-48243213D01*
X22545767Y-48243213D01*
X22552267Y-48259164D01*
X22569890Y-48263305D01*
X22617408Y-48252503D01*
X22678577Y-48219640D01*
X22754639Y-48164033D01*
X22764130Y-48156366D01*
X22821445Y-48114904D01*
X22875487Y-48085154D01*
X22920914Y-48069372D01*
X22952382Y-48069813D01*
X22958998Y-48074106D01*
X22971813Y-48104477D01*
X22974184Y-48154788D01*
X22966818Y-48218656D01*
X22950424Y-48289699D01*
X22927605Y-48356846D01*
X22904731Y-48422084D01*
X22886086Y-48489742D01*
X22875247Y-48546588D01*
X22874526Y-48553246D01*
X22871515Y-48602681D01*
X22875459Y-48634213D01*
X22888580Y-48658132D01*
X22900022Y-48671247D01*
X22932535Y-48695297D01*
X22980131Y-48718875D01*
X23012828Y-48730673D01*
X23059769Y-48746323D01*
X23096962Y-48761293D01*
X23111848Y-48769348D01*
X23125839Y-48789154D01*
X23128986Y-48821199D01*
X23120622Y-48867672D01*
X23100079Y-48930763D01*
X23066688Y-49012661D01*
X23019782Y-49115555D01*
X22982707Y-49192727D01*
X22941496Y-49278023D01*
X22903765Y-49357540D01*
X22871643Y-49426677D01*
X22847261Y-49480833D01*
X22832747Y-49515404D01*
X22830566Y-49521483D01*
X22822976Y-49552403D01*
X22811844Y-49608030D01*
X22797742Y-49684782D01*
X22781239Y-49779075D01*
X22762906Y-49887328D01*
X22743314Y-50005957D01*
X22723034Y-50131380D01*
X22702635Y-50260014D01*
X22682690Y-50388276D01*
X22663769Y-50512583D01*
X22646441Y-50629353D01*
X22631278Y-50735003D01*
X22618851Y-50825950D01*
X22609730Y-50898612D01*
X22606369Y-50929091D01*
X22603593Y-50990878D01*
X22604888Y-51074544D01*
X22609782Y-51173744D01*
X22617805Y-51282132D01*
X22628483Y-51393363D01*
X22641344Y-51501092D01*
X22655918Y-51598973D01*
X22656392Y-51601779D01*
X22682045Y-51737557D01*
X22712686Y-51868449D01*
X22749780Y-51998401D01*
X22794795Y-52131361D01*
X22849197Y-52271277D01*
X22914454Y-52422096D01*
X22992032Y-52587765D01*
X23083399Y-52772233D01*
X23112946Y-52830320D01*
X23175679Y-52954727D01*
X23229207Y-53064387D01*
X23272486Y-53157029D01*
X23304468Y-53230383D01*
X23324108Y-53282175D01*
X23328983Y-53299327D01*
X23347468Y-53381928D01*
X23261431Y-53470534D01*
X23186936Y-53552237D01*
X23133415Y-53624403D01*
X23097949Y-53693188D01*
X23077616Y-53764747D01*
X23069497Y-53845236D01*
X23069000Y-53876132D01*
X23078825Y-53990259D01*
X23106715Y-54119130D01*
X23150426Y-54257365D01*
X23207717Y-54399586D01*
X23276345Y-54540416D01*
X23354068Y-54674475D01*
X23438643Y-54796384D01*
X23468184Y-54833651D01*
X23541406Y-54921908D01*
X23624244Y-55020396D01*
X23713124Y-55124980D01*
X23804475Y-55231525D01*
X23894723Y-55335898D01*
X23980298Y-55433962D01*
X24057627Y-55521582D01*
X24123138Y-55594625D01*
X24164538Y-55639680D01*
X24381292Y-55856186D01*
X24605850Y-56050825D01*
X24836095Y-56222070D01*
X25069909Y-56368393D01*
X25305177Y-56488268D01*
X25393746Y-56526255D01*
X25459968Y-56551315D01*
X25537389Y-56577688D01*
X25619817Y-56603584D01*
X25701058Y-56627212D01*
X25774919Y-56646783D01*
X25835207Y-56660506D01*
X25875729Y-56666591D01*
X25879734Y-56666734D01*
X25896242Y-56665038D01*
X25895298Y-56658142D01*
X25874393Y-56644021D01*
X25831018Y-56620647D01*
X25808265Y-56608990D01*
X25655076Y-56526671D01*
X25502434Y-56435353D01*
X25347773Y-56333105D01*
X25188527Y-56217994D01*
X25022132Y-56088086D01*
X24846023Y-55941449D01*
X24657634Y-55776149D01*
X24454400Y-55590255D01*
X24446480Y-55582880D01*
X24296623Y-55438393D01*
X24150263Y-55287910D01*
X24008899Y-55133524D01*
X23874030Y-54977329D01*
X23747154Y-54821419D01*
X23629769Y-54667888D01*
X23523375Y-54518831D01*
X23429468Y-54376340D01*
X23349549Y-54242510D01*
X23285114Y-54119436D01*
X23237664Y-54009210D01*
X23208695Y-53913927D01*
X23199655Y-53840568D01*
X23210503Y-53778562D01*
X23238909Y-53712977D01*
X23278672Y-53656126D01*
X23304854Y-53631737D01*
X23331983Y-53616203D01*
X23368438Y-53605627D01*
X23421121Y-53598528D01*
X23478672Y-53594408D01*
X23537723Y-53590313D01*
X23585302Y-53585622D01*
X23614673Y-53581071D01*
X23620580Y-53578941D01*
X23617885Y-53563821D01*
X23605266Y-53527335D01*
X23584522Y-53474188D01*
X23557452Y-53409086D01*
X23541507Y-53372149D01*
X23428354Y-53106315D01*
X23321895Y-52842511D01*
X23223507Y-52584565D01*
X23134568Y-52336305D01*
X23056456Y-52101560D01*
X23045463Y-52065297D01*
X23735649Y-52065297D01*
X23738254Y-52097599D01*
X23751087Y-52132655D01*
X23776099Y-52180050D01*
X23807895Y-52229573D01*
X23808170Y-52229960D01*
X23863982Y-52317056D01*
X23918499Y-52419815D01*
X23973041Y-52541224D01*
X24028927Y-52684269D01*
X24087477Y-52851939D01*
X24100811Y-52892318D01*
X24219468Y-53231843D01*
X24345851Y-53547386D01*
X24481983Y-53842980D01*
X24629886Y-54122655D01*
X24791584Y-54390443D01*
X24969098Y-54650375D01*
X25012610Y-54709788D01*
X25060796Y-54769607D01*
X25126375Y-54843591D01*
X25204969Y-54927380D01*
X25292199Y-55016612D01*
X25383688Y-55106925D01*
X25475057Y-55193957D01*
X25561929Y-55273347D01*
X25639924Y-55340734D01*
X25672475Y-55367179D01*
X25730173Y-55413801D01*
X25780997Y-55456659D01*
X25819964Y-55491427D01*
X25842090Y-55513775D01*
X25843766Y-55515955D01*
X25869903Y-55557314D01*
X25891845Y-55599578D01*
X25905775Y-55634516D01*
X25907873Y-55653898D01*
X25907807Y-55654008D01*
X25892181Y-55654177D01*
X25856865Y-55643865D01*
X25807680Y-55625501D01*
X25750444Y-55601510D01*
X25690977Y-55574322D01*
X25635097Y-55546361D01*
X25592841Y-55522640D01*
X25526459Y-55477901D01*
X25444864Y-55415686D01*
X25352142Y-55339610D01*
X25252379Y-55253287D01*
X25149660Y-55160332D01*
X25048073Y-55064359D01*
X24951702Y-54968982D01*
X24867864Y-54881313D01*
X24752192Y-54748563D01*
X24634732Y-54599707D01*
X24523184Y-54445047D01*
X24425248Y-54294890D01*
X24406716Y-54264193D01*
X24356711Y-54177129D01*
X24302548Y-54077858D01*
X24246999Y-53971920D01*
X24192831Y-53864855D01*
X24142815Y-53762206D01*
X24099721Y-53669511D01*
X24066318Y-53592314D01*
X24050753Y-53552062D01*
X24018470Y-53472032D01*
X23988852Y-53420082D01*
X23961993Y-53396367D01*
X23953605Y-53394763D01*
X23946900Y-53407232D01*
X23946119Y-53439112D01*
X23950124Y-53482112D01*
X23957781Y-53527940D01*
X23967954Y-53568304D01*
X23979507Y-53594913D01*
X23981346Y-53597270D01*
X23995466Y-53626251D01*
X23996469Y-53658129D01*
X23985550Y-53681887D01*
X23971518Y-53687785D01*
X23949799Y-53676065D01*
X23936086Y-53655898D01*
X23914153Y-53625232D01*
X23887763Y-53613397D01*
X23868088Y-53621119D01*
X23866300Y-53640190D01*
X23873638Y-53678696D01*
X23887913Y-53729817D01*
X23906933Y-53786736D01*
X23928508Y-53842635D01*
X23950449Y-53890696D01*
X23960682Y-53909338D01*
X23978857Y-53937887D01*
X24009916Y-53984703D01*
X24050374Y-54044616D01*
X24096749Y-54112454D01*
X24129197Y-54159479D01*
X24183295Y-54240155D01*
X24238480Y-54326916D01*
X24289503Y-54411215D01*
X24331112Y-54484507D01*
X24344377Y-54509676D01*
X24411355Y-54630709D01*
X24486871Y-54746511D01*
X24573285Y-54859539D01*
X24672956Y-54972250D01*
X24788241Y-55087101D01*
X24921501Y-55206549D01*
X25075094Y-55333052D01*
X25251379Y-55469067D01*
X25300837Y-55506007D01*
X25473874Y-55632150D01*
X25628227Y-55739622D01*
X25765758Y-55829630D01*
X25888327Y-55903380D01*
X25997797Y-55962078D01*
X26025991Y-55975807D01*
X26111583Y-56016525D01*
X26209008Y-56062898D01*
X26304316Y-56108285D01*
X26362242Y-56135884D01*
X26436156Y-56172546D01*
X26486077Y-56200555D01*
X26511052Y-56219330D01*
X26512327Y-56227379D01*
X26477299Y-56236877D01*
X26415954Y-56238086D01*
X26329311Y-56231082D01*
X26218390Y-56215943D01*
X26102645Y-56196163D01*
X26024519Y-56182209D01*
X25956732Y-56170833D01*
X25904034Y-56162773D01*
X25871178Y-56158768D01*
X25862441Y-56158839D01*
X25869347Y-56170088D01*
X25893149Y-56193162D01*
X25918259Y-56214485D01*
X26030265Y-56295291D01*
X26165108Y-56375922D01*
X26317123Y-56453978D01*
X26480644Y-56527057D01*
X26650008Y-56592759D01*
X26819549Y-56648683D01*
X26983603Y-56692427D01*
X27101850Y-56716170D01*
X27156318Y-56724204D01*
X27234645Y-56734243D01*
X27332214Y-56745798D01*
X27444407Y-56758378D01*
X27566605Y-56771494D01*
X27694189Y-56784655D01*
X27822542Y-56797372D01*
X27947044Y-56809154D01*
X28063078Y-56819511D01*
X28123853Y-56824605D01*
X28200795Y-56829258D01*
X28294923Y-56832391D01*
X28401702Y-56834087D01*
X28516595Y-56834429D01*
X28635065Y-56833501D01*
X28752575Y-56831387D01*
X28864590Y-56828170D01*
X28966573Y-56823935D01*
X29053987Y-56818764D01*
X29122296Y-56812743D01*
X29166962Y-56805953D01*
X29169622Y-56805318D01*
X29208079Y-56793602D01*
X29259426Y-56775138D01*
X29317640Y-56752455D01*
X29376697Y-56728077D01*
X29430575Y-56704533D01*
X29473252Y-56684347D01*
X29498704Y-56670048D01*
X29503203Y-56665383D01*
X29489521Y-56664199D01*
X29450918Y-56663123D01*
X29391059Y-56662199D01*
X29313609Y-56661470D01*
X29222236Y-56660979D01*
X29120605Y-56660769D01*
X29113699Y-56660767D01*
X28973105Y-56660131D01*
X28852632Y-56657881D01*
X28745849Y-56653365D01*
X28646326Y-56645929D01*
X28547633Y-56634922D01*
X28443338Y-56619690D01*
X28327012Y-56599581D01*
X28192223Y-56573941D01*
X28122445Y-56560149D01*
X27977147Y-56530668D01*
X27857224Y-56504909D01*
X27759849Y-56481916D01*
X27682196Y-56460732D01*
X27621437Y-56440403D01*
X27574745Y-56419973D01*
X27539293Y-56398485D01*
X27512254Y-56374985D01*
X27490801Y-56348516D01*
X27489099Y-56346032D01*
X27468246Y-56310253D01*
X27465322Y-56288115D01*
X27471576Y-56278295D01*
X27492924Y-56270416D01*
X27538303Y-56262815D01*
X27603159Y-56256105D01*
X27670371Y-56251551D01*
X27739885Y-56247737D01*
X27798893Y-56244408D01*
X27841615Y-56241894D01*
X27862269Y-56240531D01*
X27862992Y-56240460D01*
X27874373Y-56227605D01*
X27866576Y-56194239D01*
X27839813Y-56140862D01*
X27828809Y-56123242D01*
X28167741Y-56123242D01*
X28175381Y-56136227D01*
X28203012Y-56160243D01*
X28245855Y-56192049D01*
X28299133Y-56228403D01*
X28358066Y-56266064D01*
X28417876Y-56301790D01*
X28473784Y-56332341D01*
X28482599Y-56336809D01*
X28579964Y-56379784D01*
X28687426Y-56417923D01*
X28790941Y-56446454D01*
X28827517Y-56454002D01*
X28860055Y-56457142D01*
X28916573Y-56459607D01*
X28992471Y-56461323D01*
X29083149Y-56462214D01*
X29184006Y-56462207D01*
X29281647Y-56461345D01*
X29411736Y-56459215D01*
X29518387Y-56456361D01*
X29606747Y-56452459D01*
X29681962Y-56447185D01*
X29749179Y-56440218D01*
X29813546Y-56431233D01*
X29846251Y-56425886D01*
X29941152Y-56409337D01*
X30014117Y-56394942D01*
X30071451Y-56380436D01*
X30119462Y-56363551D01*
X30164455Y-56342023D01*
X30212739Y-56313586D01*
X30270618Y-56275972D01*
X30279009Y-56270402D01*
X30339016Y-56229856D01*
X30377296Y-56201981D01*
X30396433Y-56184405D01*
X30399010Y-56174756D01*
X30387643Y-56170667D01*
X30364138Y-56171170D01*
X30316567Y-56174818D01*
X30249227Y-56181187D01*
X30166416Y-56189852D01*
X30072431Y-56200386D01*
X29995782Y-56209429D01*
X29813796Y-56230811D01*
X29656653Y-56247994D01*
X29520956Y-56261226D01*
X29403310Y-56270752D01*
X29300316Y-56276819D01*
X29208579Y-56279673D01*
X29124701Y-56279561D01*
X29058676Y-56277394D01*
X28922333Y-56267737D01*
X28799933Y-56251120D01*
X28680318Y-56225384D01*
X28552328Y-56188373D01*
X28487420Y-56166916D01*
X28398458Y-56139573D01*
X28318159Y-56120565D01*
X28250718Y-56110466D01*
X28200329Y-56109850D01*
X28171187Y-56119288D01*
X28167741Y-56123242D01*
X27828809Y-56123242D01*
X27794293Y-56067975D01*
X27784377Y-56053195D01*
X27717889Y-55954692D01*
X27665612Y-55876377D01*
X27625529Y-55814902D01*
X27595624Y-55766918D01*
X27573881Y-55729077D01*
X27558284Y-55698032D01*
X27546816Y-55670433D01*
X27537592Y-55643346D01*
X27527430Y-55596598D01*
X27521196Y-55538701D01*
X27518950Y-55477706D01*
X27520750Y-55421665D01*
X27526657Y-55378627D01*
X27535491Y-55357708D01*
X27551682Y-55356814D01*
X27581622Y-55374096D01*
X27626403Y-55410456D01*
X27687119Y-55466797D01*
X27764862Y-55544020D01*
X27780803Y-55560263D01*
X27847669Y-55627224D01*
X27904560Y-55679619D01*
X27957817Y-55721561D01*
X28013784Y-55757162D01*
X28078803Y-55790536D01*
X28159217Y-55825795D01*
X28242085Y-55859394D01*
X28369164Y-55903269D01*
X28481929Y-55928366D01*
X28577815Y-55934185D01*
X28610360Y-55931079D01*
X28655959Y-55918128D01*
X28678562Y-55894469D01*
X28679083Y-55857073D01*
X28658438Y-55802909D01*
X28652583Y-55791221D01*
X28632562Y-55748829D01*
X28619650Y-55714845D01*
X28616988Y-55702157D01*
X28628109Y-55681877D01*
X28662087Y-55673387D01*
X28719840Y-55676689D01*
X28802289Y-55691785D01*
X28848933Y-55702733D01*
X28979957Y-55733138D01*
X29098253Y-55755736D01*
X29213815Y-55771892D01*
X29336636Y-55782969D01*
X29476710Y-55790332D01*
X29496054Y-55791063D01*
X29818530Y-55792042D01*
X30124367Y-55770625D01*
X30415023Y-55726543D01*
X30691959Y-55659528D01*
X30956633Y-55569311D01*
X31144504Y-55487907D01*
X31278015Y-55419435D01*
X31386675Y-55351877D01*
X31474014Y-55282720D01*
X31543563Y-55209449D01*
X31553734Y-55196582D01*
X31585109Y-55154527D01*
X31608157Y-55121190D01*
X31618493Y-55102962D01*
X31618676Y-55101955D01*
X31628818Y-55086148D01*
X31642282Y-55074463D01*
X31656741Y-55057325D01*
X31649328Y-55046967D01*
X31631150Y-55048804D01*
X31624193Y-55059079D01*
X31604854Y-55076159D01*
X31579797Y-55081426D01*
X31552217Y-55088265D01*
X31507510Y-55106640D01*
X31453036Y-55133336D01*
X31420522Y-55150995D01*
X31253314Y-55241672D01*
X31092290Y-55322071D01*
X30941040Y-55390615D01*
X30803158Y-55445727D01*
X30682235Y-55485831D01*
X30621857Y-55501465D01*
X30508321Y-55522817D01*
X30373333Y-55541275D01*
X30223920Y-55556413D01*
X30067111Y-55567804D01*
X29909934Y-55575022D01*
X29759417Y-55577641D01*
X29622588Y-55575234D01*
X29517494Y-55568470D01*
X29358473Y-55550650D01*
X29217513Y-55528227D01*
X29087677Y-55499131D01*
X28962022Y-55461292D01*
X28833609Y-55412639D01*
X28695497Y-55351103D01*
X28552666Y-55280702D01*
X28462118Y-55235277D01*
X28370826Y-55190766D01*
X28285169Y-55150186D01*
X28211521Y-55116552D01*
X28156260Y-55092883D01*
X28152441Y-55091358D01*
X27921310Y-55014669D01*
X27686576Y-54965962D01*
X27449603Y-54945440D01*
X27223199Y-54952277D01*
X27137197Y-54958407D01*
X27055852Y-54960810D01*
X26973474Y-54959131D01*
X26884374Y-54953010D01*
X26782862Y-54942092D01*
X26663250Y-54926018D01*
X26559805Y-54910604D01*
X26332183Y-54864048D01*
X26122927Y-54796553D01*
X25929974Y-54707176D01*
X25751261Y-54594976D01*
X25598702Y-54471736D01*
X25474812Y-54357948D01*
X25372765Y-54259450D01*
X25291221Y-54174805D01*
X25228838Y-54102577D01*
X25184275Y-54041331D01*
X25164117Y-54006507D01*
X25130299Y-53945959D01*
X25094989Y-53892534D01*
X25061700Y-53850568D01*
X25033945Y-53824394D01*
X25015236Y-53818345D01*
X25012890Y-53819930D01*
X25007906Y-53842884D01*
X25014641Y-53884222D01*
X25030966Y-53937321D01*
X25054755Y-53995553D01*
X25083878Y-54052294D01*
X25091750Y-54065481D01*
X25122333Y-54118715D01*
X25149234Y-54171887D01*
X25164484Y-54207913D01*
X25183586Y-54251738D01*
X25211918Y-54305379D01*
X25235160Y-54344143D01*
X25269053Y-54399560D01*
X25302624Y-54458299D01*
X25320681Y-54492231D01*
X25345229Y-54535550D01*
X25369378Y-54570112D01*
X25380552Y-54582042D01*
X25400555Y-54605993D01*
X25420153Y-54640276D01*
X25434788Y-54675037D01*
X25439901Y-54700417D01*
X25437923Y-54706110D01*
X25417648Y-54708647D01*
X25387399Y-54695413D01*
X25356096Y-54672096D01*
X25332656Y-54644382D01*
X25328637Y-54636419D01*
X25304087Y-54599474D01*
X25273810Y-54574682D01*
X25247317Y-54558600D01*
X25222540Y-54537343D01*
X25197215Y-54507516D01*
X25169080Y-54465727D01*
X25135871Y-54408580D01*
X25095325Y-54332681D01*
X25045180Y-54234637D01*
X25039206Y-54222802D01*
X24884630Y-53893565D01*
X24833894Y-53766150D01*
X24964604Y-53766150D01*
X24976793Y-53787193D01*
X24993712Y-53794988D01*
X25006255Y-53784010D01*
X25004810Y-53766401D01*
X24991425Y-53740768D01*
X24972729Y-53742470D01*
X24968301Y-53746357D01*
X24964604Y-53766150D01*
X24833894Y-53766150D01*
X24756066Y-53570699D01*
X24653762Y-53254964D01*
X24577964Y-52947120D01*
X24529351Y-52651488D01*
X24519389Y-52571781D01*
X24507584Y-52480361D01*
X24496088Y-52393823D01*
X24493222Y-52372760D01*
X24483582Y-52302348D01*
X24474204Y-52233766D01*
X24466548Y-52177696D01*
X24463913Y-52158353D01*
X24457746Y-52118012D01*
X24452490Y-52102773D01*
X24445965Y-52109322D01*
X24440423Y-52122619D01*
X24423003Y-52182038D01*
X24406873Y-52264083D01*
X24392937Y-52362794D01*
X24382101Y-52472211D01*
X24377803Y-52534601D01*
X24373125Y-52608801D01*
X24368487Y-52659751D01*
X24362714Y-52692762D01*
X24354633Y-52713145D01*
X24343069Y-52726214D01*
X24334027Y-52732716D01*
X24293424Y-52747276D01*
X24266588Y-52746188D01*
X24238811Y-52727481D01*
X24200725Y-52683190D01*
X24152897Y-52614167D01*
X24095895Y-52521267D01*
X24030285Y-52405343D01*
X23988710Y-52328265D01*
X23927617Y-52215489D01*
X23875139Y-52123243D01*
X23832042Y-52052755D01*
X23799090Y-52005249D01*
X23777047Y-51981952D01*
X23771229Y-51979681D01*
X23753734Y-51992356D01*
X23740990Y-52024056D01*
X23735649Y-52065297D01*
X23045463Y-52065297D01*
X22990549Y-51884158D01*
X22944532Y-51713392D01*
X22911205Y-51576343D01*
X22911205Y-51576342D01*
X24757674Y-51576342D01*
X24770569Y-51834728D01*
X24808224Y-52100941D01*
X24869101Y-52371609D01*
X24951660Y-52643357D01*
X25054359Y-52912813D01*
X25175659Y-53176602D01*
X25314019Y-53431352D01*
X25467900Y-53673689D01*
X25635760Y-53900239D01*
X25816061Y-54107629D01*
X25991351Y-54278384D01*
X26082544Y-54354755D01*
X26183796Y-54430945D01*
X26287699Y-54501904D01*
X26386847Y-54562583D01*
X26473832Y-54607933D01*
X26476800Y-54609287D01*
X26530214Y-54631430D01*
X26591436Y-54653611D01*
X26654263Y-54673993D01*
X26712490Y-54690739D01*
X26759913Y-54702012D01*
X26790330Y-54705976D01*
X26797647Y-54704293D01*
X26798856Y-54685710D01*
X26788067Y-54654883D01*
X26770353Y-54622497D01*
X26750787Y-54599239D01*
X26746324Y-54596172D01*
X26731922Y-54580951D01*
X26733817Y-54572775D01*
X26750860Y-54573063D01*
X26770558Y-54585997D01*
X26802984Y-54604832D01*
X26826315Y-54609732D01*
X26864752Y-54615333D01*
X26922315Y-54630626D01*
X26992162Y-54653350D01*
X27067452Y-54681242D01*
X27141343Y-54712040D01*
X27156905Y-54719060D01*
X27216507Y-54743845D01*
X27292942Y-54772025D01*
X27375389Y-54799755D01*
X27437753Y-54818843D01*
X27525514Y-54842758D01*
X27598642Y-54858416D01*
X27669198Y-54867788D01*
X27749245Y-54872842D01*
X27773656Y-54873709D01*
X27873585Y-54879248D01*
X27954725Y-54890614D01*
X28026716Y-54910594D01*
X28099196Y-54941972D01*
X28181801Y-54987533D01*
X28195322Y-54995561D01*
X28397018Y-55104768D01*
X28593432Y-55187337D01*
X28787797Y-55243921D01*
X28983345Y-55275170D01*
X29183308Y-55281738D01*
X29390920Y-55264275D01*
X29468005Y-55252258D01*
X29831777Y-55175192D01*
X30196439Y-55070521D01*
X30560100Y-54939093D01*
X30920873Y-54781753D01*
X31276867Y-54599351D01*
X31626194Y-54392732D01*
X31966964Y-54162745D01*
X32076076Y-54082719D01*
X32167901Y-54013123D01*
X32238933Y-53957057D01*
X32292025Y-53911985D01*
X32330032Y-53875374D01*
X32355809Y-53844690D01*
X32370063Y-53821711D01*
X32385898Y-53782386D01*
X32405380Y-53720697D01*
X32427147Y-53642428D01*
X32449836Y-53553360D01*
X32472083Y-53459274D01*
X32492526Y-53365953D01*
X32509802Y-53279179D01*
X32522547Y-53204734D01*
X32529400Y-53148400D01*
X32529667Y-53144622D01*
X32536979Y-53068634D01*
X32547142Y-53020322D01*
X32557992Y-53001308D01*
X32570748Y-52976701D01*
X32568491Y-52962082D01*
X32554309Y-52945331D01*
X32539974Y-52952195D01*
X32533476Y-52978695D01*
X32522973Y-53001772D01*
X32496193Y-53032452D01*
X32476622Y-53049736D01*
X32448371Y-53076758D01*
X32407416Y-53121591D01*
X32358163Y-53179143D01*
X32305018Y-53244326D01*
X32273542Y-53284402D01*
X32199927Y-53374696D01*
X32107479Y-53480036D01*
X31999252Y-53597077D01*
X31878297Y-53722470D01*
X31826541Y-53774710D01*
X31617490Y-53977696D01*
X31418745Y-54156587D01*
X31227637Y-54312762D01*
X31041499Y-54447600D01*
X30857661Y-54562479D01*
X30673455Y-54658777D01*
X30486212Y-54737874D01*
X30293262Y-54801148D01*
X30091938Y-54849977D01*
X29879570Y-54885740D01*
X29653490Y-54909815D01*
X29624841Y-54912019D01*
X29524911Y-54917361D01*
X29404098Y-54920522D01*
X29268400Y-54921620D01*
X29123812Y-54920772D01*
X28976332Y-54918096D01*
X28831958Y-54913711D01*
X28696685Y-54907732D01*
X28576510Y-54900279D01*
X28477432Y-54891468D01*
X28457060Y-54889116D01*
X28144722Y-54844336D01*
X27845262Y-54788252D01*
X27560812Y-54721539D01*
X27293504Y-54644870D01*
X27045470Y-54558918D01*
X26818843Y-54464357D01*
X26615755Y-54361859D01*
X26438339Y-54252098D01*
X26437190Y-54251304D01*
X26331411Y-54171440D01*
X26216606Y-54071730D01*
X26091792Y-53951177D01*
X25955985Y-53808785D01*
X25808201Y-53643560D01*
X25773265Y-53602471D01*
X25945990Y-53602471D01*
X25951039Y-53615603D01*
X25969754Y-53643653D01*
X25988043Y-53667740D01*
X26021670Y-53704509D01*
X26060704Y-53734478D01*
X26108477Y-53758484D01*
X26168324Y-53777362D01*
X26243577Y-53791948D01*
X26337570Y-53803078D01*
X26453636Y-53811588D01*
X26587275Y-53818002D01*
X26667421Y-53821991D01*
X26738113Y-53826978D01*
X26794157Y-53832480D01*
X26830356Y-53838016D01*
X26840989Y-53841555D01*
X26851607Y-53865043D01*
X26857667Y-53912741D01*
X26858856Y-53955383D01*
X26866645Y-54045370D01*
X26889135Y-54115027D01*
X26925012Y-54162752D01*
X26972959Y-54186939D01*
X27031663Y-54185985D01*
X27045081Y-54182487D01*
X27107181Y-54169516D01*
X27162431Y-54168158D01*
X27203114Y-54178163D01*
X27216200Y-54188066D01*
X27233731Y-54204889D01*
X27245912Y-54204196D01*
X27253613Y-54183332D01*
X27257706Y-54139646D01*
X27259060Y-54070485D01*
X27259081Y-54057453D01*
X27259081Y-53905398D01*
X27380574Y-54022036D01*
X27502876Y-54129209D01*
X27634257Y-54223413D01*
X27779163Y-54307115D01*
X27942039Y-54382779D01*
X28127327Y-54452871D01*
X28202469Y-54477891D01*
X28363292Y-54526450D01*
X28506494Y-54562330D01*
X28639167Y-54587227D01*
X28688457Y-54594182D01*
X28749351Y-54600095D01*
X28820926Y-54604135D01*
X28896326Y-54606257D01*
X28968695Y-54606422D01*
X29031177Y-54604587D01*
X29076917Y-54600711D01*
X29095575Y-54596656D01*
X29106306Y-54589099D01*
X29095844Y-54581089D01*
X29061136Y-54570819D01*
X29045546Y-54567029D01*
X28920406Y-54534554D01*
X28777372Y-54492663D01*
X28624471Y-54443997D01*
X28469728Y-54391196D01*
X28321171Y-54336902D01*
X28195322Y-54287270D01*
X28034565Y-54219245D01*
X27900753Y-54158770D01*
X27793971Y-54105894D01*
X27714304Y-54060668D01*
X27661838Y-54023140D01*
X27636659Y-53993361D01*
X27638851Y-53971381D01*
X27645282Y-53966044D01*
X27684696Y-53953489D01*
X27736270Y-53959750D01*
X27803213Y-53985455D01*
X27840365Y-54004148D01*
X27938723Y-54052579D01*
X28025854Y-54085602D01*
X28112349Y-54106283D01*
X28208799Y-54117686D01*
X28239600Y-54119665D01*
X28343852Y-54121744D01*
X28441861Y-54114731D01*
X28532622Y-54100928D01*
X28635848Y-54084543D01*
X28719927Y-54076880D01*
X28792939Y-54077957D01*
X28862968Y-54087791D01*
X28921602Y-54101792D01*
X28973137Y-54115259D01*
X29007721Y-54120895D01*
X29035974Y-54118431D01*
X29068513Y-54107597D01*
X29093403Y-54097426D01*
X29148734Y-54076551D01*
X29191795Y-54067991D01*
X29228602Y-54073918D01*
X29265170Y-54096506D01*
X29307515Y-54137927D01*
X29354335Y-54191683D01*
X29419532Y-54264034D01*
X29475753Y-54315060D01*
X29527720Y-54348531D01*
X29573164Y-54366306D01*
X29597066Y-54372647D01*
X29610566Y-54372203D01*
X29613518Y-54360774D01*
X29605779Y-54334159D01*
X29587202Y-54288157D01*
X29568979Y-54245241D01*
X29548861Y-54191075D01*
X29537491Y-54138917D01*
X29532716Y-54076625D01*
X29532127Y-54037589D01*
X29534080Y-53961124D01*
X29542304Y-53908710D01*
X29559601Y-53876022D01*
X29588768Y-53858734D01*
X29632605Y-53852521D01*
X29652146Y-53852163D01*
X29714954Y-53844165D01*
X29762582Y-53817856D01*
X29799118Y-53769766D01*
X29826071Y-53704454D01*
X29845589Y-53653604D01*
X29867913Y-53607605D01*
X29878401Y-53590491D01*
X29898463Y-53564454D01*
X29912950Y-53559603D01*
X29932164Y-53573352D01*
X29935352Y-53576197D01*
X29956282Y-53599598D01*
X29987257Y-53639753D01*
X30022783Y-53689419D01*
X30036296Y-53709226D01*
X30076111Y-53766894D01*
X30117206Y-53823965D01*
X30152057Y-53870041D01*
X30158797Y-53878482D01*
X30195784Y-53916440D01*
X30243389Y-53955123D01*
X30293920Y-53989335D01*
X30339688Y-54013876D01*
X30373003Y-54023548D01*
X30373416Y-54023554D01*
X30386726Y-54012045D01*
X30385882Y-53979352D01*
X30371693Y-53928651D01*
X30344969Y-53863116D01*
X30318666Y-53809001D01*
X30281884Y-53730068D01*
X30263574Y-53671146D01*
X30263564Y-53630575D01*
X30281681Y-53606698D01*
X30296942Y-53600635D01*
X30320256Y-53599196D01*
X30345401Y-53609608D01*
X30378888Y-53635464D01*
X30407718Y-53661791D01*
X30519795Y-53756157D01*
X30633118Y-53827104D01*
X30755920Y-53878932D01*
X30892767Y-53915189D01*
X31024650Y-53932688D01*
X31170823Y-53935361D01*
X31321464Y-53923740D01*
X31466751Y-53898359D01*
X31535436Y-53880343D01*
X31617654Y-53845827D01*
X31697138Y-53790901D01*
X31776824Y-53713102D01*
X31859645Y-53609964D01*
X31863278Y-53604983D01*
X31899467Y-53556477D01*
X31931579Y-53515722D01*
X31954403Y-53489251D01*
X31959616Y-53484247D01*
X31972196Y-53465218D01*
X31969446Y-53455659D01*
X31955384Y-53455963D01*
X31951431Y-53462658D01*
X31932961Y-53474260D01*
X31890449Y-53480041D01*
X31869225Y-53480526D01*
X31818623Y-53484678D01*
X31753455Y-53495671D01*
X31686271Y-53511305D01*
X31673877Y-53514744D01*
X31600734Y-53535319D01*
X31543799Y-53549884D01*
X31493462Y-53560227D01*
X31440112Y-53568135D01*
X31374141Y-53575398D01*
X31319794Y-53580633D01*
X31144227Y-53586061D01*
X30966276Y-53571002D01*
X30825373Y-53543452D01*
X30723534Y-53510306D01*
X30619156Y-53463381D01*
X30517985Y-53406369D01*
X30425769Y-53342961D01*
X30348256Y-53276849D01*
X30291194Y-53211724D01*
X30278505Y-53192228D01*
X30256515Y-53163585D01*
X30232410Y-53156499D01*
X30217981Y-53158826D01*
X30178554Y-53172394D01*
X30119604Y-53198235D01*
X30046043Y-53233788D01*
X29962785Y-53276490D01*
X29874744Y-53323779D01*
X29786832Y-53373095D01*
X29703963Y-53421874D01*
X29653285Y-53453250D01*
X29442758Y-53577257D01*
X29240934Y-53676614D01*
X29052947Y-53749387D01*
X28863623Y-53802146D01*
X28657506Y-53842087D01*
X28443943Y-53867967D01*
X28232282Y-53878540D01*
X28097807Y-53876514D01*
X28012899Y-53873959D01*
X27923748Y-53873238D01*
X27841928Y-53874347D01*
X27787800Y-53876657D01*
X27727172Y-53881018D01*
X27688783Y-53885976D01*
X27666327Y-53893696D01*
X27653499Y-53906346D01*
X27644009Y-53926055D01*
X27627423Y-53954540D01*
X27606638Y-53960380D01*
X27596673Y-53958072D01*
X27555351Y-53938955D01*
X27512190Y-53904660D01*
X27464273Y-53852177D01*
X27408682Y-53778493D01*
X27373970Y-53728122D01*
X27333036Y-53668816D01*
X27295870Y-53617712D01*
X27266257Y-53579830D01*
X27247982Y-53560190D01*
X27246596Y-53559214D01*
X27224789Y-53554354D01*
X27179593Y-53550220D01*
X27116206Y-53547097D01*
X27039823Y-53545274D01*
X26987500Y-53544920D01*
X26896970Y-53545254D01*
X26828164Y-53546817D01*
X26774221Y-53550356D01*
X26728281Y-53556617D01*
X26683486Y-53566346D01*
X26632974Y-53580290D01*
X26615862Y-53585352D01*
X26505026Y-53611655D01*
X26384225Y-53628832D01*
X26262346Y-53636364D01*
X26148275Y-53633728D01*
X26050898Y-53620403D01*
X26044196Y-53618884D01*
X25996517Y-53608608D01*
X25961190Y-53602719D01*
X25945990Y-53602471D01*
X25773265Y-53602471D01*
X25647456Y-53454503D01*
X25633447Y-53437644D01*
X25501791Y-53271271D01*
X25384853Y-53106155D01*
X25280866Y-52938463D01*
X25210174Y-52805839D01*
X25353863Y-52805839D01*
X25362967Y-52851363D01*
X25377134Y-52897410D01*
X25401821Y-52937392D01*
X25440182Y-52973436D01*
X25495373Y-53007672D01*
X25570548Y-53042228D01*
X25668862Y-53079234D01*
X25733064Y-53101112D01*
X25835653Y-53132958D01*
X25937188Y-53159442D01*
X26041439Y-53180979D01*
X26152176Y-53197984D01*
X26273169Y-53210871D01*
X26408186Y-53220054D01*
X26560999Y-53225948D01*
X26735377Y-53228967D01*
X26901737Y-53229584D01*
X27082225Y-53228206D01*
X27238934Y-53224134D01*
X27376588Y-53216889D01*
X27499910Y-53205990D01*
X27613622Y-53190959D01*
X27722449Y-53171315D01*
X27831114Y-53146579D01*
X27902300Y-53127977D01*
X27969436Y-53109671D01*
X28034078Y-53092039D01*
X28085982Y-53077877D01*
X28102413Y-53073391D01*
X28158109Y-53060231D01*
X28215259Y-53049707D01*
X28226851Y-53048066D01*
X28265155Y-53044674D01*
X28285340Y-53051170D01*
X28297517Y-53072924D01*
X28302848Y-53088424D01*
X28326542Y-53133651D01*
X28368706Y-53176847D01*
X28432689Y-53220857D01*
X28504837Y-53260080D01*
X28555838Y-53287209D01*
X28585673Y-53307864D01*
X28599549Y-53326608D01*
X28602694Y-53345854D01*
X28597112Y-53385260D01*
X28588522Y-53408829D01*
X28583597Y-53429783D01*
X28596174Y-53451609D01*
X28620683Y-53474359D01*
X28688818Y-53521884D01*
X28754176Y-53544565D01*
X28821832Y-53542628D01*
X28896860Y-53516301D01*
X28947441Y-53488942D01*
X29010868Y-53455613D01*
X29063723Y-53440671D01*
X29116177Y-53442829D01*
X29176221Y-53460018D01*
X29251996Y-53478528D01*
X29328784Y-53482579D01*
X29396912Y-53472272D01*
X29432896Y-53457383D01*
X29461973Y-53436470D01*
X29475556Y-53418881D01*
X29475646Y-53416204D01*
X29461608Y-53407041D01*
X29425093Y-53391363D01*
X29370951Y-53371041D01*
X29304035Y-53347950D01*
X29269844Y-53336767D01*
X29126011Y-53287300D01*
X29005385Y-53238053D01*
X28902753Y-53186150D01*
X28812903Y-53128713D01*
X28730622Y-53062865D01*
X28670465Y-53005950D01*
X28545270Y-52880135D01*
X28356002Y-52928960D01*
X28229378Y-52959850D01*
X28084870Y-52992141D01*
X27931145Y-53024107D01*
X27776869Y-53054023D01*
X27630707Y-53080161D01*
X27501325Y-53100795D01*
X27473488Y-53104771D01*
X27382491Y-53114610D01*
X27270947Y-53122224D01*
X27144373Y-53127616D01*
X27008290Y-53130786D01*
X26868217Y-53131736D01*
X26729673Y-53130467D01*
X26598178Y-53126981D01*
X26479250Y-53121279D01*
X26378409Y-53113362D01*
X26308547Y-53104487D01*
X26172028Y-53078555D01*
X26026847Y-53044788D01*
X25879289Y-53005088D01*
X25735640Y-52961355D01*
X25602185Y-52915492D01*
X25485210Y-52869400D01*
X25399685Y-52829535D01*
X25353863Y-52805839D01*
X25210174Y-52805839D01*
X25188064Y-52764358D01*
X25104679Y-52580009D01*
X25028944Y-52381579D01*
X24959094Y-52165234D01*
X24893361Y-51927141D01*
X24843857Y-51724065D01*
X24822834Y-51634574D01*
X24803589Y-51554729D01*
X24787156Y-51488650D01*
X24774566Y-51440454D01*
X24766853Y-51414259D01*
X24765302Y-51410794D01*
X24762383Y-51421127D01*
X24759981Y-51454867D01*
X24758332Y-51506836D01*
X24757677Y-51571853D01*
X24757674Y-51576342D01*
X22911205Y-51576342D01*
X22885253Y-51457744D01*
X22865814Y-51350412D01*
X22852027Y-51247166D01*
X22843030Y-51140824D01*
X22837962Y-51024205D01*
X22835960Y-50890126D01*
X22835851Y-50807594D01*
X22837273Y-50662633D01*
X22841442Y-50540614D01*
X22849143Y-50435961D01*
X22861161Y-50343095D01*
X22878281Y-50256440D01*
X22901287Y-50170417D01*
X22930965Y-50079450D01*
X22943143Y-50045219D01*
X22972980Y-49971344D01*
X23010388Y-49891386D01*
X23051493Y-49812569D01*
X23092419Y-49742116D01*
X23129292Y-49687249D01*
X23146361Y-49666418D01*
X23187222Y-49632782D01*
X23235728Y-49608241D01*
X23284356Y-49594839D01*
X23325580Y-49594617D01*
X23351879Y-49609615D01*
X23352470Y-49610492D01*
X23356607Y-49630593D01*
X23360090Y-49673640D01*
X23362626Y-49733993D01*
X23363925Y-49806011D01*
X23364033Y-49834354D01*
X23364956Y-49925708D01*
X23367815Y-49990234D01*
X23372741Y-50029632D01*
X23379870Y-50045605D01*
X23380629Y-50045954D01*
X23404831Y-50040120D01*
X23431796Y-50011198D01*
X23457973Y-49963980D01*
X23475424Y-49917969D01*
X23497126Y-49862680D01*
X23531740Y-49790069D01*
X23575850Y-49706280D01*
X23626043Y-49617459D01*
X23678905Y-49529750D01*
X23731022Y-49449300D01*
X23754873Y-49414923D01*
X23868887Y-49270759D01*
X24003184Y-49127273D01*
X24150200Y-48991612D01*
X24302372Y-48870920D01*
X24404036Y-48801616D01*
X24621922Y-48679842D01*
X24858832Y-48577981D01*
X25112752Y-48496589D01*
X25381670Y-48436223D01*
X25663572Y-48397440D01*
X25923724Y-48381527D01*
X26073973Y-48379181D01*
X26202769Y-48381247D01*
X26316994Y-48388365D01*
X26423534Y-48401176D01*
X26529272Y-48420319D01*
X26641093Y-48446434D01*
X26652062Y-48449244D01*
X26851466Y-48511232D01*
X27026793Y-48588274D01*
X27178437Y-48680644D01*
X27306792Y-48788619D01*
X27412252Y-48912472D01*
X27483412Y-49028937D01*
X27535517Y-49140928D01*
X27573835Y-49251849D01*
X27600145Y-49369265D01*
X27616228Y-49500741D01*
X27622953Y-49621887D01*
X27626668Y-49691321D01*
X27632431Y-49748332D01*
X27639503Y-49786888D01*
X27644682Y-49799486D01*
X27674083Y-49818108D01*
X27721757Y-49832116D01*
X27777530Y-49839715D01*
X27831227Y-49839105D01*
X27850940Y-49835919D01*
X27912115Y-49808927D01*
X27968473Y-49760003D01*
X28013220Y-49695732D01*
X28027194Y-49665034D01*
X28044608Y-49601550D01*
X28050337Y-49528433D01*
X28044103Y-49441656D01*
X28025628Y-49337190D01*
X27996236Y-49216967D01*
X27977307Y-49142021D01*
X27962049Y-49073236D01*
X27951753Y-49017098D01*
X27947711Y-48980098D01*
X27947883Y-48973973D01*
X27951757Y-48947278D01*
X27961747Y-48933862D01*
X27985471Y-48929514D01*
X28027541Y-48929944D01*
X28120702Y-48946049D01*
X28210169Y-48986800D01*
X28292214Y-49048256D01*
X28363113Y-49126477D01*
X28419139Y-49217521D01*
X28456568Y-49317446D01*
X28470407Y-49398423D01*
X28470467Y-49476186D01*
X28457475Y-49562705D01*
X28447193Y-49606819D01*
X28423117Y-49733170D01*
X28417588Y-49846232D01*
X28425771Y-49919405D01*
X28437972Y-49952062D01*
X28463938Y-49970804D01*
X28486520Y-49978287D01*
X28568442Y-49992671D01*
X28633789Y-49986115D01*
X28680804Y-49958921D01*
X28728417Y-49896155D01*
X28770567Y-49811529D01*
X28805196Y-49711564D01*
X28830250Y-49602783D01*
X28843672Y-49491709D01*
X28845379Y-49436680D01*
X28835344Y-49298399D01*
X28807665Y-49151530D01*
X28764990Y-49005186D01*
X28709968Y-48868480D01*
X28646542Y-48752522D01*
X28597114Y-48673548D01*
X28563882Y-48612647D01*
X28545740Y-48565133D01*
X28541583Y-48526322D01*
X28550307Y-48491527D01*
X28570806Y-48456064D01*
X28575175Y-48449918D01*
X28618021Y-48399616D01*
X28659174Y-48373186D01*
X28705319Y-48367169D01*
X28729270Y-48370159D01*
X28796478Y-48390150D01*
X28875232Y-48425794D01*
X28957029Y-48472368D01*
X29033366Y-48525147D01*
X29082189Y-48566214D01*
X29144386Y-48631126D01*
X29190399Y-48696991D01*
X29223097Y-48770447D01*
X29245350Y-48858129D01*
X29260027Y-48966675D01*
X29261334Y-48980526D01*
X29270948Y-49075078D01*
X29281020Y-49146731D01*
X29292897Y-49201159D01*
X29307926Y-49244036D01*
X29327456Y-49281037D01*
X29335752Y-49293870D01*
X29367516Y-49330804D01*
X29403892Y-49358473D01*
X29437546Y-49372565D01*
X29461145Y-49368768D01*
X29461912Y-49368049D01*
X29474962Y-49342125D01*
X29487910Y-49294258D01*
X29499681Y-49231073D01*
X29509202Y-49159197D01*
X29515398Y-49085257D01*
X29517246Y-49026734D01*
X29508244Y-48883310D01*
X29479499Y-48746324D01*
X29429250Y-48610386D01*
X29355737Y-48470106D01*
X29313277Y-48402103D01*
X29186118Y-48228029D01*
X29048210Y-48079494D01*
X28897831Y-47954911D01*
X28733258Y-47852695D01*
X28695604Y-47833362D01*
X28638777Y-47807506D01*
X28561107Y-47775466D01*
X28468998Y-47739708D01*
X28368855Y-47702697D01*
X28267080Y-47666898D01*
X28234477Y-47655854D01*
X28141652Y-47624408D01*
X28055707Y-47594673D01*
X27981107Y-47568243D01*
X27922319Y-47546712D01*
X27883807Y-47531675D01*
X27873021Y-47526819D01*
X27837284Y-47498330D01*
X27808112Y-47458850D01*
X27806111Y-47454867D01*
X27794120Y-47426685D01*
X27790196Y-47402362D01*
X27792051Y-47390369D01*
X27906059Y-47390369D01*
X27919595Y-47413855D01*
X27943511Y-47433079D01*
X28010478Y-47470072D01*
X28091627Y-47499442D01*
X28172708Y-47516529D01*
X28206283Y-47518986D01*
X28274419Y-47520030D01*
X28239602Y-47452135D01*
X28211090Y-47407115D01*
X28170015Y-47354737D01*
X28125975Y-47307064D01*
X28085635Y-47268380D01*
X28058841Y-47246758D01*
X28038997Y-47238974D01*
X28019506Y-47241804D01*
X28004354Y-47247622D01*
X27948585Y-47281890D01*
X27916138Y-47330432D01*
X27908223Y-47358198D01*
X27906059Y-47390369D01*
X27792051Y-47390369D01*
X27794826Y-47372432D01*
X27808494Y-47327428D01*
X27813390Y-47312682D01*
X27827974Y-47262898D01*
X27836245Y-47222140D01*
X27836465Y-47199632D01*
X27816604Y-47178021D01*
X27779594Y-47156461D01*
X27736400Y-47140195D01*
X27700027Y-47134413D01*
X27648355Y-47144364D01*
X27593993Y-47169225D01*
X27548017Y-47202819D01*
X27524464Y-47232322D01*
X27504726Y-47294183D01*
X27508530Y-47361282D01*
X27536290Y-47437889D01*
X27546387Y-47457830D01*
X27571501Y-47506522D01*
X27592444Y-47549403D01*
X27603295Y-47573861D01*
X27610295Y-47595209D01*
X27603447Y-47598606D01*
X27577216Y-47586250D01*
X27574991Y-47585100D01*
X27511430Y-47544037D01*
X27458252Y-47494323D01*
X27423628Y-47443738D01*
X27421516Y-47438968D01*
X27403540Y-47360728D01*
X27410682Y-47278904D01*
X27440734Y-47198308D01*
X27491488Y-47123755D01*
X27560738Y-47060059D01*
X27609278Y-47029572D01*
X27667689Y-47009300D01*
X27742668Y-46998548D01*
X27823795Y-46997413D01*
X27900647Y-47005995D01*
X27962802Y-47024391D01*
X27966622Y-47026190D01*
X28003642Y-47050411D01*
X28055113Y-47092776D01*
X28117121Y-47149522D01*
X28185751Y-47216885D01*
X28257090Y-47291102D01*
X28327223Y-47368409D01*
X28351140Y-47395942D01*
X28426967Y-47476445D01*
X28496094Y-47531404D01*
X28562028Y-47561979D01*
X28628279Y-47569329D01*
X28698356Y-47554613D01*
X28755839Y-47529636D01*
X28808467Y-47498316D01*
X28841367Y-47464672D01*
X28858852Y-47420990D01*
X28865231Y-47359559D01*
X28865637Y-47333225D01*
X28856818Y-47244458D01*
X28828386Y-47160839D01*
X28778066Y-47077847D01*
X28703578Y-46990959D01*
X28682541Y-46969705D01*
X28573847Y-46870411D01*
X28460851Y-46784413D01*
X28339410Y-46709649D01*
X28205379Y-46644056D01*
X28054615Y-46585571D01*
X27882974Y-46532133D01*
X27716645Y-46488913D01*
X27589928Y-46456849D01*
X27491462Y-46428643D01*
X27421174Y-46404268D01*
X27378993Y-46383698D01*
X27364847Y-46366907D01*
X27366138Y-46362473D01*
X27398736Y-46334973D01*
X27458707Y-46313050D01*
X27545347Y-46296909D01*
X27614522Y-46289705D01*
X27710259Y-46279611D01*
X27780638Y-46266806D01*
X27824704Y-46251551D01*
X27841505Y-46234105D01*
X27840953Y-46228062D01*
X27820875Y-46206070D01*
X27776821Y-46181509D01*
X27713096Y-46155993D01*
X27634004Y-46131133D01*
X27543849Y-46108544D01*
X27494928Y-46098404D01*
X27365630Y-46074177D01*
X27252587Y-46054903D01*
X27149665Y-46040043D01*
X27050727Y-46029059D01*
X26949638Y-46021412D01*
X26840261Y-46016564D01*
X26716462Y-46013975D01*
X26572104Y-46013109D01*
X26522953Y-46013105D01*
X26392973Y-46013472D01*
X26286683Y-46014478D01*
X26199187Y-46016374D01*
X26125591Y-46019410D01*
X26060998Y-46023837D01*
X26000514Y-46029906D01*
X25939244Y-46037867D01*
X25886881Y-46045688D01*
X25530966Y-46113998D01*
X25187592Y-46206710D01*
X24855242Y-46324495D01*
X24532401Y-46468021D01*
X24217553Y-46637956D01*
X23909181Y-46834969D01*
X23628468Y-47041831D01*
X23385088Y-47245609D01*
X23156544Y-47464078D01*
X22938677Y-47701546D01*
X22727326Y-47962323D01*
X22682014Y-48022281D01*
X22621835Y-48104909D01*
X22579660Y-48167999D01*
X22554601Y-48213462D01*
X22545767Y-48243213D01*
X22245523Y-48243213D01*
X22462731Y-47929646D01*
X22703399Y-47628642D01*
X22960948Y-47349540D01*
X23234790Y-47093031D01*
X23524341Y-46859800D01*
X23792846Y-46673605D01*
X24110347Y-46485828D01*
X24444259Y-46320555D01*
X24792387Y-46178588D01*
X25152538Y-46060725D01*
X25522519Y-45967767D01*
X25900135Y-45900513D01*
X25921657Y-45897497D01*
X25972360Y-45891156D01*
X26024920Y-45886162D01*
X26082978Y-45882428D01*
X26150176Y-45879865D01*
X26230158Y-45878384D01*
X26326567Y-45877896D01*
X26443044Y-45878314D01*
G37*
D11*
%TO.C,SW_EC8*%
X166804500Y-51593750D02*
G75*
G02*
X153870500Y-51593750I-6467000J0D01*
G01*
X153870500Y-51593750D02*
G75*
G02*
X166804500Y-51593750I6467000J0D01*
G01*
%TO.C,SW_EC10*%
X204904500Y-51593750D02*
G75*
G02*
X191970500Y-51593750I-6467000J0D01*
G01*
X191970500Y-51593750D02*
G75*
G02*
X204904500Y-51593750I6467000J0D01*
G01*
%TO.C,SW_EC25*%
X40598250Y-89693750D02*
G75*
G02*
X27664250Y-89693750I-6467000J0D01*
G01*
X27664250Y-89693750D02*
G75*
G02*
X40598250Y-89693750I6467000J0D01*
G01*
%TO.C,SW_EC7*%
X147754500Y-51593750D02*
G75*
G02*
X134820500Y-51593750I-6467000J0D01*
G01*
X134820500Y-51593750D02*
G75*
G02*
X147754500Y-51593750I6467000J0D01*
G01*
%TO.C,SW_EC33*%
X200142000Y-89693750D02*
G75*
G02*
X187208000Y-89693750I-6467000J0D01*
G01*
X187208000Y-89693750D02*
G75*
G02*
X200142000Y-89693750I6467000J0D01*
G01*
%TO.C,SW_EC34*%
X219192000Y-89693750D02*
G75*
G02*
X206258000Y-89693750I-6467000J0D01*
G01*
X206258000Y-89693750D02*
G75*
G02*
X219192000Y-89693750I6467000J0D01*
G01*
%TO.C,SW_EC2*%
X52504500Y-51593750D02*
G75*
G02*
X39570500Y-51593750I-6467000J0D01*
G01*
X39570500Y-51593750D02*
G75*
G02*
X52504500Y-51593750I6467000J0D01*
G01*
%TO.C,SW_EC40*%
X92985750Y-108743750D02*
G75*
G02*
X80051750Y-108743750I-6467000J0D01*
G01*
X80051750Y-108743750D02*
G75*
G02*
X92985750Y-108743750I6467000J0D01*
G01*
%TO.C,SW_EC21*%
X190617000Y-70643750D02*
G75*
G02*
X177683000Y-70643750I-6467000J0D01*
G01*
X177683000Y-70643750D02*
G75*
G02*
X190617000Y-70643750I6467000J0D01*
G01*
%TO.C,SW_EC45*%
X238242000Y-108743750D02*
G75*
G02*
X225308000Y-108743750I-6467000J0D01*
G01*
X225308000Y-108743750D02*
G75*
G02*
X238242000Y-108743750I6467000J0D01*
G01*
%TO.C,SW_EC41*%
X126323250Y-108743750D02*
G75*
G02*
X113389250Y-108743750I-6467000J0D01*
G01*
X113389250Y-108743750D02*
G75*
G02*
X126323250Y-108743750I6467000J0D01*
G01*
%TO.C,SW_EC44*%
X209667000Y-108743750D02*
G75*
G02*
X196733000Y-108743750I-6467000J0D01*
G01*
X196733000Y-108743750D02*
G75*
G02*
X209667000Y-108743750I6467000J0D01*
G01*
%TO.C,SW_EC15*%
X76317000Y-70643750D02*
G75*
G02*
X63383000Y-70643750I-6467000J0D01*
G01*
X63383000Y-70643750D02*
G75*
G02*
X76317000Y-70643750I6467000J0D01*
G01*
%TO.C,SW_EC20*%
X171567000Y-70643750D02*
G75*
G02*
X158633000Y-70643750I-6467000J0D01*
G01*
X158633000Y-70643750D02*
G75*
G02*
X171567000Y-70643750I6467000J0D01*
G01*
D13*
%TO.C,SW2*%
X263975000Y-83593750D02*
X266375000Y-83593750D01*
X263975000Y-87693750D02*
X263975000Y-83593750D01*
X263975000Y-91693750D02*
X263975000Y-95793750D01*
X263975000Y-95793750D02*
X275775000Y-95793750D01*
X268575000Y-83593750D02*
X271175000Y-83593750D01*
X269575000Y-95193750D02*
X270175000Y-95193750D01*
X269875000Y-95493750D02*
X269575000Y-95193750D01*
X270175000Y-95193750D02*
X269875000Y-95493750D01*
X273375000Y-83593750D02*
X275775000Y-83593750D01*
X275775000Y-83593750D02*
X275775000Y-87693750D01*
X275775000Y-91693750D02*
X275775000Y-95793750D01*
X271875000Y-89693750D02*
G75*
G02*
X267875000Y-89693750I-2000000J0D01*
G01*
X267875000Y-89693750D02*
G75*
G02*
X271875000Y-89693750I2000000J0D01*
G01*
D11*
%TO.C,SW_EC30*%
X142992000Y-89693750D02*
G75*
G02*
X130058000Y-89693750I-6467000J0D01*
G01*
X130058000Y-89693750D02*
G75*
G02*
X142992000Y-89693750I6467000J0D01*
G01*
%TO.C,SW_EC3*%
X71554500Y-51593750D02*
G75*
G02*
X58620500Y-51593750I-6467000J0D01*
G01*
X58620500Y-51593750D02*
G75*
G02*
X71554500Y-51593750I6467000J0D01*
G01*
%TO.C,SW_EC5*%
X109654500Y-51593750D02*
G75*
G02*
X96720500Y-51593750I-6467000J0D01*
G01*
X96720500Y-51593750D02*
G75*
G02*
X109654500Y-51593750I6467000J0D01*
G01*
%TO.C,SW_EC43*%
X173948250Y-108743750D02*
G75*
G02*
X161014250Y-108743750I-6467000J0D01*
G01*
X161014250Y-108743750D02*
G75*
G02*
X173948250Y-108743750I6467000J0D01*
G01*
%TO.C,SW_EC31*%
X162042000Y-89693750D02*
G75*
G02*
X149108000Y-89693750I-6467000J0D01*
G01*
X149108000Y-89693750D02*
G75*
G02*
X162042000Y-89693750I6467000J0D01*
G01*
%TO.C,SW_EC32*%
X181092000Y-89693750D02*
G75*
G02*
X168158000Y-89693750I-6467000J0D01*
G01*
X168158000Y-89693750D02*
G75*
G02*
X181092000Y-89693750I6467000J0D01*
G01*
%TO.C,SW_EC36*%
X238242000Y-89693750D02*
G75*
G02*
X225308000Y-89693750I-6467000J0D01*
G01*
X225308000Y-89693750D02*
G75*
G02*
X238242000Y-89693750I6467000J0D01*
G01*
%TO.C,SW_EC39*%
X71554500Y-108743750D02*
G75*
G02*
X58620500Y-108743750I-6467000J0D01*
G01*
X58620500Y-108743750D02*
G75*
G02*
X71554500Y-108743750I6467000J0D01*
G01*
%TO.C,SW_EC22*%
X209667000Y-70643750D02*
G75*
G02*
X196733000Y-70643750I-6467000J0D01*
G01*
X196733000Y-70643750D02*
G75*
G02*
X209667000Y-70643750I6467000J0D01*
G01*
%TO.C,SW_EC13*%
X35835750Y-70643750D02*
G75*
G02*
X22901750Y-70643750I-6467000J0D01*
G01*
X22901750Y-70643750D02*
G75*
G02*
X35835750Y-70643750I6467000J0D01*
G01*
%TO.C,SW_EC14*%
X57267000Y-70643750D02*
G75*
G02*
X44333000Y-70643750I-6467000J0D01*
G01*
X44333000Y-70643750D02*
G75*
G02*
X57267000Y-70643750I6467000J0D01*
G01*
%TO.C,SW_EC9*%
X185854500Y-51593750D02*
G75*
G02*
X172920500Y-51593750I-6467000J0D01*
G01*
X172920500Y-51593750D02*
G75*
G02*
X185854500Y-51593750I6467000J0D01*
G01*
%TO.C,SW_EC42*%
X140610750Y-108743750D02*
G75*
G02*
X127676750Y-108743750I-6467000J0D01*
G01*
X127676750Y-108743750D02*
G75*
G02*
X140610750Y-108743750I6467000J0D01*
G01*
%TO.C,SW_EC23*%
X228717000Y-70643750D02*
G75*
G02*
X215783000Y-70643750I-6467000J0D01*
G01*
X215783000Y-70643750D02*
G75*
G02*
X228717000Y-70643750I6467000J0D01*
G01*
%TO.C,SW_EC1*%
X33454500Y-51593750D02*
G75*
G02*
X20520500Y-51593750I-6467000J0D01*
G01*
X20520500Y-51593750D02*
G75*
G02*
X33454500Y-51593750I6467000J0D01*
G01*
%TO.C,SW_EC35*%
X257292000Y-89693750D02*
G75*
G02*
X244358000Y-89693750I-6467000J0D01*
G01*
X244358000Y-89693750D02*
G75*
G02*
X257292000Y-89693750I6467000J0D01*
G01*
%TD*%
D14*
%TO.C,H16*%
X257968750Y-70643750D03*
%TD*%
%TO.C,H15*%
X260350000Y-108743750D03*
%TD*%
%TO.C,H6*%
X98425000Y-70643750D03*
%TD*%
%TO.C,H4*%
X253206250Y-51593750D03*
%TD*%
%TO.C,H5*%
X60325000Y-70643750D03*
%TD*%
%TO.C,H21*%
X127000000Y-89693750D03*
%TD*%
%TO.C,H14*%
X193675000Y-108743750D03*
%TD*%
%TO.C,H8*%
X43656250Y-89693750D03*
%TD*%
%TO.C,H19*%
X136525000Y-70643750D03*
%TD*%
%TO.C,H18*%
X74612500Y-51593750D03*
%TD*%
%TO.C,H1*%
X36512500Y-51593750D03*
%TD*%
%TO.C,H22*%
X207962500Y-51593750D03*
%TD*%
%TO.C,H10*%
X165100000Y-89693750D03*
%TD*%
%TO.C,H12*%
X74612500Y-108743750D03*
%TD*%
%TO.C,H23*%
X174625000Y-70643750D03*
%TD*%
%TO.C,H7*%
X212725000Y-70643750D03*
%TD*%
%TO.C,H20*%
X36512500Y-108743750D03*
%TD*%
%TO.C,H3*%
X169862500Y-51593750D03*
%TD*%
%TO.C,H2*%
X131762500Y-51593750D03*
%TD*%
%TO.C,H13*%
X96043750Y-108743750D03*
%TD*%
%TO.C,H25*%
X203200000Y-89693750D03*
%TD*%
%TO.C,H9*%
X88900000Y-89693750D03*
%TD*%
D15*
%TO.C,OL1*%
X272742500Y-44450000D03*
X270202500Y-44450000D03*
X267662500Y-44450000D03*
X265122500Y-44450000D03*
%TD*%
D14*
%TO.C,H17*%
X19843750Y-70643750D03*
%TD*%
%LPC*%
%TO.C,H16*%
X257968750Y-70643750D03*
%TD*%
%TO.C,H15*%
X260350000Y-108743750D03*
%TD*%
%TO.C,H6*%
X98425000Y-70643750D03*
%TD*%
%TO.C,H4*%
X253206250Y-51593750D03*
%TD*%
%TO.C,H5*%
X60325000Y-70643750D03*
%TD*%
%TO.C,H21*%
X127000000Y-89693750D03*
%TD*%
%TO.C,H14*%
X193675000Y-108743750D03*
%TD*%
%TO.C,H8*%
X43656250Y-89693750D03*
%TD*%
%TO.C,H19*%
X136525000Y-70643750D03*
%TD*%
%TO.C,H18*%
X74612500Y-51593750D03*
%TD*%
%TO.C,H1*%
X36512500Y-51593750D03*
%TD*%
%TO.C,H22*%
X207962500Y-51593750D03*
%TD*%
%TO.C,H10*%
X165100000Y-89693750D03*
%TD*%
%TO.C,H12*%
X74612500Y-108743750D03*
%TD*%
%TO.C,H23*%
X174625000Y-70643750D03*
%TD*%
%TO.C,H7*%
X212725000Y-70643750D03*
%TD*%
%TO.C,H20*%
X36512500Y-108743750D03*
%TD*%
%TO.C,H3*%
X169862500Y-51593750D03*
%TD*%
%TO.C,H2*%
X131762500Y-51593750D03*
%TD*%
%TO.C,H13*%
X96043750Y-108743750D03*
%TD*%
%TO.C,H25*%
X203200000Y-89693750D03*
%TD*%
%TO.C,H9*%
X88900000Y-89693750D03*
%TD*%
%TO.C,H17*%
X19843750Y-70643750D03*
%TD*%
D16*
%TO.C,SW1*%
X230981250Y-52868750D03*
D17*
X230981250Y-50328750D03*
%TD*%
D18*
%TO.C,USB1*%
X147922500Y-46215000D03*
X153702500Y-46215000D03*
D19*
X146492500Y-42565000D03*
D20*
X146492500Y-46745000D03*
D19*
X155132500Y-42565000D03*
D20*
X155132500Y-46745000D03*
%TD*%
%LPD*%
M02*
